<svg version="1.1" viewBox="0.0 0.0 197.3202099737533 179.01837270341207" fill="none" stroke="none" stroke-linecap="square" stroke-miterlimit="10" xmlns:xlink="http://www.w3.org/1999/xlink" xmlns="http://www.w3.org/2000/svg"><clipPath id="p.0"><path d="m0 0l197.3202 0l0 179.01837l-197.3202 0l0 -179.01837z" clip-rule="nonzero"/></clipPath><g clip-path="url(#p.0)"><path fill="#000000" fill-opacity="0.0" d="m0 0l197.3202 0l0 179.01837l-197.3202 0z" fill-rule="evenodd"/><path fill="#000000" fill-opacity="0.0" d="m87.71448 34.856335l92.53543 0l0 42.01575l-92.53543 0z" fill-rule="evenodd"/><path fill="#000000" d="m104.3551 65.51071l-4.5 0l0 -16.921879l4.5 0l0 1.265625l-2.984375 0l0 14.375004l2.984375 0l0 1.28125zm11.694794 -3.7343788l-7.46875 0l0 -1.46875l3.0625 0l0 -8.703125l-2.859375 1.546875l-0.578125 -1.34375l3.78125 -1.984375l1.40625 0l0 10.484375l2.65625 0l0 1.46875zm3.3510437 1.875q0.453125 0.015625 0.890625 -0.09375q0.4375 -0.09375 0.765625 -0.296875q0.34375 -0.1875 0.546875 -0.484375q0.203125 -0.296875 0.203125 -0.65625q0 -0.390625 -0.140625 -0.625q-0.125 -0.234375 -0.296875 -0.4375q-0.15625 -0.203125 -0.296875 -0.421875q-0.125 -0.234375 -0.125 -0.625q0 -0.1875 0.0625 -0.390625q0.078125 -0.21875 0.21875 -0.390625q0.15625 -0.171875 0.390625 -0.28125q0.234375 -0.109375 0.5625 -0.109375q0.3125 0 0.609375 0.140625q0.296875 0.125 0.515625 0.40625q0.21875 0.265625 0.34375 0.6875q0.140625 0.40625 0.140625 0.953125q0 0.765625 -0.28125 1.453125q-0.265625 0.703125 -0.828125 1.234375q-0.546875 0.5468788 -1.375 0.8593788q-0.8125 0.3125 -1.90625 0.3125l0 -1.2343788zm17.272919 -1.875l-7.84375 0l0 -1.421875l3.078125 -3.0625q0.75 -0.75 1.21875 -1.296875q0.484375 -0.546875 0.75 -0.984375q0.265625 -0.453125 0.34375 -0.859375q0.09375 -0.40625 0.09375 -0.859375q0 -0.4375 -0.125 -0.828125q-0.109375 -0.40625 -0.359375 -0.703125q-0.234375 -0.3125 -0.640625 -0.484375q-0.390625 -0.171875 -0.9375 -0.171875q-0.75 0 -1.375 0.34375q-0.609375 0.328125 -1.125 0.875l-0.875 -1.046875q0.671875 -0.71875 1.546875 -1.140625q0.875 -0.421875 2.046875 -0.421875q0.796875 0 1.4375 0.234375q0.65625 0.234375 1.125 0.6875q0.484375 0.4375 0.734375 1.09375q0.265625 0.640625 0.265625 1.453125q0 0.671875 -0.1875 1.265625q-0.171875 0.578125 -0.546875 1.15625q-0.375 0.578125 -0.9375 1.203125q-0.546875 0.609375 -1.3125 1.359375l-2.171875 2.09375l5.796875 0l0 1.515625zm3.2416687 1.875q0.453125 0.015625 0.890625 -0.09375q0.4375 -0.09375 0.765625 -0.296875q0.34375 -0.1875 0.546875 -0.484375q0.203125 -0.296875 0.203125 -0.65625q0 -0.390625 -0.140625 -0.625q-0.125 -0.234375 -0.296875 -0.4375q-0.15625 -0.203125 -0.296875 -0.421875q-0.125 -0.234375 -0.125 -0.625q0 -0.1875 0.0625 -0.390625q0.078125 -0.21875 0.21875 -0.390625q0.15625 -0.171875 0.390625 -0.28125q0.234375 -0.109375 0.5625 -0.109375q0.3125 0 0.609375 0.140625q0.296875 0.125 0.515625 0.40625q0.21875 0.265625 0.34375 0.6875q0.140625 0.40625 0.140625 0.953125q0 0.765625 -0.28125 1.453125q-0.265625 0.703125 -0.828125 1.234375q-0.546875 0.5468788 -1.375 0.8593788q-0.8125 0.3125 -1.90625 0.3125l0 -1.2343788zm17.038544 -5.484375q0 0.78125 -0.328125 1.46875q-0.3125 0.6875 -0.953125 1.203125q-0.625 0.515625 -1.59375 0.8125q-0.96875 0.28125 -2.25 0.28125q-0.71875 0 -1.28125 -0.046875q-0.5625 -0.03125 -1.046875 -0.109375l0 -1.421875q0.5625 0.09375 1.1875 0.15625q0.625 0.046875 1.28125 0.046875q0.890625 0 1.515625 -0.15625q0.640625 -0.15625 1.046875 -0.453125q0.40625 -0.296875 0.578125 -0.71875q0.1875 -0.4375 0.1875 -0.984375q0 -0.484375 -0.21875 -0.84375q-0.21875 -0.375 -0.625 -0.609375q-0.390625 -0.25 -0.9375 -0.375q-0.546875 -0.125 -1.203125 -0.125l-1.359375 0l0 -1.296875l1.375 0q0.53125 0 0.96875 -0.140625q0.453125 -0.140625 0.765625 -0.40625q0.3125 -0.265625 0.484375 -0.65625q0.171875 -0.390625 0.171875 -0.875q0 -0.953125 -0.59375 -1.390625q-0.578125 -0.4375 -1.703125 -0.4375q-0.609375 0 -1.25 0.125q-0.625 0.109375 -1.359375 0.34375l0 -1.390625q0.3125 -0.109375 0.65625 -0.1875q0.359375 -0.09375 0.703125 -0.140625q0.359375 -0.0625 0.703125 -0.09375q0.34375 -0.03125 0.65625 -0.03125q0.953125 0 1.671875 0.203125q0.71875 0.203125 1.203125 0.59375q0.484375 0.375 0.71875 0.921875q0.25 0.546875 0.25 1.21875q0 1.03125 -0.53125 1.71875q-0.515625 0.6875 -1.421875 1.109375q0.46875 0.0625 0.90625 0.28125q0.453125 0.21875 0.8125 0.5625q0.375 0.34375 0.59375 0.8125q0.21875 0.453125 0.21875 1.03125zm8.413544 7.343754l-4.484375 0l0 -1.28125l2.953125 0l0 -14.375004l-2.953125 0l0 -1.265625l4.484375 0l0 16.921879z" fill-rule="nonzero"/><path fill="#000000" fill-opacity="0.0" d="m6.249344 3.7141452l-0.094488144 165.85828" fill-rule="evenodd"/><path stroke="#000000" stroke-width="1.0" stroke-linejoin="round" stroke-linecap="butt" d="m6.247391 7.141231l-0.092535496 162.43118" fill-rule="evenodd"/><path fill="#000000" stroke="#000000" stroke-width="1.0" stroke-linecap="butt" d="m6.247391 7.141231l1.1239429 1.1252246l-1.1228232 -3.0904083l-1.1263433 3.0891266z" fill-rule="evenodd"/><path fill="#000000" fill-opacity="0.0" d="m190.62466 170.6774l-184.59842 -0.40945435" fill-rule="evenodd"/><path stroke="#000000" stroke-width="1.0" stroke-linejoin="round" stroke-linecap="butt" d="m187.19759 170.6698l-181.17134 -0.4018402" fill-rule="evenodd"/><path fill="#000000" stroke="#000000" stroke-width="1.0" stroke-linecap="butt" d="m187.1976 170.6698l-1.1270752 1.1220856l3.0922546 -1.1177216l-3.0872803 -1.1314392z" fill-rule="evenodd"/><path fill="#000000" fill-opacity="0.0" d="m6.027321 169.8585l164.91339 -104.25197" fill-rule="evenodd"/><path stroke="#000000" stroke-width="1.0" stroke-linejoin="round" stroke-linecap="butt" d="m6.027321 169.8585l162.0166 -102.42072" fill-rule="evenodd"/><path fill="#000000" stroke="#000000" stroke-width="1.0" stroke-linecap="butt" d="m168.04391 67.43778l-0.3496704 1.5514908l2.0107727 -2.6015778l-3.2126007 0.7004318z" fill-rule="evenodd"/><path fill="#cfe2f3" d="m126.58113 74.945114l0 0c0 -2.5135422 2.1151886 -4.551178 4.724411 -4.551178l0 0c1.2529907 0 2.4546661 0.47949982 3.3406525 1.3330078c0.8860016 0.8535156 1.3837585 2.0111237 1.3837585 3.2181702l0 0c0 2.5135498 -2.1151886 4.5511856 -4.724411 4.5511856l0 0c-2.6092224 0 -4.724411 -2.0376358 -4.724411 -4.5511856z" fill-rule="evenodd"/><path stroke="#000000" stroke-width="1.0" stroke-linejoin="round" stroke-linecap="butt" d="m126.58113 74.945114l0 0c0 -2.5135422 2.1151886 -4.551178 4.724411 -4.551178l0 0c1.2529907 0 2.4546661 0.47949982 3.3406525 1.3330078c0.8860016 0.8535156 1.3837585 2.0111237 1.3837585 3.2181702l0 0c0 2.5135498 -2.1151886 4.5511856 -4.724411 4.5511856l0 0c-2.6092224 0 -4.724411 -2.0376358 -4.724411 -4.5511856z" fill-rule="evenodd"/><path fill="#000000" fill-opacity="0.0" d="m169.91042 136.6246l30.582672 0l0 42.015747l-30.582672 0z" fill-rule="evenodd"/><path fill="#000000" d="m184.59792 155.4821l-2.8125 -5.203125l-1.984375 0l3.859375 6.578125l-3.953125 6.6875l1.984375 0l2.953125 -5.296875l2.921875 5.296875l1.96875 0l-3.9375 -6.6875l3.859375 -6.578125l-2.0 0l-2.859375 5.203125z" fill-rule="nonzero"/><path fill="#000000" fill-opacity="0.0" d="m0.8956184 -9.356298l28.535433 0l0 42.015747l-28.535433 0z" fill-rule="evenodd"/><path fill="#000000" d="m15.395618 10.954325l-3.015625 -6.6562505l-1.921875 0l4.125 8.3125l0.015625 4.953125l1.578125 0l0.015625 -4.953125l4.140625 -8.3125l-1.921875 0l-3.015625 6.6562505z" fill-rule="nonzero"/><path fill="#000000" fill-opacity="0.0" d="m154.94858 37.48055l54.61418 0l0 42.01575l-54.61418 0z" fill-rule="evenodd"/><path fill="#000000" d="m179.61101 62.963047l6.625 -10.546875l-0.015625 -1.28125l-8.40625 0l0 1.4375l6.484375 0l-6.609375 10.515625l0.03125 1.3125038l8.765625 0l0 -1.4375038l-6.875 0z" fill-rule="nonzero"/><path fill="#000000" fill-opacity="0.0" d="m8.722353 79.49676l92.53544 0l0 42.015747l-92.53544 0z" fill-rule="evenodd"/><path fill="#000000" d="m25.362978 110.15113l-4.5 0l0 -16.921875l4.5 0l0 1.265625l-2.984375 0l0 14.375l2.984375 0l0 1.28125zm11.694792 -3.734375l-7.468748 0l0 -1.46875l3.062498 0l0 -8.703125l-2.859373 1.546875l-0.578125 -1.34375l3.781248 -1.984375l1.40625 0l0 10.484375l2.65625 0l0 1.46875zm3.3510437 1.875q0.453125 0.015625 0.890625 -0.09375q0.4375 -0.09375 0.765625 -0.296875q0.34375 -0.1875 0.546875 -0.484375q0.203125 -0.296875 0.203125 -0.65625q0 -0.390625 -0.140625 -0.625q-0.125 -0.234375 -0.296875 -0.4375q-0.15625 -0.203125 -0.296875 -0.421875q-0.125 -0.234375 -0.125 -0.625q0 -0.1875 0.0625 -0.390625q0.078125 -0.21875 0.21875 -0.390625q0.15625 -0.171875 0.390625 -0.28125q0.234375 -0.109375 0.5625 -0.109375q0.3125 0 0.609375 0.140625q0.296875 0.125 0.515625 0.40625q0.21875 0.265625 0.34375 0.6875q0.140625 0.40625 0.140625 0.953125q0 0.765625 -0.28125 1.453125q-0.265625 0.703125 -0.828125 1.234375q-0.546875 0.546875 -1.375 0.859375q-0.8125 0.3125 -1.90625 0.3125l0 -1.234375zm17.163544 -1.875l-7.46875 0l0 -1.46875l3.0625 0l0 -8.703125l-2.859375 1.546875l-0.578125 -1.34375l3.78125 -1.984375l1.40625 0l0 10.484375l2.65625 0l0 1.46875zm3.3510437 1.875q0.453125 0.015625 0.890625 -0.09375q0.4375 -0.09375 0.765625 -0.296875q0.34375 -0.1875 0.546875 -0.484375q0.203125 -0.296875 0.203125 -0.65625q0 -0.390625 -0.140625 -0.625q-0.125 -0.234375 -0.296875 -0.4375q-0.15625 -0.203125 -0.296875 -0.421875q-0.125 -0.234375 -0.125 -0.625q0 -0.1875 0.0625 -0.390625q0.078125 -0.21875 0.21875 -0.390625q0.15625 -0.171875 0.390625 -0.28125q0.234375 -0.109375 0.5625 -0.109375q0.3125 0 0.609375 0.140625q0.296875 0.125 0.515625 0.40625q0.21875 0.265625 0.34375 0.6875q0.140625 0.40625 0.140625 0.953125q0 0.765625 -0.28125 1.453125q-0.265625 0.703125 -0.828125 1.234375q-0.546875 0.546875 -1.375 0.859375q-0.8125 0.3125 -1.90625 0.3125l0 -1.234375zm17.163544 -1.875l-7.46875 0l0 -1.46875l3.0625 0l0 -8.703125l-2.859375 1.546875l-0.578125 -1.34375l3.78125 -1.984375l1.40625 0l0 10.484375l2.65625 0l0 1.46875zm8.288544 3.734375l-4.484375 0l0 -1.28125l2.953125 0l0 -14.375l-2.953125 0l0 -1.265625l4.484375 0l0 16.921875z" fill-rule="nonzero"/><path fill="#cfe2f3" d="m47.589 123.09734l0 0c0 -4.453064 3.8637466 -8.062988 8.629921 -8.062988l0 0c4.7661743 0 8.629925 3.6099243 8.629925 8.062988l0 0c0 4.4530716 -3.8637505 8.062996 -8.629925 8.062996l0 0c-4.7661743 0 -8.629921 -3.6099243 -8.629921 -8.062996z" fill-rule="evenodd"/><path stroke="#000000" stroke-width="1.0" stroke-linejoin="round" stroke-linecap="butt" d="m47.589 123.09734l0 0c0 -4.453064 3.8637466 -8.062988 8.629921 -8.062988l0 0c4.7661743 0 8.629925 3.6099243 8.629925 8.062988l0 0c0 4.4530716 -3.8637505 8.062996 -8.629925 8.062996l0 0c-4.7661743 0 -8.629921 -3.6099243 -8.629921 -8.062996z" fill-rule="evenodd"/></g></svg>