<svg version="1.1" viewBox="0.0 0.0 385.8635170603674 378.7821522309711" fill="none" stroke="none" stroke-linecap="square" stroke-miterlimit="10" xmlns:xlink="http://www.w3.org/1999/xlink" xmlns="http://www.w3.org/2000/svg"><clipPath id="p.0"><path d="m0 0l385.86353 0l0 378.78217l-385.86353 0l0 -378.78217z" clip-rule="nonzero"/></clipPath><g clip-path="url(#p.0)"><path fill="#000000" fill-opacity="0.0" d="m0 0l385.86353 0l0 378.78217l-385.86353 0z" fill-rule="evenodd"/><path fill="#000000" fill-opacity="0.0" d="m115.29631 168.95534l79.055115 -48.913383l17.858276 28.850395l-79.055115 48.91339z" fill-rule="evenodd"/><path fill="#ff0000" d="m147.40611 173.36536q-1.0629883 0.6576996 -2.1132202 0.29693604q-1.0451813 -0.38226318 -1.8511047 -1.6842651q-0.50987244 -0.8237152 -0.6407776 -1.5695496q-0.13911438 -0.75912476 0.12034607 -1.3790131q0.26452637 -0.64138794 0.9421692 -1.060669q0.29232788 -0.18086243 0.5726166 -0.26242065q0.2935791 -0.089767456 0.56689453 -0.09352112q0.2651062 -0.017028809 0.51501465 0.030456543q0.24990845 0.04748535 0.4498291 0.16265869l-1.8750305 -3.0291443l1.4881897 -0.92077637l4.6957855 7.586136l-1.0762787 0.6659241l-0.8388672 -0.9692688q0.051864624 0.26190186 0.06385803 0.5484619q0.011993408 0.28656006 -0.08039856 0.5825958q-0.100631714 0.28274536 -0.3271637 0.5699005q-0.22653198 0.2871399 -0.6118622 0.5255585zm-0.3339386 -1.2816772q0.5580597 -0.34527588 0.5986023 -0.9032135q0.032318115 -0.57121277 -0.54333496 -1.5012207q-0.35046387 -0.53648376 -0.6920929 -0.82121277q-0.34162903 -0.28471375 -0.6877136 -0.30944824q-0.3460846 -0.024734497 -0.7314148 0.21368408q-0.47834778 0.29595947 -0.5669708 0.8652649q-0.096847534 0.556015 0.44592285 1.4328766q0.5427704 0.8768616 1.0982513 1.1211395q0.5605469 0.22276306 1.0787506 -0.09786987zm4.5285187 -1.4606018l-3.2648468 -5.2744293l1.4217529 -0.8796692l3.2648468 5.2744293l-1.4217529 0.8796692zm-3.7468872 -6.0234985l-0.8305969 -1.3418579l1.4483185 -0.8961029l0.8305969 1.3418579l-1.4483185 0.8961029zm8.650024 3.136795q-0.5580597 0.34529114 -1.1781158 0.47169495q-0.6200409 0.12640381 -1.2173004 -0.03691101q-0.59724426 -0.16331482 -1.0634918 -0.7384186l1.275589 -0.78923035q0.25242615 0.2296753 0.532074 0.29551697q0.27140808 0.05255127 0.53842163 -0.02078247q0.2669983 -0.07333374 0.4663086 -0.19665527q0.43847656 -0.27130127 0.6087036 -0.5603485q0.1835022 -0.297287 0.0025787354 -0.5895691q-0.13157654 -0.21257019 -0.365036 -0.23348999q-0.22839355 -0.042419434 -0.62828064 0.1131134l-1.0534668 0.37620544q-0.794693 0.2895813 -1.4337006 0.20722961q-0.64723206 -0.09564209 -1.0502014 -0.74664307q-0.30934143 -0.47006226 -0.28715515 -0.9982605q0.013977051 -0.54148865 0.37402344 -1.0582428q0.3651123 -0.53826904 1.0959167 -0.99043274q0.9699707 -0.60014343 1.826004 -0.52345276q0.8477936 0.06341553 1.346283 0.8390503l-1.2489929 0.77279663q-0.25053406 -0.28598022 -0.6016693 -0.28919983q-0.3511505 -0.0032348633 -0.7231903 0.22695923q-0.3853302 0.23841858 -0.55555725 0.5274811q-0.15693665 0.280838 0.01576233 0.559845q0.1315918 0.21257019 0.40490723 0.20881653q0.2733307 -0.0037384033 0.76937866 -0.18205261l0.96551514 -0.34014893q0.50427246 -0.16500854 0.8984375 -0.1516571q0.39416504 0.01335144 0.68013 0.1487732q0.29103088 0.11392212 0.48399353 0.30688477q0.2062378 0.18475342 0.31314087 0.35746765q0.32894897 0.5314331 0.28018188 1.0760803q-0.056991577 0.5313568 -0.43855286 1.043045q-0.36827087 0.503479 -1.0326385 0.9145355zm5.460556 -3.4520874q-0.6909332 0.4275055 -1.1831818 0.49320984q-0.50045776 0.05241394 -0.84399414 -0.17601013q-0.33024597 -0.23664856 -0.5934143 -0.66178894l-1.7763367 -2.8697052l-0.863678 0.53437805l-0.641449 -1.0362854l0.90353394 -0.5590515l-0.6148071 -1.8244781l1.0629883 -0.6576843l0.9868469 1.594284l1.1825714 -0.73168945l0.64146423 1.0362854l-1.1825714 0.73168945l1.7485046 2.7950592q0.12335205 0.19927979 0.22077942 0.2676239q0.11071777 0.06010437 0.24168396 0.034194946q0.12275696 -0.03919983 0.28219604 -0.1378479l0.71751404 -0.4439392l0.56744385 0.9167023q-0.08161926 0.1056366 -0.2828369 0.2852478q-0.18792725 0.17140198 -0.57325745 0.4098053zm3.5636292 -2.1313934q-0.5049286 0.3123932 -1.0319672 0.3812561q-0.52197266 0.047348022 -0.9831848 -0.16337585q-0.447937 -0.21896362 -0.7686615 -0.7371063q-0.5345459 -0.86357117 -0.17636108 -1.7098999q0.37147522 -0.8545532 1.771698 -1.7392883l0.6561432 -0.42433167l-0.19737244 -0.31886292q-0.2220459 -0.35871887 -0.54977417 -0.4131775q-0.33595276 -0.06774902 -0.7877197 0.21177673q-0.31889343 0.1973114 -0.51252747 0.53759766q-0.20185852 0.3270111 -0.09941101 0.75971985l-1.2357178 0.76457214q-0.32704163 -0.5877228 -0.2434845 -1.1355286q0.0753479 -0.5610962 0.46513367 -1.059494q0.40307617 -0.5066223 1.0674438 -0.9176941q0.81051636 -0.5014801 1.4337311 -0.5930939q0.61499023 -0.104904175 1.0578461 0.13555908q0.4561615 0.23223877 0.776886 0.75038147l2.2944336 3.7067108l-1.2490082 0.77279663l-0.6788025 -0.82943726q0.087875366 0.7357025 -0.18421936 1.2164154q-0.26704407 0.45921326 -0.82510376 0.8045044zm-0.103652954 -1.2955475q0.1993103 -0.12332153 0.34422302 -0.30485535q0.14996338 -0.20301819 0.22210693 -0.4130249q0.07720947 -0.2315216 0.058242798 -0.4402771q-0.0056762695 -0.21696472 -0.09106445 -0.3846283l-0.48521423 -0.783844l-0.5365448 0.35035706q-0.37205505 0.23017883 -0.6333771 0.52049255q-0.2695465 0.27702332 -0.35372925 0.5863495q-0.08418274 0.3093109 0.1131897 0.6281738q0.23027039 0.37199402 0.6143036 0.42836q0.37582397 0.04309082 0.74786377 -0.18710327zm4.250931 -1.4174805l-3.2648468 -5.2744293l1.4616089 -0.9043274l0.4605255 0.7440033q-0.003768921 -0.2732849 0.088638306 -0.5693054q0.08416748 -0.30932617 0.30247498 -0.60975647q0.2315979 -0.3086548 0.6435089 -0.56352234q0.49162292 -0.30418396 1.026886 -0.35975647q0.540329 -0.07707214 1.0477295 0.17857361q0.5124512 0.23414612 0.91542053 0.8851471l2.1546326 3.4808655l-1.4881744 0.9207611l-2.039505 -3.2948456q-0.26315308 -0.42514038 -0.64720154 -0.48150635q-0.3922577 -0.06965637 -0.7642975 0.16053772q-0.23918152 0.14797974 -0.40750122 0.3807373q-0.17652893 0.21946716 -0.20756531 0.49591064q-0.039245605 0.26313782 0.117004395 0.5155792l2.0888367 3.3745575l-1.4881744 0.92077637zm8.415894 -5.060135q-0.73080444 0.4521637 -1.5128174 0.4950409q-0.776947 0.021377563 -1.4874268 -0.38424683q-0.71047974 -0.40560913 -1.2368011 -1.2558899q-0.50164795 -0.8104248 -0.5692749 -1.6321716q-0.067611694 -0.82173157 0.289917 -1.5206757q0.34931946 -0.71221924 1.1199799 -1.1890411q0.6643677 -0.41107178 1.3153992 -0.4280243q0.64282227 -0.030258179 1.2096863 0.26210022q0.5586548 0.279068 0.9521332 0.8256836l-1.2357178 0.76457214q-0.17144775 -0.18789673 -0.41438293 -0.3132019q-0.23788452 -0.14678955 -0.51942444 -0.15634155q-0.28155518 -0.009536743 -0.5871582 0.17955017q-0.53149414 0.32885742 -0.6036835 0.9247284q-0.07217407 0.59588623 0.42947388 1.406311q0.4769745 0.77056885 1.0621948 1.0332031q0.59851074 0.25439453 1.1698608 -0.099105835q0.30560303 -0.18908691 0.41445923 -0.45855713q0.10884094 -0.26945496 0.091781616 -0.5345154q-0.011993408 -0.28656006 -0.10055542 -0.4889984l1.2091522 -0.7481384q0.2973175 0.5693817 0.29788208 1.1937408q-0.0076446533 0.6110687 -0.3215027 1.1727448q-0.32209778 0.5484009 -0.97317505 0.9512329zm5.686249 -3.518219q-0.7839508 0.4850464 -1.5874786 0.52285767q-0.7902374 0.029586792 -1.4924774 -0.36273193q-0.70225525 -0.39233398 -1.2121277 -1.2160492q-0.48521423 -0.78385925 -0.5743408 -1.6106567q-0.089141846 -0.8267975 0.25195312 -1.5523071q0.3410797 -0.72550964 1.1516113 -1.227005q0.7972412 -0.49327087 1.5558319 -0.48490906q0.75038147 -0.004928589 1.4077148 0.43356323q0.66238403 0.4169922 1.1558075 1.2141418l0.24671936 0.39855957l-3.5477142 2.1950684q0.25494385 0.41184998 0.56874084 0.621933q0.313797 0.21006775 0.67315674 0.22657776q0.3511505 0.0032196045 0.7098999 -0.21875q0.3853302 -0.23840332 0.5656891 -0.57048035q0.18540955 -0.35357666 0.061431885 -0.7913513l1.3420258 -0.8303375q0.25238037 0.61553955 0.14035034 1.236084q-0.09877014 0.61231995 -0.48538208 1.1455231q-0.3733368 0.52497864 -0.93141174 0.8702698zm-3.1954956 -2.5796204l2.152542 -1.3318329q-0.18914795 -0.3055725 -0.47320557 -0.49728394q-0.28405762 -0.19172668 -0.61369324 -0.18989563q-0.3378601 -0.011444092 -0.6966095 0.21052551q-0.33218384 0.20553589 -0.47773743 0.53445435q-0.14048767 0.30740356 -0.10888672 0.6553345q0.023376465 0.3346405 0.21759033 0.6186981z" fill-rule="nonzero"/><path fill="#000000" fill-opacity="0.0" d="m119.118904 1.1806823l0.8195877 226.37872" fill-rule="evenodd"/><path stroke="#000000" stroke-width="3.0" stroke-linejoin="round" stroke-linecap="butt" d="m119.184074 19.180565l0.7544098 208.37885" fill-rule="evenodd"/><path fill="#000000" stroke="#000000" stroke-width="3.0" stroke-linecap="butt" d="m124.139244 19.162624l-5.0044556 -13.596264l-4.905876 13.632143z" fill-rule="evenodd"/><path fill="#000000" fill-opacity="0.0" d="m119.98522 227.20717l259.0724 -1.4986725" fill-rule="evenodd"/><path stroke="#000000" stroke-width="3.0" stroke-linejoin="round" stroke-linecap="butt" d="m119.985214 227.20717l241.07268 -1.3945465" fill-rule="evenodd"/><path fill="#000000" stroke="#000000" stroke-width="3.0" stroke-linecap="butt" d="m361.08658 230.76773l13.585419 -5.0338593l-13.642731 -4.876358z" fill-rule="evenodd"/><path fill="#000000" fill-opacity="0.0" d="m119.98522 227.24774l-100.83674 133.43451" fill-rule="evenodd"/><path stroke="#000000" stroke-width="3.0" stroke-linejoin="round" stroke-linecap="butt" d="m119.985214 227.24774l-89.9844 119.07391" fill-rule="evenodd"/><path fill="#000000" stroke="#000000" stroke-width="3.0" stroke-linecap="butt" d="m26.047506 343.33414l-4.2548485 13.849152l12.16147 -7.874115z" fill-rule="evenodd"/><path fill="#000000" d="m222.83136 60.290245l0 0c0 -5.522846 4.4771576 -10.0 10.0 -10.0l0 0c2.652176 0 5.195709 1.0535698 7.0710754 2.9289322c1.8753662 1.8753662 2.9289246 4.4189034 2.9289246 7.071068l0 0c0 5.52285 -4.4771423 10.0 -10.0 10.0l0 0c-5.5228424 0 -10.0 -4.47715 -10.0 -10.0z" fill-rule="evenodd"/><path stroke="#000000" stroke-width="1.0" stroke-linejoin="round" stroke-linecap="butt" d="m222.83136 60.290245l0 0c0 -5.522846 4.4771576 -10.0 10.0 -10.0l0 0c2.652176 0 5.195709 1.0535698 7.0710754 2.9289322c1.8753662 1.8753662 2.9289246 4.4189034 2.9289246 7.071068l0 0c0 5.52285 -4.4771423 10.0 -10.0 10.0l0 0c-5.5228424 0 -10.0 -4.47715 -10.0 -10.0z" fill-rule="evenodd"/><path fill="#000000" d="m176.93898 118.384735l0 0c0 -3.3658905 2.8343506 -6.09449 6.3307037 -6.09449l0 0c1.6790161 0 3.2892456 0.6420975 4.476486 1.7850342c1.1872406 1.1429367 1.8542328 2.6930923 1.8542328 4.309456l0 0c0 3.3658905 -2.8343658 6.09449 -6.330719 6.09449l0 0c-3.4963531 0 -6.3307037 -2.7285995 -6.3307037 -6.09449z" fill-rule="evenodd"/><path stroke="#000000" stroke-width="1.0" stroke-linejoin="round" stroke-linecap="butt" d="m176.93898 118.384735l0 0c0 -3.3658905 2.8343506 -6.09449 6.3307037 -6.09449l0 0c1.6790161 0 3.2892456 0.6420975 4.476486 1.7850342c1.1872406 1.1429367 1.8542328 2.6930923 1.8542328 4.309456l0 0c0 3.3658905 -2.8343658 6.09449 -6.330719 6.09449l0 0c-3.4963531 0 -6.3307037 -2.7285995 -6.3307037 -6.09449z" fill-rule="evenodd"/><path fill="#000000" d="m156.28806 28.471348l0 0c0 -2.2091389 1.8966217 -4.0 4.2362213 -4.0l0 0c1.1235199 0 2.2010193 0.42142677 2.9954681 1.1715736c0.7944336 0.75014496 1.2407532 1.767561 1.2407532 2.8284264l0 0c0 2.2091389 -1.8966217 4.0 -4.2362213 4.0l0 0c-2.3395996 0 -4.2362213 -1.7908611 -4.2362213 -4.0z" fill-rule="evenodd"/><path stroke="#000000" stroke-width="1.0" stroke-linejoin="round" stroke-linecap="butt" d="m156.28806 28.471348l0 0c0 -2.2091389 1.8966217 -4.0 4.2362213 -4.0l0 0c1.1235199 0 2.2010193 0.42142677 2.9954681 1.1715736c0.7944336 0.75014496 1.2407532 1.767561 1.2407532 2.8284264l0 0c0 2.2091389 -1.8966217 4.0 -4.2362213 4.0l0 0c-2.3395996 0 -4.2362213 -1.7908611 -4.2362213 -4.0z" fill-rule="evenodd"/><path fill="#000000" d="m237.59909 329.5632l0 0c0 -5.522827 4.4771423 -10.0 10.0 -10.0l0 0c2.6521606 0 5.195694 1.0535889 7.07106 2.928955c1.875351 1.8753357 2.9289398 4.4188843 2.9289398 7.071045l0 0c0 5.5228577 -4.4771576 10.0 -10.0 10.0l0 0c-5.5228577 0 -10.0 -4.4771423 -10.0 -10.0z" fill-rule="evenodd"/><path stroke="#000000" stroke-width="1.0" stroke-linejoin="round" stroke-linecap="butt" d="m237.59909 329.5632l0 0c0 -5.522827 4.4771423 -10.0 10.0 -10.0l0 0c2.6521606 0 5.195694 1.0535889 7.07106 2.928955c1.875351 1.8753357 2.9289398 4.4188843 2.9289398 7.071045l0 0c0 5.5228577 -4.4771576 10.0 -10.0 10.0l0 0c-5.5228577 0 -10.0 -4.4771423 -10.0 -10.0z" fill-rule="evenodd"/><path fill="#000000" d="m204.08595 297.98053l0 0c0 -3.3658752 2.8343658 -6.0944824 6.330719 -6.0944824l0 0c1.6790009 0 3.2892456 0.64208984 4.476486 1.7850342c1.1872406 1.1429443 1.8542175 2.6930847 1.8542175 4.3094482l0 0c0 3.3659058 -2.8343506 6.0944824 -6.3307037 6.0944824l0 0c-3.4963531 0 -6.330719 -2.7285767 -6.330719 -6.0944824z" fill-rule="evenodd"/><path stroke="#000000" stroke-width="1.0" stroke-linejoin="round" stroke-linecap="butt" d="m204.08595 297.98053l0 0c0 -3.3658752 2.8343658 -6.0944824 6.330719 -6.0944824l0 0c1.6790009 0 3.2892456 0.64208984 4.476486 1.7850342c1.1872406 1.1429443 1.8542175 2.6930847 1.8542175 4.3094482l0 0c0 3.3659058 -2.8343506 6.0944824 -6.3307037 6.0944824l0 0c-3.4963531 0 -6.330719 -2.7285767 -6.330719 -6.0944824z" fill-rule="evenodd"/><path fill="#000000" d="m345.8051 297.98053l0 0c0 -3.3658752 2.8343506 -6.0944824 6.330719 -6.0944824l0 0c1.6790161 0 3.2892456 0.64208984 4.476471 1.7850342c1.1872559 1.1429443 1.854248 2.6930847 1.854248 4.3094482l0 0c0 3.3659058 -2.834381 6.0944824 -6.330719 6.0944824l0 0c-3.4963684 0 -6.330719 -2.7285767 -6.330719 -6.0944824z" fill-rule="evenodd"/><path stroke="#000000" stroke-width="1.0" stroke-linejoin="round" stroke-linecap="butt" d="m345.8051 297.98053l0 0c0 -3.3658752 2.8343506 -6.0944824 6.330719 -6.0944824l0 0c1.6790161 0 3.2892456 0.64208984 4.476471 1.7850342c1.1872559 1.1429443 1.854248 2.6930847 1.854248 4.3094482l0 0c0 3.3659058 -2.834381 6.0944824 -6.330719 6.0944824l0 0c-3.4963684 0 -6.330719 -2.7285767 -6.330719 -6.0944824z" fill-rule="evenodd"/><path fill="#000000" d="m143.62665 270.19577l0 0c0 -3.3659058 2.8343506 -6.094513 6.3307037 -6.094513l0 0c1.6790009 0 3.2892456 0.64212036 4.476486 1.7850342c1.1872406 1.1429443 1.8542175 2.6931152 1.8542175 4.3094788l0 0c0 3.3658752 -2.8343506 6.0944824 -6.3307037 6.0944824l0 0c-3.4963531 0 -6.3307037 -2.7286072 -6.3307037 -6.0944824z" fill-rule="evenodd"/><path stroke="#000000" stroke-width="1.0" stroke-linejoin="round" stroke-linecap="butt" d="m143.62665 270.19577l0 0c0 -3.3659058 2.8343506 -6.094513 6.3307037 -6.094513l0 0c1.6790009 0 3.2892456 0.64212036 4.476486 1.7850342c1.1872406 1.1429443 1.8542175 2.6931152 1.8542175 4.3094788l0 0c0 3.3658752 -2.8343506 6.0944824 -6.3307037 6.0944824l0 0c-3.4963531 0 -6.3307037 -2.7286072 -6.3307037 -6.0944824z" fill-rule="evenodd"/><path fill="#000000" d="m241.26968 270.19577l0 0c0 -3.3659058 2.8343506 -6.094513 6.330719 -6.094513l0 0c1.6790009 0 3.2892456 0.64212036 4.476486 1.7850342c1.1872253 1.1429443 1.8542175 2.6931152 1.8542175 4.3094788l0 0c0 3.3658752 -2.8343506 6.0944824 -6.3307037 6.0944824l0 0c-3.4963684 0 -6.330719 -2.7286072 -6.330719 -6.0944824z" fill-rule="evenodd"/><path stroke="#000000" stroke-width="1.0" stroke-linejoin="round" stroke-linecap="butt" d="m241.26968 270.19577l0 0c0 -3.3659058 2.8343506 -6.094513 6.330719 -6.094513l0 0c1.6790009 0 3.2892456 0.64212036 4.476486 1.7850342c1.1872253 1.1429443 1.8542175 2.6931152 1.8542175 4.3094788l0 0c0 3.3658752 -2.8343506 6.0944824 -6.3307037 6.0944824l0 0c-3.4963684 0 -6.330719 -2.7286072 -6.330719 -6.0944824z" fill-rule="evenodd"/><path fill="#000000" d="m267.50592 60.290245l0 0c0 -2.209137 1.8966064 -4.0 4.236206 -4.0l0 0c1.1235046 0 2.2010193 0.42142868 2.995453 1.1715736c0.7944641 0.75014496 1.2407837 1.7675629 1.2407837 2.8284264l0 0c0 2.2091408 -1.896637 4.0 -4.2362366 4.0l0 0c-2.3395996 0 -4.236206 -1.7908592 -4.236206 -4.0z" fill-rule="evenodd"/><path stroke="#000000" stroke-width="1.0" stroke-linejoin="round" stroke-linecap="butt" d="m267.50592 60.290245l0 0c0 -2.209137 1.8966064 -4.0 4.236206 -4.0l0 0c1.1235046 0 2.2010193 0.42142868 2.995453 1.1715736c0.7944641 0.75014496 1.2407837 1.7675629 1.2407837 2.8284264l0 0c0 2.2091408 -1.896637 4.0 -4.2362366 4.0l0 0c-2.3395996 0 -4.236206 -1.7908592 -4.236206 -4.0z" fill-rule="evenodd"/><path fill="#000000" d="m179.03346 253.56322l0 0c0 -2.2091522 1.8966217 -4.0 4.2362213 -4.0l0 0c1.1235199 0 2.2010193 0.42141724 2.9954681 1.1715698c0.7944336 0.7501373 1.2407532 1.7675629 1.2407532 2.8284302l0 0c0 2.209137 -1.8966217 3.9999847 -4.2362213 3.9999847l0 0c-2.3395996 0 -4.2362213 -1.7908478 -4.2362213 -3.9999847z" fill-rule="evenodd"/><path stroke="#000000" stroke-width="1.0" stroke-linejoin="round" stroke-linecap="butt" d="m179.03346 253.56322l0 0c0 -2.2091522 1.8966217 -4.0 4.2362213 -4.0l0 0c1.1235199 0 2.2010193 0.42141724 2.9954681 1.1715698c0.7944336 0.7501373 1.2407532 1.7675629 1.2407532 2.8284302l0 0c0 2.209137 -1.8966217 3.9999847 -4.2362213 3.9999847l0 0c-2.3395996 0 -4.2362213 -1.7908478 -4.2362213 -3.9999847z" fill-rule="evenodd"/><path fill="#000000" d="m328.86023 192.28632l0 0c0 -2.2091522 1.896637 -4.0 4.2362366 -4.0l0 0c1.1235046 0 2.2010193 0.42141724 2.995453 1.1715698c0.7944336 0.7501373 1.2407532 1.7675629 1.2407532 2.8284302l0 0c0 2.209137 -1.8966064 4.0 -4.236206 4.0l0 0c-2.3395996 0 -4.2362366 -1.790863 -4.2362366 -4.0z" fill-rule="evenodd"/><path stroke="#000000" stroke-width="1.0" stroke-linejoin="round" stroke-linecap="butt" d="m328.86023 192.28632l0 0c0 -2.2091522 1.896637 -4.0 4.2362366 -4.0l0 0c1.1235046 0 2.2010193 0.42141724 2.995453 1.1715698c0.7944336 0.7501373 1.2407532 1.7675629 1.2407532 2.8284302l0 0c0 2.209137 -1.8966064 4.0 -4.236206 4.0l0 0c-2.3395996 0 -4.2362366 -1.790863 -4.2362366 -4.0z" fill-rule="evenodd"/><path fill="#000000" d="m286.62927 287.88605l0 0c0 -2.209137 1.8966064 -4.0 4.236206 -4.0l0 0c1.1235352 0 2.2010193 0.42141724 2.9954834 1.1715698c0.7944336 0.7501526 1.2407532 1.7675781 1.2407532 2.8284302l0 0c0 2.209137 -1.896637 4.0 -4.2362366 4.0l0 0c-2.3395996 0 -4.236206 -1.790863 -4.236206 -4.0z" fill-rule="evenodd"/><path stroke="#000000" stroke-width="1.0" stroke-linejoin="round" stroke-linecap="butt" d="m286.62927 287.88605l0 0c0 -2.209137 1.8966064 -4.0 4.236206 -4.0l0 0c1.1235352 0 2.2010193 0.42141724 2.9954834 1.1715698c0.7944336 0.7501526 1.2407532 1.7675781 1.2407532 2.8284302l0 0c0 2.209137 -1.896637 4.0 -4.2362366 4.0l0 0c-2.3395996 0 -4.236206 -1.790863 -4.236206 -4.0z" fill-rule="evenodd"/><path fill="#000000" d="m289.5991 86.290245l0 0c0 -5.52285 4.4771423 -10.0 10.0 -10.0l0 0c2.6521606 0 5.195709 1.053566 7.0710754 2.9289322c1.8753357 1.8753662 2.9289246 4.418907 2.9289246 7.071068l0 0c0 5.52285 -4.477173 10.0 -10.0 10.0l0 0c-5.5228577 0 -10.0 -4.47715 -10.0 -10.0z" fill-rule="evenodd"/><path stroke="#000000" stroke-width="1.0" stroke-linejoin="round" stroke-linecap="butt" d="m289.5991 86.290245l0 0c0 -5.52285 4.4771423 -10.0 10.0 -10.0l0 0c2.6521606 0 5.195709 1.053566 7.0710754 2.9289322c1.8753357 1.8753662 2.9289246 4.418907 2.9289246 7.071068l0 0c0 5.52285 -4.477173 10.0 -10.0 10.0l0 0c-5.5228577 0 -10.0 -4.47715 -10.0 -10.0z" fill-rule="evenodd"/><path fill="#000000" d="m200.41667 189.77974l0 0c0 -5.5228424 4.4771423 -10.0 10.0 -10.0l0 0c2.6521606 0 5.195694 1.0535736 7.07106 2.9289398c1.8753662 1.8753662 2.9289398 4.4188995 2.9289398 7.07106l0 0c0 5.5228577 -4.4771576 10.0 -10.0 10.0l0 0c-5.5228577 0 -10.0 -4.4771423 -10.0 -10.0z" fill-rule="evenodd"/><path stroke="#000000" stroke-width="1.0" stroke-linejoin="round" stroke-linecap="butt" d="m200.41667 189.77974l0 0c0 -5.5228424 4.4771423 -10.0 10.0 -10.0l0 0c2.6521606 0 5.195694 1.0535736 7.07106 2.9289398c1.8753662 1.8753662 2.9289398 4.4188995 2.9289398 7.07106l0 0c0 5.5228577 -4.4771576 10.0 -10.0 10.0l0 0c-5.5228577 0 -10.0 -4.4771423 -10.0 -10.0z" fill-rule="evenodd"/><path fill="#000000" d="m38.50722 178.29025l0 0c0 -5.5228577 4.47715 -10.0 10.0 -10.0l0 0c2.6521645 0 5.1957016 1.0535583 7.071068 2.9289246c1.8753624 1.8753662 2.9289322 4.4188995 2.9289322 7.0710754l0 0c0 5.5228424 -4.477154 10.0 -10.0 10.0l0 0c-5.52285 0 -10.0 -4.4771576 -10.0 -10.0z" fill-rule="evenodd"/><path stroke="#000000" stroke-width="1.0" stroke-linejoin="round" stroke-linecap="butt" d="m38.50722 178.29025l0 0c0 -5.5228577 4.47715 -10.0 10.0 -10.0l0 0c2.6521645 0 5.1957016 1.0535583 7.071068 2.9289246c1.8753624 1.8753662 2.9289322 4.4188995 2.9289322 7.0710754l0 0c0 5.5228424 -4.477154 10.0 -10.0 10.0l0 0c-5.52285 0 -10.0 -4.4771576 -10.0 -10.0z" fill-rule="evenodd"/><path fill="#000000" d="m69.053154 243.52646l0 0c0 -5.5228424 4.47715 -10.0 10.0 -10.0l0 0c2.6521606 0 5.1957016 1.0535736 7.071068 2.9289398c1.8753586 1.8753662 2.9289322 4.4188995 2.9289322 7.07106l0 0c0 5.5228577 -4.4771576 10.0 -10.0 10.0l0 0c-5.52285 0 -10.0 -4.4771423 -10.0 -10.0z" fill-rule="evenodd"/><path stroke="#000000" stroke-width="1.0" stroke-linejoin="round" stroke-linecap="butt" d="m69.053154 243.52646l0 0c0 -5.5228424 4.47715 -10.0 10.0 -10.0l0 0c2.6521606 0 5.1957016 1.0535736 7.071068 2.9289398c1.8753586 1.8753662 2.9289322 4.4188995 2.9289322 7.07106l0 0c0 5.5228577 -4.4771576 10.0 -10.0 10.0l0 0c-5.52285 0 -10.0 -4.4771423 -10.0 -10.0z" fill-rule="evenodd"/><path fill="#000000" d="m233.9298 209.31912l0 0c0 -5.5228577 4.4771576 -10.0 10.0 -10.0l0 0c2.6521606 0 5.195709 1.0535583 7.07106 2.9289246c1.8753662 1.8753662 2.9289398 4.4188995 2.9289398 7.0710754l0 0c0 5.5228424 -4.4771576 10.0 -10.0 10.0l0 0c-5.5228424 0 -10.0 -4.4771576 -10.0 -10.0z" fill-rule="evenodd"/><path stroke="#000000" stroke-width="1.0" stroke-linejoin="round" stroke-linecap="butt" d="m233.9298 209.31912l0 0c0 -5.5228577 4.4771576 -10.0 10.0 -10.0l0 0c2.6521606 0 5.195709 1.0535583 7.07106 2.9289246c1.8753662 1.8753662 2.9289398 4.4188995 2.9289398 7.0710754l0 0c0 5.5228424 -4.4771576 10.0 -10.0 10.0l0 0c-5.5228424 0 -10.0 -4.4771576 -10.0 -10.0z" fill-rule="evenodd"/><path fill="#000000" d="m69.053154 74.290245l0 0c0 -5.52285 4.47715 -10.0 10.0 -10.0l0 0c2.6521606 0 5.1957016 1.053566 7.071068 2.9289322c1.8753586 1.8753662 2.9289322 4.418907 2.9289322 7.071068l0 0c0 5.52285 -4.4771576 10.0 -10.0 10.0l0 0c-5.52285 0 -10.0 -4.47715 -10.0 -10.0z" fill-rule="evenodd"/><path stroke="#000000" stroke-width="1.0" stroke-linejoin="round" stroke-linecap="butt" d="m69.053154 74.290245l0 0c0 -5.52285 4.47715 -10.0 10.0 -10.0l0 0c2.6521606 0 5.1957016 1.053566 7.071068 2.9289322c1.8753586 1.8753662 2.9289322 4.418907 2.9289322 7.071068l0 0c0 5.52285 -4.4771576 10.0 -10.0 10.0l0 0c-5.52285 0 -10.0 -4.47715 -10.0 -10.0z" fill-rule="evenodd"/><path fill="#000000" d="m301.5991 250.29025l0 0c0 -5.5228577 4.4771423 -10.0 10.0 -10.0l0 0c2.6521606 0 5.195709 1.0535583 7.0710754 2.9289246c1.8753357 1.8753662 2.9289246 4.4188995 2.9289246 7.0710754l0 0c0 5.5228424 -4.477173 10.0 -10.0 10.0l0 0c-5.5228577 0 -10.0 -4.4771576 -10.0 -10.0z" fill-rule="evenodd"/><path stroke="#000000" stroke-width="1.0" stroke-linejoin="round" stroke-linecap="butt" d="m301.5991 250.29025l0 0c0 -5.5228577 4.4771423 -10.0 10.0 -10.0l0 0c2.6521606 0 5.195709 1.0535583 7.0710754 2.9289246c1.8753357 1.8753662 2.9289246 4.4188995 2.9289246 7.0710754l0 0c0 5.5228424 -4.477173 10.0 -10.0 10.0l0 0c-5.5228577 0 -10.0 -4.4771576 -10.0 -10.0z" fill-rule="evenodd"/><path fill="#000000" d="m163.05315 342.65506l0 0c0 -5.522827 4.4771576 -10.0 10.0 -10.0l0 0c2.652176 0 5.195709 1.0535889 7.0710754 2.928955c1.8753662 1.8753662 2.9289246 4.4188843 2.9289246 7.071045l0 0c0 5.5228577 -4.4771423 10.0 -10.0 10.0l0 0c-5.5228424 0 -10.0 -4.4771423 -10.0 -10.0z" fill-rule="evenodd"/><path stroke="#000000" stroke-width="1.0" stroke-linejoin="round" stroke-linecap="butt" d="m163.05315 342.65506l0 0c0 -5.522827 4.4771576 -10.0 10.0 -10.0l0 0c2.652176 0 5.195709 1.0535889 7.0710754 2.928955c1.8753662 1.8753662 2.9289246 4.4188843 2.9289246 7.071045l0 0c0 5.5228577 -4.4771423 10.0 -10.0 10.0l0 0c-5.5228424 0 -10.0 -4.4771423 -10.0 -10.0z" fill-rule="evenodd"/><path fill="#000000" d="m101.81562 302.19577l0 0c0 -3.3659058 2.8343506 -6.094513 6.3307037 -6.094513l0 0c1.6790085 0 3.2892532 0.64212036 4.476494 1.7850342c1.187233 1.1429443 1.8542175 2.6931152 1.8542175 4.3094788l0 0c0 3.3658752 -2.8343506 6.0944824 -6.3307114 6.0944824l0 0c-3.4963531 0 -6.3307037 -2.7286072 -6.3307037 -6.0944824z" fill-rule="evenodd"/><path stroke="#000000" stroke-width="1.0" stroke-linejoin="round" stroke-linecap="butt" d="m101.81562 302.19577l0 0c0 -3.3659058 2.8343506 -6.094513 6.3307037 -6.094513l0 0c1.6790085 0 3.2892532 0.64212036 4.476494 1.7850342c1.187233 1.1429443 1.8542175 2.6931152 1.8542175 4.3094788l0 0c0 3.3658752 -2.8343506 6.0944824 -6.3307114 6.0944824l0 0c-3.4963531 0 -6.3307037 -2.7286072 -6.3307037 -6.0944824z" fill-rule="evenodd"/><path fill="#000000" d="m273.26968 302.19577l0 0c0 -3.3659058 2.8343506 -6.094513 6.330719 -6.094513l0 0c1.6790161 0 3.2892456 0.64212036 4.476471 1.7850342c1.1872559 1.1429443 1.8542175 2.6931152 1.8542175 4.3094788l0 0c0 3.3658752 -2.8343506 6.0944824 -6.3306885 6.0944824l0 0c-3.4963684 0 -6.330719 -2.7286072 -6.330719 -6.0944824z" fill-rule="evenodd"/><path stroke="#000000" stroke-width="1.0" stroke-linejoin="round" stroke-linecap="butt" d="m273.26968 302.19577l0 0c0 -3.3659058 2.8343506 -6.094513 6.330719 -6.094513l0 0c1.6790161 0 3.2892456 0.64212036 4.476471 1.7850342c1.1872559 1.1429443 1.8542175 2.6931152 1.8542175 4.3094788l0 0c0 3.3658752 -2.8343506 6.0944824 -6.3306885 6.0944824l0 0c-3.4963684 0 -6.330719 -2.7286072 -6.330719 -6.0944824z" fill-rule="evenodd"/><path fill="#000000" d="m93.81562 172.29025l0 0c0 -3.3659058 2.8343506 -6.0944977 6.3307037 -6.0944977l0 0c1.6790085 0 3.2892532 0.6421051 4.476494 1.7850342c1.187233 1.1429443 1.8542175 2.6931 1.8542175 4.3094635l0 0c0 3.3658905 -2.8343506 6.0944824 -6.3307114 6.0944824l0 0c-3.4963531 0 -6.3307037 -2.728592 -6.3307037 -6.0944824z" fill-rule="evenodd"/><path stroke="#000000" stroke-width="1.0" stroke-linejoin="round" stroke-linecap="butt" d="m93.81562 172.29025l0 0c0 -3.3659058 2.8343506 -6.0944977 6.3307037 -6.0944977l0 0c1.6790085 0 3.2892532 0.6421051 4.476494 1.7850342c1.187233 1.1429443 1.8542175 2.6931 1.8542175 4.3094635l0 0c0 3.3658905 -2.8343506 6.0944824 -6.3307114 6.0944824l0 0c-3.4963531 0 -6.3307037 -2.728592 -6.3307037 -6.0944824z" fill-rule="evenodd"/><path fill="#000000" d="m89.05447 350.19577l0 0c0 -3.3659058 2.8343506 -6.094513 6.3307037 -6.094513l0 0c1.6790085 0 3.2892532 0.64212036 4.476486 1.7850342c1.1872406 1.1429443 1.8542252 2.6931152 1.8542252 4.3094788l0 0c0 3.3658752 -2.8343582 6.0944824 -6.3307114 6.0944824l0 0c-3.4963531 0 -6.3307037 -2.7286072 -6.3307037 -6.0944824z" fill-rule="evenodd"/><path stroke="#000000" stroke-width="1.0" stroke-linejoin="round" stroke-linecap="butt" d="m89.05447 350.19577l0 0c0 -3.3659058 2.8343506 -6.094513 6.3307037 -6.094513l0 0c1.6790085 0 3.2892532 0.64212036 4.476486 1.7850342c1.1872406 1.1429443 1.8542252 2.6931152 1.8542252 4.3094788l0 0c0 3.3658752 -2.8343582 6.0944824 -6.3307114 6.0944824l0 0c-3.4963531 0 -6.3307037 -2.7286072 -6.3307037 -6.0944824z" fill-rule="evenodd"/><path fill="#000000" d="m321.26968 350.19577l0 0c0 -3.3659058 2.8343506 -6.094513 6.330719 -6.094513l0 0c1.6790161 0 3.2892456 0.64212036 4.476471 1.7850342c1.1872559 1.1429443 1.8542175 2.6931152 1.8542175 4.3094788l0 0c0 3.3658752 -2.8343506 6.0944824 -6.3306885 6.0944824l0 0c-3.4963684 0 -6.330719 -2.7286072 -6.330719 -6.0944824z" fill-rule="evenodd"/><path stroke="#000000" stroke-width="1.0" stroke-linejoin="round" stroke-linecap="butt" d="m321.26968 350.19577l0 0c0 -3.3659058 2.8343506 -6.094513 6.330719 -6.094513l0 0c1.6790161 0 3.2892456 0.64212036 4.476471 1.7850342c1.1872559 1.1429443 1.8542175 2.6931152 1.8542175 4.3094788l0 0c0 3.3658752 -2.8343506 6.0944824 -6.3306885 6.0944824l0 0c-3.4963684 0 -6.330719 -2.7286072 -6.330719 -6.0944824z" fill-rule="evenodd"/><path fill="#000000" d="m150.63452 80.290245l0 0c0 -2.209137 1.8966217 -4.0 4.2362213 -4.0l0 0c1.1235046 0 2.201004 0.42142487 2.995453 1.1715698c0.79444885 0.7501526 1.2407684 1.7675629 1.2407684 2.8284302l0 0c0 2.209137 -1.8966217 4.0 -4.2362213 4.0l0 0c-2.3395996 0 -4.2362213 -1.790863 -4.2362213 -4.0z" fill-rule="evenodd"/><path stroke="#000000" stroke-width="1.0" stroke-linejoin="round" stroke-linecap="butt" d="m150.63452 80.290245l0 0c0 -2.209137 1.8966217 -4.0 4.2362213 -4.0l0 0c1.1235046 0 2.201004 0.42142487 2.995453 1.1715698c0.79444885 0.7501526 1.2407684 1.7675629 1.2407684 2.8284302l0 0c0 2.209137 -1.8966217 4.0 -4.2362213 4.0l0 0c-2.3395996 0 -4.2362213 -1.790863 -4.2362213 -4.0z" fill-rule="evenodd"/><path fill="#000000" d="m134.63452 142.19576l0 0c0 -2.209137 1.8966217 -4.0 4.2362213 -4.0l0 0c1.1235046 0 2.201004 0.4214325 2.995453 1.1715698c0.79444885 0.7501526 1.2407684 1.7675629 1.2407684 2.8284302l0 0c0 2.209137 -1.8966217 4.0 -4.2362213 4.0l0 0c-2.3395996 0 -4.2362213 -1.790863 -4.2362213 -4.0z" fill-rule="evenodd"/><path stroke="#000000" stroke-width="1.0" stroke-linejoin="round" stroke-linecap="butt" d="m134.63452 142.19576l0 0c0 -2.209137 1.8966217 -4.0 4.2362213 -4.0l0 0c1.1235046 0 2.201004 0.4214325 2.995453 1.1715698c0.79444885 0.7501526 1.2407684 1.7675629 1.2407684 2.8284302l0 0c0 2.209137 -1.8966217 4.0 -4.2362213 4.0l0 0c-2.3395996 0 -4.2362213 -1.790863 -4.2362213 -4.0z" fill-rule="evenodd"/><path fill="#000000" d="m33.763126 302.19577l0 0c0 -2.209137 1.8966179 -4.0 4.2362213 -4.0l0 0c1.1235123 0 2.2010117 0.42141724 2.9954567 1.1715698c0.79444885 0.7501221 1.2407608 1.7675476 1.2407608 2.8284302l0 0c0 2.209137 -1.8966179 4.0 -4.2362175 4.0l0 0c-2.3396034 0 -4.2362213 -1.790863 -4.2362213 -4.0z" fill-rule="evenodd"/><path stroke="#000000" stroke-width="1.0" stroke-linejoin="round" stroke-linecap="butt" d="m33.763126 302.19577l0 0c0 -2.209137 1.8966179 -4.0 4.2362213 -4.0l0 0c1.1235123 0 2.2010117 0.42141724 2.9954567 1.1715698c0.79444885 0.7501221 1.2407608 1.7675476 1.2407608 2.8284302l0 0c0 2.209137 -1.8966179 4.0 -4.2362175 4.0l0 0c-2.3396034 0 -4.2362213 -1.790863 -4.2362213 -4.0z" fill-rule="evenodd"/><path fill="#000000" d="m337.33267 36.471348l0 0c0 -2.209137 1.896637 -4.0 4.2362366 -4.0l0 0c1.1235046 0 2.2010193 0.42142868 2.995453 1.1715736c0.7944336 0.75014496 1.2407532 1.767559 1.2407532 2.8284264l0 0c0 2.2091408 -1.8966064 4.0 -4.236206 4.0l0 0c-2.3395996 0 -4.2362366 -1.7908592 -4.2362366 -4.0z" fill-rule="evenodd"/><path stroke="#000000" stroke-width="1.0" stroke-linejoin="round" stroke-linecap="butt" d="m337.33267 36.471348l0 0c0 -2.209137 1.896637 -4.0 4.2362366 -4.0l0 0c1.1235046 0 2.2010193 0.42142868 2.995453 1.1715736c0.7944336 0.75014496 1.2407532 1.767559 1.2407532 2.8284264l0 0c0 2.2091408 -1.8966064 4.0 -4.236206 4.0l0 0c-2.3395996 0 -4.2362366 -1.7908592 -4.2362366 -4.0z" fill-rule="evenodd"/><path fill="#000000" d="m251.23294 172.29025l0 0c0 -2.2091522 1.8966217 -4.0 4.2362213 -4.0l0 0c1.1235199 0 2.201004 0.42141724 2.9954681 1.1715698c0.7944336 0.7501373 1.2407532 1.7675629 1.2407532 2.8284302l0 0c0 2.209137 -1.8966064 4.0 -4.2362213 4.0l0 0c-2.3395996 0 -4.2362213 -1.790863 -4.2362213 -4.0z" fill-rule="evenodd"/><path stroke="#000000" stroke-width="1.0" stroke-linejoin="round" stroke-linecap="butt" d="m251.23294 172.29025l0 0c0 -2.2091522 1.8966217 -4.0 4.2362213 -4.0l0 0c1.1235199 0 2.201004 0.42141724 2.9954681 1.1715698c0.7944336 0.7501373 1.2407532 1.7675629 1.2407532 2.8284302l0 0c0 2.209137 -1.8966064 4.0 -4.2362213 4.0l0 0c-2.3395996 0 -4.2362213 -1.790863 -4.2362213 -4.0z" fill-rule="evenodd"/><path fill="#000000" d="m31.668636 70.384735l0 0c0 -3.3658905 2.8343544 -6.09449 6.3307114 -6.09449l0 0c1.6790047 0 3.2892456 0.6420975 4.476486 1.7850342c1.1872368 1.1429367 1.8542213 2.6930923 1.8542213 4.309456l0 0c0 3.3658905 -2.8343544 6.09449 -6.3307076 6.09449l0 0c-3.496357 0 -6.3307114 -2.7285995 -6.3307114 -6.09449z" fill-rule="evenodd"/><path stroke="#000000" stroke-width="1.0" stroke-linejoin="round" stroke-linecap="butt" d="m31.668636 70.384735l0 0c0 -3.3658905 2.8343544 -6.09449 6.3307114 -6.09449l0 0c1.6790047 0 3.2892456 0.6420975 4.476486 1.7850342c1.1872368 1.1429367 1.8542213 2.6930923 1.8542213 4.309456l0 0c0 3.3658905 -2.8343544 6.09449 -6.3307076 6.09449l0 0c-3.496357 0 -6.3307114 -2.7285995 -6.3307114 -6.09449z" fill-rule="evenodd"/><path fill="#000000" d="m31.668636 263.6577l0 0c0 -3.3659058 2.8343544 -6.094513 6.3307114 -6.094513l0 0c1.6790047 0 3.2892456 0.64212036 4.476486 1.7850342c1.1872368 1.1429443 1.8542213 2.6931152 1.8542213 4.3094788l0 0c0 3.3658752 -2.8343544 6.0944824 -6.3307076 6.0944824l0 0c-3.496357 0 -6.3307114 -2.7286072 -6.3307114 -6.0944824z" fill-rule="evenodd"/><path stroke="#000000" stroke-width="1.0" stroke-linejoin="round" stroke-linecap="butt" d="m31.668636 263.6577l0 0c0 -3.3659058 2.8343544 -6.094513 6.3307114 -6.094513l0 0c1.6790047 0 3.2892456 0.64212036 4.476486 1.7850342c1.1872368 1.1429443 1.8542213 2.6931152 1.8542213 4.3094788l0 0c0 3.3658752 -2.8343544 6.0944824 -6.3307076 6.0944824l0 0c-3.496357 0 -6.3307114 -2.7286072 -6.3307114 -6.0944824z" fill-rule="evenodd"/><path fill="#000000" d="m97.666016 105.34011l0 0c0 -3.3658905 2.8343506 -6.0944824 6.3307037 -6.0944824l0 0c1.6790085 0 3.2892532 0.6420975 4.476486 1.7850342c1.1872406 1.1429367 1.8542252 2.6930923 1.8542252 4.3094482l0 0c0 3.3658981 -2.8343582 6.09449 -6.3307114 6.09449l0 0c-3.4963531 0 -6.3307037 -2.728592 -6.3307037 -6.09449z" fill-rule="evenodd"/><path stroke="#000000" stroke-width="1.0" stroke-linejoin="round" stroke-linecap="butt" d="m97.666016 105.34011l0 0c0 -3.3658905 2.8343506 -6.0944824 6.3307037 -6.0944824l0 0c1.6790085 0 3.2892532 0.6420975 4.476486 1.7850342c1.1872406 1.1429367 1.8542252 2.6930923 1.8542252 4.3094482l0 0c0 3.3658981 -2.8343582 6.09449 -6.3307114 6.09449l0 0c-3.4963531 0 -6.3307037 -2.728592 -6.3307037 -6.09449z" fill-rule="evenodd"/><path fill="#4c99a4" d="m91.32174 210.67966l0 0c-2.6005173 -4.879242 -0.75325775 -10.942795 4.125984 -13.543304l0 0c2.3430939 -1.2488251 5.0863113 -1.5157013 7.626175 -0.7419281c2.5398636 0.7737732 4.6683197 2.5248108 5.917137 4.8679047l0 0c2.6005173 4.879242 0.7532501 10.94278 -4.125984 13.543304l0 0c-4.879242 2.600525 -10.942787 0.7532654 -13.543312 -4.1259766z" fill-rule="evenodd"/><path stroke="#4c99a4" stroke-width="1.0" stroke-linejoin="round" stroke-linecap="butt" d="m91.32174 210.67966l0 0c-2.6005173 -4.879242 -0.75325775 -10.942795 4.125984 -13.543304l0 0c2.3430939 -1.2488251 5.0863113 -1.5157013 7.626175 -0.7419281c2.5398636 0.7737732 4.6683197 2.5248108 5.917137 4.8679047l0 0c2.6005173 4.879242 0.7532501 10.94278 -4.125984 13.543304l0 0c-4.879242 2.600525 -10.942787 0.7532654 -13.543312 -4.1259766z" fill-rule="evenodd"/><path fill="#0a6190" d="m217.41711 131.21506l0 0c1.983017 -5.1575623 7.771576 -7.731041 12.929138 -5.7480392l0 0c2.4767456 0.95227814 4.47377 2.849434 5.5517273 5.2741165c1.0779724 2.4246826 1.1485748 5.1782684 0.19630432 7.655014l0 0c-1.9830017 5.1575623 -7.771576 7.7310486 -12.929138 5.7480316l0 0c-5.157547 -1.9830017 -7.7310333 -7.771576 -5.7480316 -12.929123z" fill-rule="evenodd"/><path stroke="#0a6190" stroke-width="1.0" stroke-linejoin="round" stroke-linecap="butt" d="m217.41711 131.21506l0 0c1.983017 -5.1575623 7.771576 -7.731041 12.929138 -5.7480392l0 0c2.4767456 0.95227814 4.47377 2.849434 5.5517273 5.2741165c1.0779724 2.4246826 1.1485748 5.1782684 0.19630432 7.655014l0 0c-1.9830017 5.1575623 -7.771576 7.7310486 -12.929138 5.7480316l0 0c-5.157547 -1.9830017 -7.7310333 -7.771576 -5.7480316 -12.929123z" fill-rule="evenodd"/><path fill="#000000" fill-opacity="0.0" d="m3.5400283 111.00416l0 0c0 -4.221138 3.4219077 -7.6430435 7.6430445 -7.6430435l39.078743 0l0 0l20.023624 0l5.706032 0c2.0270615 0 3.9710999 0.80524445 5.4044495 2.238594c1.4333496 1.4333496 2.238594 3.377388 2.238594 5.4044495l0 19.107613l0 0l0 11.464569l0 0c0 4.2211304 -3.4219055 7.643036 -7.6430435 7.643036l-5.706032 0l19.884789 39.83203l-39.908413 -39.83203l-39.078743 0c-4.221137 0 -7.6430445 -3.4219055 -7.6430445 -7.643036l0 0l0 -11.464569l0 0z" fill-rule="evenodd"/><path stroke="#4c99a4" stroke-width="3.0" stroke-linejoin="round" stroke-linecap="butt" d="m3.5400283 111.00416l0 0c0 -4.221138 3.4219077 -7.6430435 7.6430445 -7.6430435l39.078743 0l0 0l20.023624 0l5.706032 0c2.0270615 0 3.9710999 0.80524445 5.4044495 2.238594c1.4333496 1.4333496 2.238594 3.377388 2.238594 5.4044495l0 19.107613l0 0l0 11.464569l0 0c0 4.2211304 -3.4219055 7.643036 -7.6430435 7.643036l-5.706032 0l19.884789 39.83203l-39.908413 -39.83203l-39.078743 0c-4.221137 0 -7.6430445 -3.4219055 -7.6430445 -7.643036l0 0l0 -11.464569l0 0z" fill-rule="evenodd"/><path fill="#000000" d="m17.83972 133.21025l4.8125 -13.484383l2.890625 0l4.828125 13.484383l-2.71875 0l-1.109375 -3.125l-4.859375 0l-1.109375 3.125l-2.734375 0zm4.46875 -5.5000076l3.578125 0l-1.78125 -5.375l-1.796875 5.375zm9.741274 8.500008l0 -12.640633l2.734375 0l0 1.390625q0.21875 -0.34375 0.53125 -0.625q0.3125 -0.296875 0.6875 -0.5q0.390625 -0.21875 0.828125 -0.328125q0.453125 -0.125 0.9531212 -0.125q1.0625 0 1.90625 0.53125q0.84375 0.515625 1.3125 1.625q0.484375 1.09375 0.484375 2.7812576q0 1.75 -0.515625 2.875q-0.515625 1.125 -1.421875 1.671875q-0.90625 0.53125 -2.0468712 0.53125q-0.453125 0 -0.875 -0.125q-0.40625 -0.125 -0.765625 -0.34375q-0.34375 -0.234375 -0.625 -0.515625q-0.265625 -0.296875 -0.46875 -0.65625l0 4.453125l-2.71875 0zm4.8125 -4.8125q0.875 0 1.4687462 -0.734375q0.609375 -0.734375 0.609375 -2.328125q0 -1.4062576 -0.578125 -2.1875076q-0.5625 -0.796875 -1.4999962 -0.796875q-1.0625 0 -1.578125 0.859375q-0.515625 0.859375 -0.515625 2.1250076q0 0.8125 0.21875 1.515625q0.234375 0.6875 0.6875 1.125q0.46875 0.421875 1.1875 0.421875zm6.511837 4.8125l0 -12.640633l2.734375 0l0 1.390625q0.21875 -0.34375 0.53125 -0.625q0.3125 -0.296875 0.6875 -0.5q0.390625 -0.21875 0.828125 -0.328125q0.453125 -0.125 0.953125 -0.125q1.0625 0 1.90625 0.53125q0.84375 0.515625 1.3125 1.625q0.484375 1.09375 0.484375 2.7812576q0 1.75 -0.515625 2.875q-0.515625 1.125 -1.421875 1.671875q-0.90625 0.53125 -2.046875 0.53125q-0.453125 0 -0.875 -0.125q-0.40625 -0.125 -0.765625 -0.34375q-0.34375 -0.234375 -0.625 -0.515625q-0.265625 -0.296875 -0.46875 -0.65625l0 4.453125l-2.71875 0zm4.8125 -4.8125q0.875 0 1.46875 -0.734375q0.609375 -0.734375 0.609375 -2.328125q0 -1.4062576 -0.578125 -2.1875076q-0.5625 -0.796875 -1.5 -0.796875q-1.0625 0 -1.578125 0.859375q-0.515625 0.859375 -0.515625 2.1250076q0 0.8125 0.21875 1.515625q0.234375 0.6875 0.6875 1.125q0.46875 0.421875 1.1875 0.421875zm9.589966 1.984375q-1.0625 0 -1.6875 -0.25q-0.625 -0.25 -0.9375 -0.671875q-0.296875 -0.421875 -0.375 -0.921875q-0.078125 -0.515625 -0.078125 -1.03125l0 -11.156258l2.65625 0l0 10.812508q0 0.53125 0.234375 0.875q0.234375 0.328125 0.859375 0.40625l0.453125 0.015625l0 1.6875q-0.265625 0.09375 -0.5625 0.15625q-0.28125 0.078125 -0.5625 0.078125zm6.912327 0.015625q-1.4375038 0 -2.5312538 -0.59375q-1.078125 -0.609375 -1.6875 -1.703125q-0.59375 -1.109375 -0.59375 -2.59375q0 -1.4531326 0.546875 -2.6093826q0.5625 -1.171875 1.59375 -1.84375q1.046875 -0.671875 2.5312538 -0.671875q1.484375 0 2.46875 0.625q1.0 0.609375 1.515625 1.71875q0.515625 1.109375 0.515625 2.5468826l0 0.734375l-6.484379 0q0 0.75 0.234375 1.296875q0.25 0.53125 0.703125 0.828125q0.46875 0.296875 1.1250038 0.296875q0.703125 0 1.21875 -0.296875q0.53125 -0.296875 0.734375 -0.984375l2.453125 0q-0.15625 1.03125 -0.8125 1.765625q-0.65625 0.71875 -1.59375 1.109375q-0.921875 0.375 -1.9375 0.375zm-2.1250038 -6.0156326l3.9375038 0q0 -0.578125 -0.21875 -1.0625q-0.21875 -0.484375 -0.65625 -0.75q-0.4375 -0.28125 -1.078125 -0.28125q-0.6250038 0 -1.0781288 0.296875q-0.4375 0.296875 -0.6875 0.78125q-0.234375 0.484375 -0.21875 1.015625z" fill-rule="nonzero"/><path fill="#000000" fill-opacity="0.0" d="m282.90485 115.09077l0 0c0 -4.2211304 3.4219055 -7.6430435 7.6430664 -7.6430435l5.706024 0l0 0l20.02362 0l39.078735 0c2.027069 0 3.9710999 0.8052521 5.4044495 2.2386017c1.4333496 1.433342 2.238617 3.3773804 2.238617 5.404442l0 19.107613l0 0l0 11.464569l0 0c0 4.2211304 -3.421936 7.643051 -7.6430664 7.643051l-39.078735 0l-20.02362 0l0 0l-5.706024 0c-4.221161 0 -7.6430664 -3.4219208 -7.6430664 -7.643051l0 0l-36.43817 -11.7348175l36.43817 0.2702484z" fill-rule="evenodd"/><path stroke="#0a6190" stroke-width="3.0" stroke-linejoin="round" stroke-linecap="butt" d="m282.90485 115.09077l0 0c0 -4.2211304 3.4219055 -7.6430435 7.6430664 -7.6430435l5.706024 0l0 0l20.02362 0l39.078735 0c2.027069 0 3.9710999 0.8052521 5.4044495 2.2386017c1.4333496 1.433342 2.238617 3.3773804 2.238617 5.404442l0 19.107613l0 0l0 11.464569l0 0c0 4.2211304 -3.421936 7.643051 -7.6430664 7.643051l-39.078735 0l-20.02362 0l0 0l-5.706024 0c-4.221161 0 -7.6430664 -3.4219208 -7.6430664 -7.643051l0 0l-36.43817 -11.7348175l36.43817 0.2702484z" fill-rule="evenodd"/><path fill="#000000" d="m302.94772 137.29686l0 -13.484375l9.171875 0l0 2.265625l-6.4375 0l0 3.390625l5.578125 0l0 2.234375l-5.578125 0l0 5.59375l-2.734375 0zm11.101868 0l0 -9.640625l2.609375 0l0 2.28125q0.234375 -0.734375 0.65625 -1.28125q0.4375 -0.5625 1.03125 -0.875q0.609375 -0.3125 1.375 -0.3125q0.140625 0 0.25 0.015625q0.109375 0.015625 0.171875 0.03125l0 2.59375q-0.078125 -0.03125 -0.203125 -0.03125q-0.109375 -0.015625 -0.203125 -0.03125q-0.8125 -0.0625 -1.375 0.046875q-0.5625 0.109375 -0.921875 0.390625q-0.359375 0.265625 -0.515625 0.65625q-0.15625 0.390625 -0.15625 0.875l0 5.28125l-2.71875 0zm11.233246 0.1875q-0.671875 0 -1.328125 -0.203125q-0.640625 -0.203125 -1.171875 -0.609375q-0.53125 -0.40625 -0.859375 -0.984375q-0.3125 -0.59375 -0.3125 -1.359375l0 -6.671875l2.71875 0l0 6.3125q0 0.671875 0.4375 1.109375q0.4375 0.421875 1.296875 0.421875q0.796875 0 1.265625 -0.40625q0.46875 -0.421875 0.46875 -1.171875l0 -6.265625l2.703125 0l0 9.640625l-2.0625 0l-0.3125 -1.90625q-0.171875 0.84375 -0.640625 1.296875q-0.453125 0.453125 -1.046875 0.625q-0.59375 0.171875 -1.15625 0.171875zm7.6252136 -0.1875l0 -9.640625l2.609375 0l0 9.640625l-2.609375 0zm-0.015625 -11.03125l0 -2.453125l2.640625 0l0 2.453125l-2.640625 0zm9.137482 11.140625q-1.28125 0 -1.984375 -0.328125q-0.6875 -0.328125 -0.953125 -0.90625q-0.265625 -0.59375 -0.265625 -1.375l0 -5.25l-1.5625 0l0 -1.890625l1.640625 0l0.703125 -2.921875l1.9375 0l0 2.90625l2.140625 0l0 1.90625l-2.140625 0l0.015625 5.140625q0 0.359375 0.078125 0.53125q0.09375 0.171875 0.28125 0.21875q0.203125 0.046875 0.5 0.046875l1.296875 0l0 1.6875q-0.203125 0.078125 -0.59375 0.15625q-0.390625 0.078125 -1.09375 0.078125z" fill-rule="nonzero"/><path fill="#000000" fill-opacity="0.0" d="m108.991035 201.26233l108.62992 -62.393707" fill-rule="evenodd"/><path stroke="#ff0000" stroke-width="2.0" stroke-linejoin="round" stroke-linecap="butt" stroke-dasharray="2.0,6.0" d="m108.991035 201.26233l108.62992 -62.393707" fill-rule="evenodd"/></g></svg>