<svg version="1.1" viewBox="0.0 0.0 1566.6666666666667 606.6666666666666" fill="none" stroke="none" stroke-linecap="square" stroke-miterlimit="10" xmlns:xlink="http://www.w3.org/1999/xlink" xmlns="http://www.w3.org/2000/svg"><clipPath id="p.0"><path d="m0 0l1566.6666 0l0 606.6667l-1566.6666 0l0 -606.6667z" clip-rule="nonzero"/></clipPath><g clip-path="url(#p.0)"><path fill="#000000" fill-opacity="0.0" d="m0 0l1566.6666 0l0 606.6667l-1566.6666 0z" fill-rule="evenodd"/><path fill="#ffffff" d="m5.083433 203.00731l0 0c0 -36.068832 29.239565 -65.308395 65.30839 -65.308395l442.76907 0c17.320862 0 33.932312 6.8806915 46.179993 19.128387c12.247681 12.247696 19.128357 28.859146 19.128357 46.180008l0 261.2257c0 36.068848 -29.239563 65.30841 -65.30835 65.30841l-442.76907 0l0 0c-36.068825 0 -65.30839 -29.239563 -65.30839 -65.30841z" fill-rule="evenodd"/><path stroke="#004062" stroke-width="1.0" stroke-linejoin="round" stroke-linecap="butt" d="m5.083433 203.00731l0 0c0 -36.068832 29.239565 -65.308395 65.30839 -65.308395l442.76907 0c17.320862 0 33.932312 6.8806915 46.179993 19.128387c12.247681 12.247696 19.128357 28.859146 19.128357 46.180008l0 261.2257c0 36.068848 -29.239563 65.30841 -65.30835 65.30841l-442.76907 0l0 0c-36.068825 0 -65.30839 -29.239563 -65.30839 -65.30841z" fill-rule="evenodd"/><path fill="#ffffff" d="m643.54333 104.277565l0 0c0 -54.57436 44.24121 -98.81562 98.81561 -98.81562l712.164 0c26.20752 0 51.341675 10.410902 69.87317 28.942427c18.531616 18.531525 28.942505 43.66566 28.942505 69.8732l0 395.25064c0 54.5744 -44.241333 98.81561 -98.815674 98.81561l-712.164 0c-54.5744 0 -98.81561 -44.24121 -98.81561 -98.81561z" fill-rule="evenodd"/><path stroke="#004062" stroke-width="1.0" stroke-linejoin="round" stroke-linecap="butt" d="m643.54333 104.277565l0 0c0 -54.57436 44.24121 -98.81562 98.81561 -98.81562l712.164 0c26.20752 0 51.341675 10.410902 69.87317 28.942427c18.531616 18.531525 28.942505 43.66566 28.942505 69.8732l0 395.25064c0 54.5744 -44.241333 98.81561 -98.815674 98.81561l-712.164 0c-54.5744 0 -98.81561 -44.24121 -98.81561 -98.81561z" fill-rule="evenodd"/><path fill="#096190" d="m365.26715 320.53357l0 0c0 -39.764496 32.235504 -72.0 72.0 -72.0l0 0c19.095612 0 37.40909 7.5856934 50.911713 21.088318c13.502594 13.502594 21.088287 31.816101 21.088287 50.911682l0 0c0 39.764496 -32.235474 72.0 -72.0 72.0l0 0c-39.764496 0 -72.0 -32.235504 -72.0 -72.0z" fill-rule="evenodd"/><path stroke="#004062" stroke-width="1.0" stroke-linejoin="round" stroke-linecap="butt" d="m365.26715 320.53357l0 0c0 -39.764496 32.235504 -72.0 72.0 -72.0l0 0c19.095612 0 37.40909 7.5856934 50.911713 21.088318c13.502594 13.502594 21.088287 31.816101 21.088287 50.911682l0 0c0 39.764496 -32.235474 72.0 -72.0 72.0l0 0c-39.764496 0 -72.0 -32.235504 -72.0 -72.0z" fill-rule="evenodd"/><path fill="#ffffff" d="m399.9659 326.39355l0 -11.5625q0.0625 0 0.40625 0q0.359375 0 0.84375 0q0.484375 0 0.984375 0q0.5 0 0.875 0.015625q2.109375 0.03125 3.421875 0.71875q1.328125 0.6875 1.953125 1.953125q0.625 1.25 0.625 3.03125q0 1.859375 -0.671875 3.15625q-0.65625 1.296875 -2.015625 2.0q-1.34375 0.6875 -3.4375 0.6875l-2.984375 0zm1.96875 -1.609375l1.046875 0q1.1875 0 2.09375 -0.40625q0.921875 -0.421875 1.4375 -1.34375q0.515625 -0.921875 0.515625 -2.484375q0 -1.5 -0.484375 -2.40625q-0.46875 -0.90625 -1.375 -1.296875q-0.890625 -0.40625 -2.140625 -0.40625l-1.09375 0l0 8.34375zm12.530975 1.765625q-1.1875 0 -2.078125 -0.5q-0.875 -0.515625 -1.359375 -1.46875q-0.484375 -0.953125 -0.484375 -2.28125q0 -1.296875 0.46875 -2.265625q0.484375 -0.984375 1.359375 -1.53125q0.875 -0.546875 2.09375 -0.546875q1.1875 0 2.0625 0.53125q0.875 0.515625 1.34375 1.484375q0.484375 0.96875 0.484375 2.328125q0 1.25 -0.453125 2.21875q-0.453125 0.953125 -1.328125 1.5q-0.859375 0.53125 -2.109375 0.53125zm0 -1.46875q0.671875 0 1.109375 -0.375q0.4375 -0.375 0.65625 -1.015625q0.21875 -0.640625 0.21875 -1.453125q0 -0.75 -0.203125 -1.390625q-0.1875 -0.640625 -0.625 -1.03125q-0.4375 -0.390625 -1.15625 -0.390625q-0.671875 0 -1.125 0.359375q-0.4375 0.359375 -0.65625 1.0q-0.21875 0.625 -0.21875 1.453125q0 0.75 0.1875 1.40625q0.203125 0.640625 0.640625 1.046875q0.4375 0.390625 1.171875 0.390625zm9.135864 1.46875q-1.140625 0 -2.03125 -0.5q-0.875 -0.5 -1.390625 -1.453125q-0.5 -0.953125 -0.5 -2.3125q0 -1.28125 0.46875 -2.25q0.484375 -0.96875 1.359375 -1.515625q0.890625 -0.5625 2.09375 -0.5625q0.96875 0 1.703125 0.390625q0.734375 0.390625 1.171875 1.078125q0.453125 0.671875 0.53125 1.53125l-1.65625 0q-0.0625 -0.375 -0.28125 -0.71875q-0.203125 -0.34375 -0.578125 -0.546875q-0.359375 -0.21875 -0.875 -0.21875q-0.9375 0 -1.515625 0.6875q-0.578125 0.6875 -0.578125 2.109375q0 1.3125 0.546875 2.09375q0.546875 0.78125 1.578125 0.78125q0.515625 0 0.875 -0.234375q0.375 -0.234375 0.578125 -0.5625q0.21875 -0.34375 0.28125 -0.6875l1.609375 0q-0.078125 0.84375 -0.53125 1.5q-0.4375 0.65625 -1.171875 1.03125q-0.734375 0.359375 -1.6875 0.359375zm8.250397 0q-0.609375 0 -1.171875 -0.171875q-0.5625 -0.1875 -1.015625 -0.53125q-0.4375 -0.34375 -0.703125 -0.859375q-0.265625 -0.515625 -0.265625 -1.1875l0 -5.671875l1.953125 0l0 5.4375q0 0.671875 0.421875 1.109375q0.4375 0.4375 1.296875 0.4375q0.78125 0 1.25 -0.40625q0.484375 -0.421875 0.484375 -1.203125l0 -5.375l1.921875 0l0 8.265625l-1.484375 0l-0.21875 -1.609375q-0.15625 0.671875 -0.53125 1.0625q-0.375 0.390625 -0.890625 0.546875q-0.5 0.15625 -1.046875 0.15625zm6.4566345 -0.15625l0 -8.265625l1.890625 0l0 1.171875q0.359375 -0.53125 0.96875 -0.9375q0.625 -0.40625 1.59375 -0.40625q0.4375 0 0.890625 0.15625q0.453125 0.15625 0.84375 0.453125q0.390625 0.296875 0.609375 0.734375q0.390625 -0.59375 1.046875 -0.96875q0.65625 -0.375 1.46875 -0.375q0.453125 0 0.921875 0.15625q0.484375 0.140625 0.875 0.484375q0.40625 0.328125 0.65625 0.90625q0.25 0.578125 0.25 1.453125l0 5.4375l-1.953125 0l0 -5.203125q0 -0.625 -0.21875 -0.96875q-0.203125 -0.359375 -0.546875 -0.5q-0.34375 -0.15625 -0.71875 -0.15625q-0.359375 0 -0.734375 0.140625q-0.359375 0.140625 -0.625 0.453125q-0.25 0.3125 -0.25 0.828125l0 5.40625l-1.953125 0l0 -5.515625q0 -0.4375 -0.21875 -0.71875q-0.21875 -0.296875 -0.5625 -0.4375q-0.34375 -0.15625 -0.703125 -0.15625q-0.359375 0 -0.734375 0.15625q-0.359375 0.15625 -0.609375 0.46875q-0.25 0.3125 -0.25 0.796875l0 5.40625l-1.9375 0zm17.76007 0.15625q-1.203125 0 -2.109375 -0.5q-0.90625 -0.515625 -1.421875 -1.453125q-0.5 -0.953125 -0.5 -2.25q0 -1.265625 0.453125 -2.25q0.46875 -1.0 1.34375 -1.5625q0.875 -0.578125 2.109375 -0.578125q1.234375 0 2.0625 0.53125q0.828125 0.515625 1.265625 1.453125q0.4375 0.921875 0.4375 2.171875l0 0.59375l-5.71875 0q-0.015625 0.703125 0.21875 1.25q0.234375 0.546875 0.6875 0.859375q0.453125 0.296875 1.125 0.296875q0.6875 0 1.1875 -0.296875q0.515625 -0.3125 0.6875 -0.953125l1.78125 0q-0.15625 0.875 -0.703125 1.46875q-0.53125 0.59375 -1.3125 0.90625q-0.765625 0.3125 -1.59375 0.3125zm-2.09375 -5.046875l3.890625 0q0 -0.609375 -0.21875 -1.09375q-0.203125 -0.484375 -0.640625 -0.765625q-0.421875 -0.28125 -1.0625 -0.28125q-0.640625 0 -1.078125 0.3125q-0.4375 0.3125 -0.671875 0.8125q-0.21875 0.484375 -0.21875 1.015625zm7.589386 4.890625l0 -8.265625l1.90625 0l0 1.171875q0.1875 -0.3125 0.515625 -0.609375q0.328125 -0.296875 0.8125 -0.484375q0.5 -0.1875 1.15625 -0.1875q0.765625 0 1.421875 0.3125q0.65625 0.296875 1.0625 0.953125q0.40625 0.640625 0.40625 1.671875l0 5.4375l-1.953125 0l0 -5.203125q0 -0.828125 -0.453125 -1.21875q-0.4375 -0.390625 -1.125 -0.390625q-0.453125 0 -0.875 0.15625q-0.421875 0.15625 -0.6875 0.46875q-0.25 0.3125 -0.25 0.78125l0 5.40625l-1.9375 0zm12.368378 0.0625q-0.984375 0 -1.53125 -0.25q-0.53125 -0.265625 -0.75 -0.75q-0.203125 -0.484375 -0.203125 -1.140625l0 -4.8125l-1.34375 0l0 -1.375l1.40625 0l0.484375 -2.46875l1.40625 0l0 2.453125l1.84375 0l0 1.390625l-1.84375 0l0 4.734375q0 0.375 0.078125 0.546875q0.09375 0.171875 0.28125 0.21875q0.1875 0.046875 0.5 0.046875l1.03125 0l0 1.234375q-0.171875 0.0625 -0.5 0.109375q-0.328125 0.0625 -0.859375 0.0625z" fill-rule="nonzero"/><path fill="#6ea345" d="m27.138552 320.53357l0 0c0 -39.764496 32.235497 -72.0 72.0 -72.0l0 0c19.095589 0 37.409073 7.5856934 50.911697 21.088318c13.502609 13.502594 21.088303 31.816101 21.088303 50.911682l0 0c0 39.764496 -32.23549 72.0 -72.0 72.0l0 0c-39.7645 0 -72.0 -32.235504 -72.0 -72.0z" fill-rule="evenodd"/><path stroke="#004062" stroke-width="1.0" stroke-linejoin="round" stroke-linecap="butt" d="m27.138552 320.53357l0 0c0 -39.764496 32.235497 -72.0 72.0 -72.0l0 0c19.095589 0 37.409073 7.5856934 50.911697 21.088318c13.502609 13.502594 21.088303 31.816101 21.088303 50.911682l0 0c0 39.764496 -32.23549 72.0 -72.0 72.0l0 0c-39.7645 0 -72.0 -32.235504 -72.0 -72.0z" fill-rule="evenodd"/><path fill="#ffffff" d="m80.72912 326.5498q-1.59375 0 -2.734375 -0.71875q-1.140625 -0.734375 -1.75 -2.078125q-0.609375 -1.359375 -0.609375 -3.21875q0 -1.84375 0.609375 -3.15625q0.609375 -1.3125 1.734375 -2.015625q1.140625 -0.703125 2.75 -0.703125q1.265625 0 2.25 0.515625q0.984375 0.515625 1.59375 1.40625q0.609375 0.875 0.71875 1.953125l-2.0625 0q-0.125 -0.640625 -0.453125 -1.140625q-0.3125 -0.5 -0.84375 -0.796875q-0.53125 -0.296875 -1.265625 -0.296875q-0.921875 0 -1.5625 0.4375q-0.640625 0.4375 -0.984375 1.390625q-0.34375 0.9375 -0.34375 2.4375q0 2.28125 0.75 3.328125q0.765625 1.03125 2.140625 1.03125q0.734375 0 1.265625 -0.328125q0.53125 -0.328125 0.84375 -0.859375q0.328125 -0.546875 0.453125 -1.1875l2.0625 0q-0.09375 0.78125 -0.40625 1.515625q-0.296875 0.71875 -0.84375 1.28125q-0.53125 0.5625 -1.359375 0.890625q-0.8125 0.3125 -1.953125 0.3125zm6.4749756 -0.15625l0 -11.890625l1.921875 0l0 4.8125q0.1875 -0.3125 0.515625 -0.59375q0.328125 -0.296875 0.796875 -0.484375q0.484375 -0.1875 1.15625 -0.1875q0.78125 0 1.4375 0.3125q0.65625 0.296875 1.046875 0.875q0.40625 0.5625 0.40625 1.359375l0 5.796875l-1.953125 0l0 -5.46875q0 -0.640625 -0.453125 -0.984375q-0.453125 -0.359375 -1.140625 -0.359375q-0.453125 0 -0.875 0.15625q-0.421875 0.15625 -0.671875 0.484375q-0.25 0.3125 -0.25 0.78125l0 5.390625l-1.9375 0zm12.391129 0.15625q-0.609375 0 -1.171875 -0.171875q-0.5625 -0.1875 -1.015625 -0.53125q-0.4375 -0.34375 -0.703125 -0.859375q-0.265625 -0.515625 -0.265625 -1.1875l0 -5.671875l1.953125 0l0 5.4375q0 0.671875 0.421875 1.109375q0.4375 0.4375 1.296875 0.4375q0.78125 0 1.25 -0.40625q0.484375 -0.421875 0.484375 -1.203125l0 -5.375l1.921875 0l0 8.265625l-1.484375 0l-0.21875 -1.609375q-0.15625 0.671875 -0.53125 1.0625q-0.375 0.390625 -0.890625 0.546875q-0.5 0.15625 -1.046875 0.15625zm6.4566345 -0.15625l0 -8.265625l1.90625 0l0 1.171875q0.1875 -0.3125 0.515625 -0.609375q0.328125 -0.296875 0.8125 -0.484375q0.5 -0.1875 1.15625 -0.1875q0.765625 0 1.421875 0.3125q0.65625 0.296875 1.0625 0.953125q0.40625 0.640625 0.40625 1.671875l0 5.4375l-1.953125 0l0 -5.203125q0 -0.828125 -0.453125 -1.21875q-0.4375 -0.390625 -1.125 -0.390625q-0.453125 0 -0.875 0.15625q-0.421875 0.15625 -0.6875 0.46875q-0.25 0.3125 -0.25 0.78125l0 5.40625l-1.9375 0zm9.367874 0l0 -11.890625l1.9375 0l0 7.375l3.421875 -3.75l2.140625 0l-3.0 3.21875l3.15625 5.046875l-1.984375 0l-2.390625 -3.828125l-1.34375 1.40625l0 2.421875l-1.9375 0z" fill-rule="nonzero"/><path fill="#000000" fill-opacity="0.0" d="m171.13855 320.53357l194.14172 0" fill-rule="evenodd"/><path stroke="#000000" stroke-width="4.0" stroke-linejoin="round" stroke-linecap="butt" d="m171.13855 320.53357l170.14172 0" fill-rule="evenodd"/><path fill="#000000" stroke="#000000" stroke-width="4.0" stroke-linecap="butt" d="m341.28027 327.1405l18.152374 -6.6069336l-18.152374 -6.6069336z" fill-rule="evenodd"/><path fill="#ffa800" d="m689.83673 320.53357l0 0c0 -39.764496 32.235474 -72.0 72.0 -72.0l0 0c19.095581 0 37.409058 7.5856934 50.911682 21.088318c13.5026245 13.502594 21.088318 31.816101 21.088318 50.911682l0 0c0 39.764496 -32.235535 72.0 -72.0 72.0l0 0c-39.764526 0 -72.0 -32.235504 -72.0 -72.0z" fill-rule="evenodd"/><path stroke="#004062" stroke-width="1.0" stroke-linejoin="round" stroke-linecap="butt" d="m689.83673 320.53357l0 0c0 -39.764496 32.235474 -72.0 72.0 -72.0l0 0c19.095581 0 37.409058 7.5856934 50.911682 21.088318c13.5026245 13.502594 21.088318 31.816101 21.088318 50.911682l0 0c0 39.764496 -32.235535 72.0 -72.0 72.0l0 0c-39.764526 0 -72.0 -32.235504 -72.0 -72.0z" fill-rule="evenodd"/><path fill="#ffffff" d="m732.27545 326.5498q-1.59375 0 -2.734375 -0.71875q-1.140625 -0.734375 -1.75 -2.078125q-0.609375 -1.359375 -0.609375 -3.21875q0 -1.84375 0.609375 -3.15625q0.609375 -1.3125 1.734375 -2.015625q1.140625 -0.703125 2.75 -0.703125q1.265625 0 2.25 0.515625q0.984375 0.515625 1.59375 1.40625q0.609375 0.875 0.71875 1.953125l-2.0625 0q-0.125 -0.640625 -0.453125 -1.140625q-0.3125 -0.5 -0.84375 -0.796875q-0.53125 -0.296875 -1.265625 -0.296875q-0.921875 0 -1.5625 0.4375q-0.640625 0.4375 -0.984375 1.390625q-0.34375 0.9375 -0.34375 2.4375q0 2.28125 0.75 3.328125q0.765625 1.03125 2.140625 1.03125q0.734375 0 1.265625 -0.328125q0.53125 -0.328125 0.84375 -0.859375q0.328125 -0.546875 0.453125 -1.1875l2.0625 0q-0.09375 0.78125 -0.40625 1.515625q-0.296875 0.71875 -0.84375 1.28125q-0.53125 0.5625 -1.359375 0.890625q-0.8125 0.3125 -1.953125 0.3125zm9.951721 0q-1.1875 0 -2.078125 -0.5q-0.875 -0.515625 -1.359375 -1.46875q-0.484375 -0.953125 -0.484375 -2.28125q0 -1.296875 0.46875 -2.265625q0.484375 -0.984375 1.359375 -1.53125q0.875 -0.546875 2.09375 -0.546875q1.1875 0 2.0625 0.53125q0.875 0.515625 1.34375 1.484375q0.484375 0.96875 0.484375 2.328125q0 1.25 -0.453125 2.21875q-0.453125 0.953125 -1.328125 1.5q-0.859375 0.53125 -2.109375 0.53125zm0 -1.46875q0.671875 0 1.109375 -0.375q0.4375 -0.375 0.65625 -1.015625q0.21875 -0.640625 0.21875 -1.453125q0 -0.75 -0.203125 -1.390625q-0.1875 -0.640625 -0.625 -1.03125q-0.4375 -0.390625 -1.15625 -0.390625q-0.671875 0 -1.125 0.359375q-0.4375 0.359375 -0.65625 1.0q-0.21875 0.625 -0.21875 1.453125q0 0.75 0.1875 1.40625q0.203125 0.640625 0.640625 1.046875q0.4375 0.390625 1.171875 0.390625zm5.6671143 1.3125l0 -8.265625l1.890625 0l0 1.171875q0.359375 -0.53125 0.96875 -0.9375q0.625 -0.40625 1.59375 -0.40625q0.4375 0 0.890625 0.15625q0.453125 0.15625 0.84375 0.453125q0.390625 0.296875 0.609375 0.734375q0.390625 -0.59375 1.046875 -0.96875q0.65625 -0.375 1.46875 -0.375q0.453125 0 0.921875 0.15625q0.484375 0.140625 0.875 0.484375q0.40625 0.328125 0.65625 0.90625q0.25 0.578125 0.25 1.453125l0 5.4375l-1.953125 0l0 -5.203125q0 -0.625 -0.21875 -0.96875q-0.203125 -0.359375 -0.546875 -0.5q-0.34375 -0.15625 -0.71875 -0.15625q-0.359375 0 -0.734375 0.140625q-0.359375 0.140625 -0.625 0.453125q-0.25 0.3125 -0.25 0.828125l0 5.40625l-1.953125 0l0 -5.515625q0 -0.4375 -0.21875 -0.71875q-0.21875 -0.296875 -0.5625 -0.4375q-0.34375 -0.15625 -0.703125 -0.15625q-0.359375 0 -0.734375 0.15625q-0.359375 0.15625 -0.609375 0.46875q-0.25 0.3125 -0.25 0.796875l0 5.40625l-1.9375 0zm14.103821 2.578125l0 -10.84375l1.9375 0l0.015625 1.296875q0.15625 -0.265625 0.40625 -0.53125q0.265625 -0.265625 0.59375 -0.46875q0.328125 -0.21875 0.734375 -0.34375q0.40625 -0.125 0.90625 -0.125q0.9375 0 1.671875 0.453125q0.75 0.453125 1.15625 1.390625q0.421875 0.9375 0.421875 2.375q0 1.453125 -0.4375 2.4375q-0.421875 0.96875 -1.203125 1.453125q-0.765625 0.484375 -1.796875 0.484375q-0.46875 0 -0.859375 -0.125q-0.390625 -0.125 -0.703125 -0.34375q-0.296875 -0.234375 -0.53125 -0.5q-0.21875 -0.265625 -0.359375 -0.546875l0 3.9375l-1.953125 0zm3.984375 -3.875q0.875 0 1.453125 -0.703125q0.578125 -0.703125 0.578125 -2.1875q0 -1.296875 -0.546875 -2.046875q-0.53125 -0.75 -1.484375 -0.75q-1.03125 0 -1.546875 0.796875q-0.5 0.78125 -0.5 2.0q0 0.78125 0.21875 1.4375q0.234375 0.65625 0.6875 1.0625q0.453125 0.390625 1.140625 0.390625zm7.9661255 1.453125q-0.796875 0 -1.421875 -0.28125q-0.625 -0.296875 -0.984375 -0.84375q-0.359375 -0.546875 -0.359375 -1.328125q0 -1.375 0.984375 -2.0625q1.0 -0.703125 3.15625 -0.734375l1.234375 -0.03125l0 -0.5625q0 -0.65625 -0.390625 -1.03125q-0.390625 -0.375 -1.203125 -0.359375q-0.609375 0 -1.109375 0.28125q-0.484375 0.28125 -0.640625 0.921875l-1.65625 0q0.046875 -0.84375 0.484375 -1.40625q0.453125 -0.578125 1.21875 -0.859375q0.78125 -0.296875 1.796875 -0.296875q1.1875 0 1.921875 0.3125q0.75 0.3125 1.09375 0.90625q0.359375 0.59375 0.359375 1.421875l0 5.796875l-1.640625 0l-0.15625 -1.484375q-0.4375 0.9375 -1.125 1.296875q-0.6875 0.34375 -1.5625 0.34375zm0.625 -1.3125q0.359375 0 0.703125 -0.125q0.359375 -0.140625 0.640625 -0.359375q0.296875 -0.234375 0.46875 -0.515625q0.171875 -0.28125 0.171875 -0.59375l0 -1.296875l-1.015625 0.015625q-0.75 0 -1.3125 0.15625q-0.5625 0.15625 -0.875 0.484375q-0.3125 0.328125 -0.3125 0.890625q0 0.625 0.4375 0.984375q0.4375 0.359375 1.09375 0.359375zm5.944275 1.15625l0 -8.265625l1.90625 0l0 1.171875q0.1875 -0.3125 0.515625 -0.609375q0.328125 -0.296875 0.8125 -0.484375q0.5 -0.1875 1.15625 -0.1875q0.765625 0 1.421875 0.3125q0.65625 0.296875 1.0625 0.953125q0.40625 0.640625 0.40625 1.671875l0 5.4375l-1.953125 0l0 -5.203125q0 -0.828125 -0.453125 -1.21875q-0.4375 -0.390625 -1.125 -0.390625q-0.453125 0 -0.875 0.15625q-0.421875 0.15625 -0.6875 0.46875q-0.25 0.3125 -0.25 0.78125l0 5.40625l-1.9375 0zm10.165955 2.640625q-0.796875 0 -1.109375 -0.125q-0.3125 -0.125 -0.3125 -0.125l0 -1.25l0.828125 0.03125q0.5 0.015625 0.8125 -0.0625q0.328125 -0.078125 0.5 -0.21875q0.171875 -0.140625 0.25 -0.296875q0.09375 -0.15625 0.140625 -0.265625l0.21875 -0.609375l-3.234375 -7.984375l1.9375 0l2.203125 5.84375l2.1875 -5.84375l1.90625 0l-3.40625 8.5625q-0.375 0.9375 -0.828125 1.4375q-0.4375 0.515625 -0.96875 0.703125q-0.515625 0.203125 -1.125 0.203125z" fill-rule="nonzero"/><path fill="#000000" fill-opacity="0.0" d="m509.26715 320.53357l180.56696 0" fill-rule="evenodd"/><path stroke="#000000" stroke-width="4.0" stroke-linejoin="round" stroke-linecap="butt" d="m533.26715 320.53357l156.5669 0" fill-rule="evenodd"/><path fill="#000000" stroke="#000000" stroke-width="4.0" stroke-linecap="butt" d="m533.26715 313.92664l-18.152405 6.6069336l18.152405 6.6069336z" fill-rule="evenodd"/><path fill="#d33300" d="m1379.2225 268.53357l0 0c0 -39.76451 32.235474 -72.0 72.0 -72.0l0 0c19.095581 0 37.409058 7.5856934 50.911743 21.088303c13.502563 13.5026245 21.088257 31.816101 21.088257 50.911697l0 0c0 39.764496 -32.235474 72.0 -72.0 72.0l0 0c-39.764526 0 -72.0 -32.235504 -72.0 -72.0z" fill-rule="evenodd"/><path stroke="#004062" stroke-width="1.0" stroke-linejoin="round" stroke-linecap="butt" d="m1379.2225 268.53357l0 0c0 -39.76451 32.235474 -72.0 72.0 -72.0l0 0c19.095581 0 37.409058 7.5856934 50.911743 21.088303c13.502563 13.5026245 21.088257 31.816101 21.088257 50.911697l0 0c0 39.764496 -32.235474 72.0 -72.0 72.0l0 0c-39.764526 0 -72.0 -32.235504 -72.0 -72.0z" fill-rule="evenodd"/><path fill="#ffffff" d="m1433.5245 264.34543q-0.9375 0 -1.796875 -0.21875q-0.859375 -0.234375 -1.5625 -0.6875q-0.703125 -0.46875 -1.171875 -1.140625q-0.453125 -0.6875 -0.5625 -1.59375l2.1875 0q0.140625 0.640625 0.546875 1.078125q0.421875 0.421875 1.046875 0.65625q0.640625 0.21875 1.40625 0.21875q0.703125 0 1.296875 -0.203125q0.59375 -0.21875 0.96875 -0.625q0.375 -0.40625 0.375 -1.015625q0 -0.6875 -0.484375 -1.0625q-0.484375 -0.390625 -1.375 -0.625l-2.453125 -0.578125q-0.953125 -0.21875 -1.65625 -0.625q-0.703125 -0.421875 -1.09375 -1.09375q-0.390625 -0.6875 -0.390625 -1.6718597q0 -1.125 0.609375 -1.953125q0.625 -0.828125 1.6875 -1.265625q1.078125 -0.453125 2.40625 -0.453125q1.53125 0 2.578125 0.515625q1.046875 0.5 1.59375 1.359375q0.546875 0.84375 0.546875 1.859375l-2.125 0q-0.0625 -0.765625 -0.4375 -1.203125q-0.375 -0.4375 -0.953125 -0.625q-0.5625 -0.203125 -1.265625 -0.203125q-1.21875 0 -1.828125 0.53125q-0.59375 0.53125 -0.59375 1.234375q0 0.671875 0.4375 1.0624847q0.453125 0.390625 1.359375 0.59375l2.328125 0.546875q1.171875 0.25 1.875 0.75q0.71875 0.5 1.03125 1.1875q0.328125 0.6875 0.328125 1.53125q0 1.09375 -0.625 1.9375q-0.609375 0.828125 -1.703125 1.3125q-1.09375 0.46875 -2.53125 0.46875zm10.304443 -0.109375q-1.078125 0 -1.65625 -0.28125q-0.578125 -0.28125 -0.8125 -0.796875q-0.21875 -0.515625 -0.21875 -1.234375l0 -5.21875l-1.453125 0l0 -1.4843597l1.515625 0l0.515625 -2.671875l1.515625 0l0 2.65625l2.015625 0l0 1.4999847l-2.015625 0l0.015625 5.140625q0 0.390625 0.09375 0.578125q0.09375 0.1875 0.296875 0.25q0.203125 0.046875 0.53125 0.046875l1.109375 0l0 1.34375q-0.171875 0.0625 -0.53125 0.109375q-0.34375 0.0625 -0.921875 0.0625zm6.8881836 0.109375q-1.28125 0 -2.234375 -0.546875q-0.953125 -0.546875 -1.484375 -1.578125q-0.515625 -1.03125 -0.515625 -2.484375q0 -1.40625 0.5 -2.453125q0.515625 -1.0625 1.46875 -1.6406097q0.953125 -0.59375 2.28125 -0.59375q1.28125 0 2.21875 0.5625q0.953125 0.56248474 1.46875 1.6093597q0.515625 1.046875 0.515625 2.515625q0 1.359375 -0.5 2.40625q-0.484375 1.03125 -1.421875 1.625q-0.9375 0.578125 -2.296875 0.578125zm0.015625 -1.59375q0.71875 0 1.1875 -0.40625q0.484375 -0.40625 0.71875 -1.09375q0.234375 -0.6875 0.234375 -1.578125q0 -0.8125 -0.21875 -1.5q-0.203125 -0.703125 -0.671875 -1.125q-0.46875 -0.421875 -1.25 -0.421875q-0.734375 0 -1.21875 0.390625q-0.484375 0.375 -0.71875 1.078125q-0.234375 0.6875 -0.234375 1.578125q0 0.8125 0.203125 1.515625q0.21875 0.703125 0.6875 1.140625q0.484375 0.421875 1.28125 0.421875zm9.878906 1.59375q-1.234375 0 -2.1875 -0.53125q-0.953125 -0.546875 -1.5 -1.578125q-0.546875 -1.046875 -0.546875 -2.5q0 -1.40625 0.515625 -2.453125q0.515625 -1.046875 1.453125 -1.6406097q0.953125 -0.59375 2.265625 -0.59375q1.046875 0 1.84375 0.421875q0.796875 0.40625 1.28125 1.1406097q0.484375 0.734375 0.578125 1.671875l-1.796875 0q-0.0625 -0.40625 -0.296875 -0.765625q-0.234375 -0.375 -0.640625 -0.609375q-0.390625 -0.234375 -0.953125 -0.234375q-1.015625 0 -1.640625 0.75q-0.609375 0.75 -0.609375 2.28125q0 1.421875 0.59375 2.265625q0.59375 0.84375 1.703125 0.84375q0.546875 0 0.9375 -0.25q0.40625 -0.25 0.625 -0.609375q0.234375 -0.375 0.296875 -0.75l1.75 0q-0.078125 0.921875 -0.5625 1.640625q-0.484375 0.703125 -1.28125 1.109375q-0.796875 0.390625 -1.828125 0.390625zm5.6245117 -0.171875l0 -12.874985l2.09375 0l0 7.9843597l3.71875 -4.0624847l2.3125 0l-3.25 3.4999847l3.40625 5.453125l-2.140625 0l-2.59375 -4.15625l-1.453125 1.53125l0 2.625l-2.09375 0z" fill-rule="nonzero"/><path fill="#ffffff" d="m1435.7297 285.17355l0 -10.625l-3.90625 0l0 -1.90625l9.78125 0l0 1.90625l-3.765625 0l0 10.625l-2.109375 0zm7.7280273 2.859375q-0.859375 0 -1.203125 -0.140625q-0.328125 -0.125 -0.328125 -0.125l0 -1.359375l0.890625 0.03125q0.546875 0.03125 0.890625 -0.0625q0.34375 -0.078125 0.53125 -0.234375q0.1875 -0.15625 0.28125 -0.328125q0.09375 -0.171875 0.140625 -0.28125l0.234375 -0.65625l-3.484375 -8.65625l2.09375 0l2.390625 6.328125l2.375 -6.328125l2.0625 0l-3.703125 9.28125q-0.40625 1.015625 -0.890625 1.5625q-0.484375 0.546875 -1.046875 0.75q-0.5625 0.21875 -1.234375 0.21875zm8.382935 -0.0625l0 -11.75l2.09375 0l0.015625 1.40625q0.171875 -0.296875 0.4375 -0.578125q0.28125 -0.28125 0.640625 -0.5q0.359375 -0.234375 0.796875 -0.359375q0.453125 -0.140625 0.984375 -0.140625q1.03125 0 1.828125 0.484375q0.796875 0.484375 1.25 1.5q0.453125 1.015625 0.453125 2.5625q0 1.59375 -0.46875 2.65625q-0.46875 1.046875 -1.3125 1.578125q-0.828125 0.515625 -1.9375 0.515625q-0.515625 0 -0.9375 -0.140625q-0.421875 -0.140625 -0.75 -0.375q-0.328125 -0.25 -0.578125 -0.53125q-0.25 -0.28125 -0.40625 -0.59375l0 4.265625l-2.109375 0zm4.3125 -4.203125q0.953125 0 1.578125 -0.75q0.625 -0.765625 0.625 -2.390625q0 -1.390625 -0.59375 -2.203125q-0.578125 -0.8125 -1.609375 -0.8125q-1.109375 0 -1.671875 0.859375q-0.546875 0.84375 -0.546875 2.15625q0 0.859375 0.234375 1.578125q0.25 0.703125 0.734375 1.140625q0.5 0.421875 1.25 0.421875zm10.072266 1.578125q-1.296875 0 -2.28125 -0.546875q-0.984375 -0.546875 -1.53125 -1.5625q-0.546875 -1.03125 -0.546875 -2.453125q0 -1.375 0.5 -2.4375q0.5 -1.078125 1.4375 -1.6875q0.953125 -0.609375 2.296875 -0.609375q1.328125 0 2.21875 0.5625q0.90625 0.5625 1.375 1.578125q0.46875 1.0 0.46875 2.34375l0 0.640625l-6.1875 0q-0.015625 0.765625 0.234375 1.359375q0.25 0.59375 0.75 0.921875q0.5 0.328125 1.21875 0.328125q0.75 0 1.296875 -0.328125q0.546875 -0.328125 0.734375 -1.015625l1.921875 0q-0.15625 0.9375 -0.75 1.59375q-0.578125 0.640625 -1.421875 0.984375q-0.828125 0.328125 -1.734375 0.328125zm-2.265625 -5.46875l4.21875 0q0 -0.65625 -0.234375 -1.171875q-0.234375 -0.53125 -0.6875 -0.828125q-0.453125 -0.3125 -1.15625 -0.3125q-0.703125 0 -1.1875 0.34375q-0.46875 0.328125 -0.71875 0.859375q-0.234375 0.53125 -0.234375 1.109375z" fill-rule="nonzero"/><path fill="#d33300" d="m1341.653 509.08212l0 0c0 -39.764496 32.235474 -72.0 72.0 -72.0l0 0c19.095581 0 37.409058 7.5856934 50.911743 21.088318c13.502563 13.5026245 21.088257 31.816101 21.088257 50.911682l0 0c0 39.764496 -32.235474 71.99997 -72.0 71.99997l0 0c-39.764526 0 -72.0 -32.235474 -72.0 -71.99997z" fill-rule="evenodd"/><path stroke="#004062" stroke-width="1.0" stroke-linejoin="round" stroke-linecap="butt" d="m1341.653 509.08212l0 0c0 -39.764496 32.235474 -72.0 72.0 -72.0l0 0c19.095581 0 37.409058 7.5856934 50.911743 21.088318c13.502563 13.5026245 21.088257 31.816101 21.088257 50.911682l0 0c0 39.764496 -32.235474 71.99997 -72.0 71.99997l0 0c-39.764526 0 -72.0 -32.235474 -72.0 -71.99997z" fill-rule="evenodd"/><path fill="#ffffff" d="m1378.1597 514.94214l0 -11.5625305l7.640625 0l0 1.671875l-5.6875 0l0 3.234375l5.015625 0l0 1.640625l-5.03125 0l0 3.3125305l5.8125 0.015625l0 1.6875l-7.75 0zm8.928345 0l3.171875 -4.2969055l-2.921875 -3.96875l2.078125 0l1.90625 2.578125l1.90625 -2.578125l2.078125 0l-2.9375 3.96875l3.1875 4.2969055l-2.0625 0l-2.1875 -2.9375l-2.15625 2.9375l-2.0625 0zm13.230835 0.15625q-1.203125 0 -2.109375 -0.5q-0.90625 -0.515625 -1.421875 -1.453125q-0.5 -0.953125 -0.5 -2.2500305q0 -1.265625 0.453125 -2.25q0.46875 -1.0 1.34375 -1.5625q0.875 -0.578125 2.109375 -0.578125q1.234375 0 2.0625 0.53125q0.828125 0.515625 1.265625 1.453125q0.4375 0.921875 0.4375 2.171875l0 0.59375l-5.71875 0q-0.015625 0.703125 0.21875 1.2500305q0.234375 0.546875 0.6875 0.859375q0.453125 0.296875 1.125 0.296875q0.6875 0 1.1875 -0.296875q0.515625 -0.3125 0.6875 -0.953125l1.78125 0q-0.15625 0.875 -0.703125 1.46875q-0.53125 0.59375 -1.3125 0.90625q-0.765625 0.3125 -1.59375 0.3125zm-2.09375 -5.0469055l3.890625 0q0 -0.609375 -0.21875 -1.09375q-0.203125 -0.484375 -0.640625 -0.765625q-0.421875 -0.28125 -1.0625 -0.28125q-0.640625 0 -1.078125 0.3125q-0.4375 0.3125 -0.671875 0.8125q-0.21875 0.484375 -0.21875 1.015625zm11.058105 5.0469055q-1.140625 0 -2.03125 -0.5q-0.875 -0.5 -1.390625 -1.453125q-0.5 -0.953125 -0.5 -2.3125305q0 -1.28125 0.46875 -2.25q0.484375 -0.96875 1.359375 -1.515625q0.890625 -0.5625 2.09375 -0.5625q0.96875 0 1.703125 0.390625q0.734375 0.390625 1.171875 1.078125q0.453125 0.671875 0.53125 1.53125l-1.65625 0q-0.0625 -0.375 -0.28125 -0.71875q-0.203125 -0.34375 -0.578125 -0.546875q-0.359375 -0.21875 -0.875 -0.21875q-0.9375 0 -1.515625 0.6875q-0.578125 0.6875 -0.578125 2.109375q0 1.3125305 0.546875 2.0937805q0.546875 0.78125 1.578125 0.78125q0.515625 0 0.875 -0.234375q0.375 -0.234375 0.578125 -0.5625q0.21875 -0.34375 0.28125 -0.6875l1.609375 0q-0.078125 0.84375 -0.53125 1.5q-0.4375 0.65625 -1.171875 1.03125q-0.734375 0.359375 -1.6875 0.359375zm8.250366 0q-0.609375 0 -1.171875 -0.171875q-0.5625 -0.1875 -1.015625 -0.53125q-0.4375 -0.34375 -0.703125 -0.859375q-0.265625 -0.515625 -0.265625 -1.1875l0 -5.6719055l1.953125 0l0 5.4375305q0 0.671875 0.421875 1.109375q0.4375 0.4375 1.296875 0.4375q0.78125 0 1.25 -0.40625q0.484375 -0.421875 0.484375 -1.203125l0 -5.3750305l1.921875 0l0 8.2656555l-1.484375 0l-0.21875 -1.609375q-0.15625 0.671875 -0.53125 1.0625q-0.375 0.390625 -0.890625 0.546875q-0.5 0.15625 -1.046875 0.15625zm9.697144 -0.09375q-0.984375 0 -1.53125 -0.25q-0.53125 -0.265625 -0.75 -0.75q-0.203125 -0.484375 -0.203125 -1.140625l0 -4.8125305l-1.34375 0l0 -1.375l1.40625 0l0.484375 -2.46875l1.40625 0l0 2.453125l1.84375 0l0 1.390625l-1.84375 0l0 4.7344055q0 0.375 0.078125 0.546875q0.09375 0.171875 0.28125 0.21875q0.1875 0.046875 0.5 0.046875l1.03125 0l0 1.234375q-0.171875 0.0625 -0.5 0.109375q-0.328125 0.0625 -0.859375 0.0625zm3.1827393 -0.0625l0 -8.2656555l1.859375 0l0 8.2656555l-1.859375 0zm-0.03125 -9.7187805l0 -1.84375l1.921875 0l0 1.84375l-1.921875 0zm6.3623047 9.7187805l-3.0625 -8.2656555l1.796875 0l1.984375 5.7812805l0.09375 0l1.984375 -5.7812805l1.78125 0l-3.046875 8.2656555l-1.53125 0zm9.421753 0.15625q-1.203125 0 -2.109375 -0.5q-0.90625 -0.515625 -1.421875 -1.453125q-0.5 -0.953125 -0.5 -2.2500305q0 -1.265625 0.453125 -2.25q0.46875 -1.0 1.34375 -1.5625q0.875 -0.578125 2.109375 -0.578125q1.234375 0 2.0625 0.53125q0.828125 0.515625 1.265625 1.453125q0.4375 0.921875 0.4375 2.171875l0 0.59375l-5.71875 0q-0.015625 0.703125 0.21875 1.2500305q0.234375 0.546875 0.6875 0.859375q0.453125 0.296875 1.125 0.296875q0.6875 0 1.1875 -0.296875q0.515625 -0.3125 0.6875 -0.953125l1.78125 0q-0.15625 0.875 -0.703125 1.46875q-0.53125 0.59375 -1.3125 0.90625q-0.765625 0.3125 -1.59375 0.3125zm-2.09375 -5.0469055l3.890625 0q0 -0.609375 -0.21875 -1.09375q-0.203125 -0.484375 -0.640625 -0.765625q-0.421875 -0.28125 -1.0625 -0.28125q-0.640625 0 -1.078125 0.3125q-0.4375 0.3125 -0.671875 0.8125q-0.21875 0.484375 -0.21875 1.015625z" fill-rule="nonzero"/><path fill="#d33300" d="m812.04407 509.08212l0 0c0 -39.764496 32.235474 -72.0 72.0 -72.0l0 0c19.095581 0 37.409058 7.5856934 50.911682 21.088318c13.5026245 13.5026245 21.088318 31.816101 21.088318 50.911682l0 0c0 39.764496 -32.235474 71.99997 -72.0 71.99997l0 0c-39.764526 0 -72.0 -32.235474 -72.0 -71.99997z" fill-rule="evenodd"/><path stroke="#004062" stroke-width="1.0" stroke-linejoin="round" stroke-linecap="butt" d="m812.04407 509.08212l0 0c0 -39.764496 32.235474 -72.0 72.0 -72.0l0 0c19.095581 0 37.409058 7.5856934 50.911682 21.088318c13.5026245 13.5026245 21.088318 31.816101 21.088318 50.911682l0 0c0 39.764496 -32.235474 71.99997 -72.0 71.99997l0 0c-39.764526 0 -72.0 -32.235474 -72.0 -71.99997z" fill-rule="evenodd"/><path fill="#ffffff" d="m868.1916 504.7221l0 -10.625l-3.90625 0l0 -1.90625l9.78125 0l0 1.90625l-3.765625 0l0 10.625l-2.109375 0zm7.4696655 0l0 -8.953125l2.015625 0l0 8.953125l-2.015625 0zm-0.03125 -10.53125l0 -1.984375l2.078125 0l0 1.984375l-2.078125 0zm4.548706 10.53125l0 -8.953125l2.046875 0l0 1.28125q0.390625 -0.59375 1.0625 -1.015625q0.671875 -0.4375 1.703125 -0.4375q0.484375 0 0.96875 0.171875q0.5 0.15625 0.90625 0.484375q0.421875 0.3125 0.671875 0.78125q0.4375 -0.625 1.140625 -1.03125q0.703125 -0.40625 1.59375 -0.40625q0.484375 0 1.0 0.15625q0.515625 0.15625 0.9375 0.515625q0.4375 0.359375 0.703125 0.984375q0.265625 0.625 0.265625 1.578125l0 5.890625l-2.09375 0l0 -5.640625q0 -0.671875 -0.234375 -1.046875q-0.234375 -0.375 -0.609375 -0.53125q-0.359375 -0.171875 -0.78125 -0.171875q-0.375 0 -0.78125 0.15625q-0.390625 0.140625 -0.6875 0.484375q-0.28125 0.328125 -0.28125 0.90625l0 5.84375l-2.09375 0l0 -5.984375q0 -0.46875 -0.25 -0.765625q-0.234375 -0.3125 -0.609375 -0.46875q-0.359375 -0.171875 -0.75 -0.171875q-0.390625 0 -0.796875 0.171875q-0.390625 0.15625 -0.671875 0.5q-0.265625 0.328125 -0.265625 0.875l0 5.84375l-2.09375 0zm19.227966 0.171875q-1.296875 0 -2.28125 -0.546875q-0.984375 -0.546875 -1.53125 -1.5625q-0.546875 -1.03125 -0.546875 -2.453125q0 -1.375 0.5 -2.4375q0.5 -1.078125 1.4375 -1.6875q0.953125 -0.609375 2.296875 -0.609375q1.328125 0 2.21875 0.5625q0.90625 0.5625 1.375 1.578125q0.46875 1.0 0.46875 2.34375l0 0.640625l-6.1875 0q-0.015625 0.765625 0.234375 1.359375q0.25 0.59375 0.75 0.921875q0.5 0.328125 1.21875 0.328125q0.75 0 1.296875 -0.328125q0.546875 -0.328125 0.734375 -1.015625l1.921875 0q-0.15625 0.9375 -0.75 1.59375q-0.578125 0.640625 -1.421875 0.984375q-0.828125 0.328125 -1.734375 0.328125zm-2.265625 -5.46875l4.21875 0q0 -0.65625 -0.234375 -1.171875q-0.234375 -0.53125 -0.6875 -0.828125q-0.453125 -0.3125 -1.15625 -0.3125q-0.703125 0 -1.1875 0.34375q-0.46875 0.328125 -0.71875 0.859375q-0.234375 0.53125 -0.234375 1.109375z" fill-rule="nonzero"/><path fill="#ffffff" d="m859.2381 525.7221l0 -12.53125l4.4375 0q1.359375 0 2.421875 0.46875q1.078125 0.46875 1.6875 1.375q0.625 0.890625 0.625 2.203125q0 1.234375 -0.5625 2.125q-0.5625 0.890625 -1.5625 1.359375q-0.984375 0.453125 -2.328125 0.453125l-2.578125 0l0 4.546875l-2.140625 0zm2.125 -6.234375l2.546875 0q1.09375 0 1.796875 -0.65625q0.703125 -0.65625 0.703125 -1.71875q0 -1.0625 -0.734375 -1.65625q-0.734375 -0.59375 -1.828125 -0.59375l-2.484375 0l0 4.625zm12.458374 6.40625q-1.296875 0 -2.28125 -0.546875q-0.984375 -0.546875 -1.53125 -1.5625q-0.546875 -1.03125 -0.546875 -2.453125q0 -1.375 0.5 -2.4375q0.5 -1.078125 1.4375 -1.6875q0.953125 -0.609375 2.296875 -0.609375q1.328125 0 2.21875 0.5625q0.90625 0.5625 1.375 1.578125q0.46875 1.0 0.46875 2.34375l0 0.640625l-6.1875 0q-0.015625 0.765625 0.234375 1.359375q0.25 0.59375 0.75 0.921875q0.5 0.328125 1.21875 0.328125q0.75 0 1.296875 -0.328125q0.546875 -0.328125 0.734375 -1.015625l1.921875 0q-0.15625 0.9375 -0.75 1.59375q-0.578125 0.640625 -1.421875 0.984375q-0.828125 0.328125 -1.734375 0.328125zm-2.265625 -5.46875l4.21875 0q0 -0.65625 -0.234375 -1.171875q-0.234375 -0.53125 -0.6875 -0.828125q-0.453125 -0.3125 -1.15625 -0.3125q-0.703125 0 -1.1875 0.34375q-0.46875 0.328125 -0.71875 0.859375q-0.234375 0.53125 -0.234375 1.109375zm8.224243 5.296875l0 -8.953125l2.015625 0l0 1.9375q0.21875 -0.671875 0.609375 -1.140625q0.40625 -0.46875 0.953125 -0.71875q0.546875 -0.25 1.1875 -0.25q0.15625 0 0.296875 0.015625q0.15625 0.015625 0.21875 0.0625l0 2.015625q-0.09375 -0.046875 -0.25 -0.0625q-0.140625 -0.015625 -0.25 -0.015625q-0.65625 -0.0625 -1.15625 0.046875q-0.5 0.109375 -0.84375 0.359375q-0.34375 0.234375 -0.515625 0.625q-0.171875 0.375 -0.171875 0.875l0 5.203125l-2.09375 0zm7.0058594 0l0 -8.953125l2.015625 0l0 8.953125l-2.015625 0zm-0.03125 -10.53125l0 -1.984375l2.078125 0l0 1.984375l-2.078125 0zm8.220703 10.703125q-1.28125 0 -2.234375 -0.546875q-0.953125 -0.546875 -1.484375 -1.578125q-0.515625 -1.03125 -0.515625 -2.484375q0 -1.40625 0.5 -2.453125q0.515625 -1.0625 1.46875 -1.640625q0.953125 -0.59375 2.28125 -0.59375q1.28125 0 2.21875 0.5625q0.953125 0.5625 1.46875 1.609375q0.515625 1.046875 0.515625 2.515625q0 1.359375 -0.5 2.40625q-0.484375 1.03125 -1.421875 1.625q-0.9375 0.578125 -2.296875 0.578125zm0.015625 -1.59375q0.71875 0 1.1875 -0.40625q0.484375 -0.40625 0.71875 -1.09375q0.234375 -0.6875 0.234375 -1.578125q0 -0.8125 -0.21875 -1.5q-0.203125 -0.703125 -0.671875 -1.125q-0.46875 -0.421875 -1.25 -0.421875q-0.734375 0 -1.21875 0.390625q-0.484375 0.375 -0.71875 1.078125q-0.234375 0.6875 -0.234375 1.578125q0 0.8125 0.203125 1.515625q0.21875 0.703125 0.6875 1.140625q0.484375 0.421875 1.28125 0.421875zm9.441345 1.59375q-1.765625 0 -2.78125 -1.21875q-1.015625 -1.21875 -1.015625 -3.46875q0 -1.40625 0.40625 -2.4375q0.421875 -1.046875 1.21875 -1.609375q0.8125 -0.5625 1.984375 -0.5625q0.5625 0 1.015625 0.140625q0.453125 0.125 0.796875 0.34375q0.359375 0.203125 0.609375 0.46875q0.25 0.265625 0.390625 0.515625l0 -5.21875l2.125 0l0 12.875l-1.5625 0l-0.234375 -1.84375q-0.109375 0.328125 -0.3125 0.6875q-0.203125 0.34375 -0.546875 0.65625q-0.34375 0.296875 -0.859375 0.484375q-0.515625 0.1875 -1.234375 0.1875zm0.4375 -1.546875q1.140625 0 1.65625 -0.734375q0.53125 -0.75 0.53125 -2.46875q-0.015625 -0.96875 -0.25 -1.640625q-0.21875 -0.671875 -0.6875 -1.0q-0.46875 -0.34375 -1.21875 -0.34375q-0.953125 0 -1.5625 0.703125q-0.609375 0.703125 -0.609375 2.28125q0 1.578125 0.5625 2.390625q0.5625 0.8125 1.578125 0.8125z" fill-rule="nonzero"/><path fill="#000000" fill-opacity="0.0" d="m833.5217 307.84064l545.7008 -39.307068" fill-rule="evenodd"/><path stroke="#004062" stroke-width="4.0" stroke-linejoin="round" stroke-linecap="butt" d="m833.5217 307.84067l521.76294 -37.582825" fill-rule="evenodd"/><path fill="#004062" stroke="#004062" stroke-width="4.0" stroke-linecap="butt" d="m1355.7593 276.8477l17.63086 -7.8940125l-18.5802 -5.2857056z" fill-rule="evenodd"/><path fill="#000000" fill-opacity="0.0" d="m828.24615 292.16873l287.81097 -95.62204" fill-rule="evenodd"/><path stroke="#004062" stroke-width="4.0" stroke-linejoin="round" stroke-linecap="butt" d="m828.24615 292.16873l265.03522 -88.05501" fill-rule="evenodd"/><path fill="#004062" stroke="#004062" stroke-width="4.0" stroke-linecap="butt" d="m1095.3644 210.38367l15.143433 -11.993271l-19.30957 -0.5466156z" fill-rule="evenodd"/><path fill="#000000" fill-opacity="0.0" d="m833.83673 320.53357l384.8819 39.46457" fill-rule="evenodd"/><path stroke="#004062" stroke-width="4.0" stroke-linejoin="round" stroke-linecap="butt" d="m833.8367 320.53357l361.00708 37.01651" fill-rule="evenodd"/><path fill="#004062" stroke="#004062" stroke-width="4.0" stroke-linecap="butt" d="m1194.1698 364.12253l18.73169 -4.720886l-17.38379 -8.424042z" fill-rule="evenodd"/><path fill="#000000" fill-opacity="0.0" d="m823.5615 359.177l263.11804 98.99213" fill-rule="evenodd"/><path stroke="#004062" stroke-width="4.0" stroke-linejoin="round" stroke-linecap="butt" d="m823.5615 359.177l240.65527 90.541016" fill-rule="evenodd"/><path fill="#004062" stroke="#004062" stroke-width="4.0" stroke-linecap="butt" d="m1061.8903 455.90176l19.316284 0.20825195l-14.663208 -12.575775z" fill-rule="evenodd"/><path fill="#000000" fill-opacity="0.0" d="m829.9854 345.00507l532.7559 113.165375" fill-rule="evenodd"/><path stroke="#004062" stroke-width="4.0" stroke-linejoin="round" stroke-linecap="butt" d="m829.9854 345.0051l509.27972 108.17862" fill-rule="evenodd"/><path fill="#004062" stroke="#004062" stroke-width="4.0" stroke-linecap="butt" d="m1337.8923 459.64648l19.129028 -2.6910706l-16.383545 -10.2344055z" fill-rule="evenodd"/><path fill="#000000" fill-opacity="0.0" d="m783.778 390.04443l49.35437 68.12601" fill-rule="evenodd"/><path stroke="#004062" stroke-width="4.0" stroke-linejoin="round" stroke-linecap="butt" d="m783.7781 390.04446l35.273987 48.690308" fill-rule="evenodd"/><path fill="#004062" stroke="#004062" stroke-width="4.0" stroke-linecap="butt" d="m813.70166 442.61093l16.000061 10.824005l-5.2991943 -18.576324z" fill-rule="evenodd"/><path fill="#8ee2e8" d="m921.58997 98.771095l0 0c0 -39.7645 32.235535 -72.0 72.0 -72.0l0 0c19.095642 0 37.409058 7.5856915 50.911743 21.088312c13.502563 13.502621 21.088257 31.816097 21.088257 50.911686l0 0c0 39.764503 -32.235474 72.00001 -72.0 72.00001l0 0c-39.764465 0 -72.0 -32.235504 -72.0 -72.00001z" fill-rule="evenodd"/><path stroke="#004062" stroke-width="1.0" stroke-linejoin="round" stroke-linecap="butt" d="m921.58997 98.771095l0 0c0 -39.7645 32.235535 -72.0 72.0 -72.0l0 0c19.095642 0 37.409058 7.5856915 50.911743 21.088312c13.502563 13.502621 21.088257 31.816097 21.088257 50.911686l0 0c0 39.764503 -32.235474 72.00001 -72.0 72.00001l0 0c-39.764465 0 -72.0 -32.235504 -72.0 -72.00001z" fill-rule="evenodd"/><path fill="#ffffff" d="m970.8513 94.411095l4.484375 -12.53125l2.296875 0l4.5 12.53125l-2.125 0l-1.109375 -3.140625l-4.796875 0l-1.125 3.140625l-2.125 0zm3.75 -5.015625l3.765625 0l-1.875 -5.46875l-1.890625 5.46875zm12.480286 5.1875q-0.9375 0 -1.78125 -0.296875q-0.828125 -0.296875 -1.390625 -0.9375q-0.5625 -0.640625 -0.71875 -1.65625l1.859375 0q0.125 0.484375 0.421875 0.796875q0.3125 0.3125 0.734375 0.46875q0.421875 0.140625 0.875 0.140625q0.796875 0 1.28125 -0.28125q0.5 -0.28125 0.5 -0.859375q0 -0.421875 -0.28125 -0.671875q-0.265625 -0.25 -0.875 -0.390625l-1.703125 -0.390625q-1.140625 -0.25 -1.828125 -0.828125q-0.671875 -0.578125 -0.6875 -1.640625q-0.015625 -0.796875 0.390625 -1.40625q0.421875 -0.625 1.21875 -0.984375q0.8125 -0.359375 1.984375 -0.359375q1.5625 0 2.515625 0.703125q0.953125 0.6875 0.984375 1.96875l-1.796875 0q-0.09375 -0.578125 -0.546875 -0.890625q-0.453125 -0.328125 -1.171875 -0.328125q-0.75 0 -1.234375 0.28125q-0.46875 0.28125 -0.46875 0.875q0 0.40625 0.359375 0.640625q0.359375 0.234375 1.09375 0.40625l1.625 0.390625q0.6875 0.171875 1.125 0.46875q0.453125 0.28125 0.6875 0.640625q0.25 0.34375 0.34375 0.71875q0.109375 0.359375 0.109375 0.671875q0 0.875 -0.453125 1.484375q-0.4375 0.609375 -1.25 0.9375q-0.8125 0.328125 -1.921875 0.328125zm8.924011 0q-0.9375 0 -1.78125 -0.296875q-0.828125 -0.296875 -1.390625 -0.9375q-0.5625 -0.640625 -0.71875 -1.65625l1.859375 0q0.125 0.484375 0.421875 0.796875q0.3125 0.3125 0.734375 0.46875q0.421875 0.140625 0.875 0.140625q0.796875 0 1.28125 -0.28125q0.5 -0.28125 0.5 -0.859375q0 -0.421875 -0.28125 -0.671875q-0.265625 -0.25 -0.875 -0.390625l-1.703125 -0.390625q-1.140625 -0.25 -1.828125 -0.828125q-0.671875 -0.578125 -0.6875 -1.640625q-0.015625 -0.796875 0.390625 -1.40625q0.421875 -0.625 1.21875 -0.984375q0.8125 -0.359375 1.984375 -0.359375q1.5625 0 2.515625 0.703125q0.953125 0.6875 0.984375 1.96875l-1.796875 0q-0.09375 -0.578125 -0.546875 -0.890625q-0.453125 -0.328125 -1.171875 -0.328125q-0.75 0 -1.234375 0.28125q-0.46875 0.28125 -0.46875 0.875q0 0.40625 0.359375 0.640625q0.359375 0.234375 1.09375 0.40625l1.625 0.390625q0.6875 0.171875 1.125 0.46875q0.453125 0.28125 0.6875 0.640625q0.25 0.34375 0.34375 0.71875q0.109375 0.359375 0.109375 0.671875q0 0.875 -0.453125 1.484375q-0.4375 0.609375 -1.25 0.9375q-0.8125 0.328125 -1.921875 0.328125zm9.498657 0q-1.296875 0 -2.28125 -0.546875q-0.984375 -0.546875 -1.53125 -1.5625q-0.546875 -1.03125 -0.546875 -2.453125q0 -1.375 0.5 -2.4375q0.5 -1.078125 1.4375 -1.6875q0.953125 -0.609375 2.296875 -0.609375q1.328125 0 2.21875 0.5625q0.90625 0.5625 1.375 1.578125q0.46875 1.0 0.46875 2.34375l0 0.640625l-6.1875 0q-0.015625 0.765625 0.234375 1.359375q0.25 0.59375 0.75 0.921875q0.5 0.328125 1.21875 0.328125q0.75 0 1.296875 -0.328125q0.546875 -0.328125 0.734375 -1.015625l1.921875 0q-0.15625 0.9375 -0.75 1.59375q-0.578125 0.640625 -1.421875 0.984375q-0.828125 0.328125 -1.734375 0.328125zm-2.265625 -5.46875l4.21875 0q0 -0.65625 -0.234375 -1.171875q-0.234375 -0.53125 -0.6875 -0.828125q-0.453125 -0.3125 -1.15625 -0.3125q-0.703125 0 -1.1875 0.34375q-0.46875 0.328125 -0.71875 0.859375q-0.234375 0.53125 -0.234375 1.109375zm11.4800415 5.359375q-1.078125 0 -1.65625 -0.28125q-0.578125 -0.28125 -0.8125 -0.796875q-0.21875 -0.515625 -0.21875 -1.234375l0 -5.21875l-1.453125 0l0 -1.484375l1.515625 0l0.515625 -2.671875l1.515625 0l0 2.65625l2.015625 0l0 1.5l-2.015625 0l0.015625 5.140625q0 0.390625 0.09375 0.578125q0.09375 0.1875 0.296875 0.25q0.203125 0.046875 0.53125 0.046875l1.109375 0l0 1.34375q-0.171875 0.0625 -0.53125 0.109375q-0.34375 0.0625 -0.921875 0.0625z" fill-rule="nonzero"/><path fill="#ffffff" d="m958.8073 115.411095l0 -12.53125l3.015625 0l3.28125 9.578125l3.328125 -9.578125l2.984375 0l0 12.53125l-2.140625 0l0 -9.828125l-3.296875 9.828125l-1.75 0l-3.28125 -9.765625l0 9.765625l-2.140625 0zm17.86969 0.171875q-0.859375 0 -1.546875 -0.3125q-0.671875 -0.3125 -1.0625 -0.90625q-0.375 -0.59375 -0.375 -1.453125q0 -1.484375 1.0625 -2.234375q1.078125 -0.75 3.421875 -0.78125l1.34375 -0.03125l0 -0.609375q0 -0.71875 -0.421875 -1.109375q-0.421875 -0.40625 -1.3125 -0.40625q-0.65625 0.015625 -1.203125 0.3125q-0.53125 0.296875 -0.703125 1.0l-1.78125 0q0.046875 -0.921875 0.515625 -1.53125q0.484375 -0.625 1.328125 -0.921875q0.84375 -0.3125 1.9375 -0.3125q1.28125 0 2.09375 0.34375q0.8125 0.328125 1.1875 0.96875q0.375 0.625 0.375 1.53125l0 6.28125l-1.765625 0l-0.171875 -1.609375q-0.484375 1.015625 -1.234375 1.40625q-0.734375 0.375 -1.6875 0.375zm0.6875 -1.421875q0.390625 0 0.765625 -0.140625q0.390625 -0.15625 0.6875 -0.390625q0.3125 -0.25 0.5 -0.546875q0.1875 -0.3125 0.203125 -0.640625l0 -1.421875l-1.109375 0.03125q-0.8125 0 -1.421875 0.171875q-0.609375 0.15625 -0.953125 0.515625q-0.328125 0.359375 -0.328125 0.953125q0 0.6875 0.46875 1.078125q0.484375 0.390625 1.1875 0.390625zm6.4382324 1.25l0 -8.953125l2.046875 0l0 1.28125q0.21875 -0.34375 0.578125 -0.671875q0.359375 -0.328125 0.875 -0.515625q0.53125 -0.203125 1.25 -0.203125q0.828125 0 1.546875 0.328125q0.71875 0.328125 1.15625 1.03125q0.4375 0.703125 0.4375 1.8125l0 5.890625l-2.125 0l0 -5.640625q0 -0.890625 -0.484375 -1.3125q-0.484375 -0.421875 -1.21875 -0.421875q-0.5 0 -0.953125 0.171875q-0.453125 0.15625 -0.734375 0.5q-0.28125 0.34375 -0.28125 0.859375l0 5.84375l-2.09375 0zm12.680481 0.171875q-0.859375 0 -1.546875 -0.3125q-0.671875 -0.3125 -1.0625 -0.90625q-0.375 -0.59375 -0.375 -1.453125q0 -1.484375 1.0625 -2.234375q1.078125 -0.75 3.421875 -0.78125l1.34375 -0.03125l0 -0.609375q0 -0.71875 -0.421875 -1.109375q-0.421875 -0.40625 -1.3125 -0.40625q-0.65625 0.015625 -1.203125 0.3125q-0.53125 0.296875 -0.703125 1.0l-1.78125 0q0.046875 -0.921875 0.515625 -1.53125q0.484375 -0.625 1.328125 -0.921875q0.84375 -0.3125 1.9375 -0.3125q1.28125 0 2.09375 0.34375q0.8125 0.328125 1.1875 0.96875q0.375 0.625 0.375 1.53125l0 6.28125l-1.765625 0l-0.171875 -1.609375q-0.484375 1.015625 -1.234375 1.40625q-0.734375 0.375 -1.6875 0.375zm0.6875 -1.421875q0.390625 0 0.765625 -0.140625q0.390625 -0.15625 0.6875 -0.390625q0.3125 -0.25 0.5 -0.546875q0.1875 -0.3125 0.203125 -0.640625l0 -1.421875l-1.109375 0.03125q-0.8125 0 -1.421875 0.171875q-0.609375 0.15625 -0.953125 0.515625q-0.328125 0.359375 -0.328125 0.953125q0 0.6875 0.46875 1.078125q0.484375 0.390625 1.1875 0.390625zm10.422546 4.21875q-2.265625 0 -3.484375 -0.609375q-1.203125 -0.609375 -1.203125 -1.671875q0 -0.46875 0.234375 -0.78125q0.234375 -0.328125 0.546875 -0.53125q0.328125 -0.21875 0.59375 -0.328125q0.265625 -0.109375 0.34375 -0.171875q-0.140625 -0.078125 -0.390625 -0.21875q-0.25 -0.140625 -0.4375 -0.375q-0.1875 -0.25 -0.1875 -0.640625q0 -0.453125 0.421875 -0.828125q0.421875 -0.375 1.28125 -0.546875q-0.828125 -0.40625 -1.28125 -1.09375q-0.453125 -0.703125 -0.453125 -1.4375q0 -0.890625 0.515625 -1.515625q0.515625 -0.640625 1.421875 -0.96875q0.921875 -0.34375 2.15625 -0.34375q0.890625 0 1.484375 0.203125q0.59375 0.1875 1.09375 0.53125q0.171875 -0.078125 0.484375 -0.203125q0.3125 -0.125 0.6875 -0.265625q0.375 -0.15625 0.71875 -0.296875q0.34375 -0.140625 0.578125 -0.234375l0 1.734375l-1.546875 0.28125q0.109375 0.25 0.171875 0.546875q0.0625 0.296875 0.0625 0.515625q0 0.78125 -0.4375 1.453125q-0.4375 0.65625 -1.3125 1.0625q-0.859375 0.390625 -2.171875 0.390625q-0.125 0 -0.359375 0q-0.21875 -0.015625 -0.359375 -0.03125q-0.6875 0.03125 -0.953125 0.171875q-0.265625 0.125 -0.265625 0.296875q0 0.234375 0.390625 0.3125q0.390625 0.078125 1.25 0.140625q0.296875 0.015625 0.796875 0.046875q0.5 0.015625 1.109375 0.0625q1.53125 0.09375 2.3125 0.765625q0.796875 0.671875 0.796875 1.734375q0 1.25 -1.15625 2.046875q-1.140625 0.796875 -3.453125 0.796875zm0.34375 -1.25q1.140625 0 1.6875 -0.3125q0.546875 -0.3125 0.546875 -0.90625q0 -0.46875 -0.375 -0.765625q-0.375 -0.296875 -1.109375 -0.34375l-2.265625 -0.140625q-0.375 -0.03125 -0.703125 0.140625q-0.328125 0.15625 -0.546875 0.4375q-0.203125 0.28125 -0.203125 0.609375q0 0.640625 0.71875 0.953125q0.734375 0.328125 2.25 0.328125zm-0.375 -6.34375q0.828125 0 1.328125 -0.40625q0.515625 -0.421875 0.515625 -1.203125q0 -0.796875 -0.515625 -1.234375q-0.5 -0.453125 -1.328125 -0.453125q-0.84375 0 -1.359375 0.453125q-0.515625 0.453125 -0.515625 1.234375q0 0.75 0.484375 1.1875q0.5 0.421875 1.390625 0.421875zm10.596191 4.796875q-1.296875 0 -2.28125 -0.546875q-0.984375 -0.546875 -1.53125 -1.5625q-0.546875 -1.03125 -0.546875 -2.453125q0 -1.375 0.5 -2.4375q0.5 -1.078125 1.4375 -1.6875q0.953125 -0.609375 2.296875 -0.609375q1.328125 0 2.21875 0.5625q0.90625 0.5625 1.375 1.578125q0.46875 1.0 0.46875 2.34375l0 0.640625l-6.1875 0q-0.015625 0.765625 0.234375 1.359375q0.25 0.59375 0.75 0.921875q0.5 0.328125 1.21875 0.328125q0.75 0 1.296875 -0.328125q0.546875 -0.328125 0.734375 -1.015625l1.921875 0q-0.15625 0.9375 -0.75 1.59375q-0.578125 0.640625 -1.421875 0.984375q-0.828125 0.328125 -1.734375 0.328125zm-2.265625 -5.46875l4.21875 0q0 -0.65625 -0.234375 -1.171875q-0.234375 -0.53125 -0.6875 -0.828125q-0.453125 -0.3125 -1.15625 -0.3125q-0.703125 0 -1.1875 0.34375q-0.46875 0.328125 -0.71875 0.859375q-0.234375 0.53125 -0.234375 1.109375zm8.224243 5.296875l0 -8.953125l2.015625 0l0 1.9375q0.21875 -0.671875 0.609375 -1.140625q0.40625 -0.46875 0.953125 -0.71875q0.546875 -0.25 1.1875 -0.25q0.15625 0 0.296875 0.015625q0.15625 0.015625 0.21875 0.0625l0 2.015625q-0.09375 -0.046875 -0.25 -0.0625q-0.140625 -0.015625 -0.25 -0.015625q-0.65625 -0.0625 -1.15625 0.046875q-0.5 0.109375 -0.84375 0.359375q-0.34375 0.234375 -0.515625 0.625q-0.171875 0.375 -0.171875 0.875l0 5.203125l-2.09375 0z" fill-rule="nonzero"/><path fill="#000000" fill-opacity="0.0" d="m799.0563 261.6828l143.62201 -112.000015" fill-rule="evenodd"/><path stroke="#004062" stroke-width="4.0" stroke-linejoin="round" stroke-linecap="butt" d="m817.98193 246.92409l124.69635 -97.2413" fill-rule="evenodd"/><path fill="#004062" stroke="#004062" stroke-width="4.0" stroke-linecap="butt" d="m813.919 241.71407l-10.251465 16.372757l18.37732 -5.952713z" fill-rule="evenodd"/><path fill="#d33300" d="m1229.0126 83.1333l0 0c0 -39.7645 32.235474 -72.0 72.0 -72.0l0 0c19.095581 0 37.409058 7.5856924 50.911743 21.088314c13.502563 13.502617 21.088257 31.816097 21.088257 50.911686l0 0c0 39.764503 -32.235474 72.0 -72.0 72.0l0 0c-39.764526 0 -72.0 -32.235497 -72.0 -72.0z" fill-rule="evenodd"/><path stroke="#004062" stroke-width="1.0" stroke-linejoin="round" stroke-linecap="butt" d="m1229.0126 83.1333l0 0c0 -39.7645 32.235474 -72.0 72.0 -72.0l0 0c19.095581 0 37.409058 7.5856924 50.911743 21.088314c13.502563 13.502617 21.088257 31.816097 21.088257 50.911686l0 0c0 39.764503 -32.235474 72.0 -72.0 72.0l0 0c-39.764526 0 -72.0 -32.235497 -72.0 -72.0z" fill-rule="evenodd"/><path fill="#ffffff" d="m1272.5352 88.9933l0 -11.5625l4.09375 0q1.25 0 2.234375 0.421875q1.0 0.421875 1.5625 1.265625q0.5625 0.828125 0.5625 2.046875q0 1.140625 -0.515625 1.953125q-0.515625 0.8125 -1.4375 1.25q-0.921875 0.4375 -2.140625 0.4375l-2.390625 0l0 4.1875l-1.96875 0zm1.953125 -5.75l2.359375 0q1.015625 0 1.65625 -0.609375q0.640625 -0.609375 0.640625 -1.578125q0 -1.0 -0.671875 -1.546875q-0.671875 -0.546875 -1.6875 -0.546875l-2.296875 0l0 4.28125zm8.069946 5.75l0 -8.265625l1.859375 0l0 1.78125q0.203125 -0.609375 0.5625 -1.046875q0.375 -0.4375 0.875 -0.671875q0.515625 -0.234375 1.109375 -0.234375q0.140625 0 0.265625 0.015625q0.140625 0.015625 0.203125 0.0625l0 1.859375q-0.078125 -0.03125 -0.21875 -0.046875q-0.140625 -0.015625 -0.25 -0.015625q-0.59375 -0.046875 -1.0625 0.046875q-0.453125 0.09375 -0.765625 0.328125q-0.3125 0.21875 -0.484375 0.578125q-0.15625 0.34375 -0.15625 0.796875l0 4.8125l-1.9375 0zm9.83667 0.15625q-1.1875 0 -2.078125 -0.5q-0.875 -0.515625 -1.359375 -1.46875q-0.484375 -0.953125 -0.484375 -2.28125q0 -1.296875 0.46875 -2.265625q0.484375 -0.984375 1.359375 -1.53125q0.875 -0.546875 2.09375 -0.546875q1.1875 0 2.0625 0.53125q0.875 0.515625 1.34375 1.484375q0.484375 0.96875 0.484375 2.328125q0 1.25 -0.453125 2.21875q-0.453125 0.953125 -1.328125 1.5q-0.859375 0.53125 -2.109375 0.53125zm0 -1.46875q0.671875 0 1.109375 -0.375q0.4375 -0.375 0.65625 -1.015625q0.21875 -0.640625 0.21875 -1.453125q0 -0.75 -0.203125 -1.390625q-0.1875 -0.640625 -0.625 -1.03125q-0.4375 -0.390625 -1.15625 -0.390625q-0.671875 0 -1.125 0.359375q-0.4375 0.359375 -0.65625 1.0q-0.21875 0.625 -0.21875 1.453125q0 0.75 0.1875 1.40625q0.203125 0.640625 0.640625 1.046875q0.4375 0.390625 1.171875 0.390625zm8.729614 1.46875q-1.640625 0 -2.578125 -1.125q-0.9375 -1.125 -0.9375 -3.203125q0 -1.296875 0.375 -2.25q0.390625 -0.96875 1.125 -1.484375q0.75 -0.53125 1.84375 -0.53125q0.515625 0 0.9375 0.125q0.421875 0.125 0.75 0.328125q0.328125 0.203125 0.546875 0.453125q0.234375 0.234375 0.359375 0.46875l0 -4.828125l1.953125 0l0 11.890625l-1.4375 0l-0.21875 -1.703125q-0.09375 0.296875 -0.28125 0.625q-0.1875 0.328125 -0.515625 0.609375q-0.3125 0.28125 -0.78125 0.453125q-0.46875 0.171875 -1.140625 0.171875zm0.40625 -1.421875q1.046875 0 1.53125 -0.6875q0.484375 -0.6875 0.484375 -2.265625q-0.015625 -0.90625 -0.234375 -1.515625q-0.203125 -0.625 -0.640625 -0.9375q-0.421875 -0.3125 -1.125 -0.3125q-0.875 0 -1.4375 0.65625q-0.5625 0.640625 -0.5625 2.109375q0 1.453125 0.515625 2.203125q0.515625 0.75 1.46875 0.75zm9.210327 1.421875q-0.609375 0 -1.171875 -0.171875q-0.5625 -0.1875 -1.015625 -0.53125q-0.4375 -0.34375 -0.703125 -0.859375q-0.265625 -0.515625 -0.265625 -1.1875l0 -5.671875l1.953125 0l0 5.4375q0 0.671875 0.421875 1.109375q0.4375 0.4375 1.296875 0.4375q0.78125 0 1.25 -0.40625q0.484375 -0.421875 0.484375 -1.203125l0 -5.375l1.921875 0l0 8.265625l-1.484375 0l-0.21875 -1.609375q-0.15625 0.671875 -0.53125 1.0625q-0.375 0.390625 -0.890625 0.546875q-0.5 0.15625 -1.046875 0.15625zm9.853394 0q-1.140625 0 -2.03125 -0.5q-0.875 -0.5 -1.390625 -1.453125q-0.5 -0.953125 -0.5 -2.3125q0 -1.28125 0.46875 -2.25q0.484375 -0.96875 1.359375 -1.515625q0.890625 -0.5625 2.09375 -0.5625q0.96875 0 1.703125 0.390625q0.734375 0.390625 1.171875 1.078125q0.453125 0.671875 0.53125 1.53125l-1.65625 0q-0.0625 -0.375 -0.28125 -0.71875q-0.203125 -0.34375 -0.578125 -0.546875q-0.359375 -0.21875 -0.875 -0.21875q-0.9375 0 -1.515625 0.6875q-0.578125 0.6875 -0.578125 2.109375q0 1.3125 0.546875 2.09375q0.546875 0.78125 1.578125 0.78125q0.515625 0 0.875 -0.234375q0.375 -0.234375 0.578125 -0.5625q0.21875 -0.34375 0.28125 -0.6875l1.609375 0q-0.078125 0.84375 -0.53125 1.5q-0.4375 0.65625 -1.171875 1.03125q-0.734375 0.359375 -1.6875 0.359375zm8.259644 -0.09375q-0.984375 0 -1.53125 -0.25q-0.53125 -0.265625 -0.75 -0.75q-0.203125 -0.484375 -0.203125 -1.140625l0 -4.8125l-1.34375 0l0 -1.375l1.40625 0l0.484375 -2.46875l1.40625 0l0 2.453125l1.84375 0l0 1.390625l-1.84375 0l0 4.734375q0 0.375 0.078125 0.546875q0.09375 0.171875 0.28125 0.21875q0.1875 0.046875 0.5 0.046875l1.03125 0l0 1.234375q-0.171875 0.0625 -0.5 0.109375q-0.328125 0.0625 -0.859375 0.0625z" fill-rule="nonzero"/><path fill="#000000" fill-opacity="0.0" d="m818.05194 275.70023l410.96063 -192.56693" fill-rule="evenodd"/><path stroke="#004062" stroke-width="4.0" stroke-linejoin="round" stroke-linecap="butt" d="m818.05194 275.70023l389.2282 -182.38358" fill-rule="evenodd"/><path fill="#004062" stroke="#004062" stroke-width="4.0" stroke-linecap="butt" d="m1210.0835 99.29935l13.633911 -13.684868l-19.240723 1.7194672z" fill-rule="evenodd"/><path fill="#000000" fill-opacity="0.0" d="m714.7265 32.381332l174.55115 0l0 37.039368l-174.55115 0z" fill-rule="evenodd"/><path fill="#000000" d="m733.8984 69.83821q-1.578125 0 -3.03125 -0.390625q-1.453125 -0.390625 -2.65625 -1.15625q-1.1875 -0.78125 -1.96875 -1.921875q-0.765625 -1.15625 -0.953125 -2.6875038l3.703125 0q0.234375 1.0625038 0.921875 1.7968788q0.703125 0.734375 1.765625 1.125q1.078125 0.375 2.40625 0.375q1.171875 0 2.171875 -0.34375q1.015625 -0.359375 1.640625 -1.046875q0.640625 -0.703125 0.640625 -1.7343788q0 -1.15625 -0.8125 -1.8125q-0.8125 -0.65625 -2.328125 -1.03125l-4.15625 -0.984375q-1.609375 -0.375 -2.8125 -1.078125q-1.1875 -0.703125 -1.84375 -1.84375q-0.65625 -1.15625 -0.65625 -2.828125q0 -1.90625 1.046875 -3.296875q1.046875 -1.390625 2.84375 -2.140625q1.8125 -0.765625 4.0625 -0.765625q2.59375 0 4.359375 0.859375q1.78125 0.859375 2.703125 2.296875q0.921875 1.4375 0.9375 3.15625l-3.609375 0q-0.125 -1.28125 -0.75 -2.015625q-0.625 -0.75 -1.59375 -1.078125q-0.96875 -0.34375 -2.140625 -0.34375q-2.078125 0 -3.09375 0.890625q-1.015625 0.890625 -1.015625 2.09375q0 1.140625 0.75 1.796875q0.75 0.65625 2.28125 1.03125l3.953125 0.921875q1.96875 0.40625 3.171875 1.265625q1.203125 0.84375 1.75 2.015625q0.5625 1.15625 0.5625 2.5625q0 1.8437538 -1.046875 3.2812538q-1.046875 1.421875 -2.90625 2.234375q-1.84375 0.796875 -4.296875 0.796875zm17.440735 -0.171875q-1.796875 0 -2.796875 -0.46875q-0.984375 -0.484375 -1.375 -1.359375q-0.375 -0.890625 -0.375 -2.109375l0 -8.828129l-2.46875 0l0 -2.515625l2.578125 0l0.890625 -4.515625l2.5625 0l0 4.5l3.390625 0l0 2.53125l-3.390625 0l0.015625 8.703129q0 0.671875 0.15625 0.984375q0.15625 0.3125 0.5 0.40625q0.34375 0.09375 0.90625 0.09375l1.890625 0l0 2.265625q-0.3125 0.109375 -0.90625 0.203125q-0.59375 0.109375 -1.578125 0.109375zm5.770508 -0.125l0 -15.156254l3.40625 0l0 3.28125q0.375 -1.125 1.046875 -1.921875q0.6875 -0.8125 1.609375 -1.234375q0.921875 -0.421875 2.015625 -0.421875q0.265625 0 0.5 0.03125q0.25 0.03125 0.375 0.09375l0 3.421875q-0.15625 -0.078125 -0.421875 -0.109375q-0.25 -0.03125 -0.4375 -0.03125q-1.109375 -0.078125 -1.953125 0.09375q-0.84375 0.171875 -1.421875 0.59375q-0.578125 0.421875 -0.875 1.0625q-0.28125 0.640625 -0.28125 1.484375l0 8.812504l-3.5625 0zm17.367188 0.296875q-1.109375 0 -2.15625 -0.328125q-1.03125 -0.328125 -1.859375 -0.96875q-0.8125 -0.640625 -1.296875 -1.578125q-0.484375 -0.9375 -0.484375 -2.1875l0 -10.390629l3.578125 0l0 9.984379q0 1.234375 0.78125 2.03125q0.796875 0.78125 2.375 0.78125q1.4375 0 2.296875 -0.75q0.875 -0.765625 0.875 -2.1875l0 -9.859379l3.546875 0l0 15.156254l-2.734375 0l-0.40625 -2.96875q-0.28125 1.25 -0.984375 1.96875q-0.6875 0.703125 -1.625 1.0q-0.921875 0.296875 -1.90625 0.296875zm18.05658 0q-2.078125 0 -3.703125 -0.921875q-1.625 -0.921875 -2.546875 -2.671875q-0.921875 -1.75 -0.921875 -4.218754q0 -2.375 0.875 -4.15625q0.875 -1.78125 2.46875 -2.78125q1.609375 -1.0 3.828125 -1.0q1.765625 0 3.109375 0.703125q1.359375 0.703125 2.171875 1.953125q0.8125 1.234375 0.984375 2.828125l-3.046875 0q-0.109375 -0.6875 -0.515625 -1.3125q-0.390625 -0.625 -1.0625 -1.015625q-0.65625 -0.390625 -1.609375 -0.390625q-1.71875 0 -2.78125 1.265625q-1.046875 1.265625 -1.046875 3.875q0 2.4062538 1.0 3.8281288q1.0 1.421875 2.875 1.421875q0.953125 0 1.625 -0.421875q0.671875 -0.421875 1.0625 -1.046875q0.390625 -0.625 0.484375 -1.25l2.96875 0q-0.140625 1.546875 -0.96875 2.75q-0.8125 1.1875 -2.15625 1.875q-1.34375 0.6875 -3.09375 0.6875zm15.145386 -0.171875q-1.796875 0 -2.796875 -0.46875q-0.984375 -0.484375 -1.375 -1.359375q-0.375 -0.890625 -0.375 -2.109375l0 -8.828129l-2.46875 0l0 -2.515625l2.578125 0l0.890625 -4.515625l2.5625 0l0 4.5l3.390625 0l0 2.53125l-3.390625 0l0.015625 8.703129q0 0.671875 0.15625 0.984375q0.15625 0.3125 0.5 0.40625q0.34375 0.09375 0.90625 0.09375l1.890625 0l0 2.265625q-0.3125 0.109375 -0.90625 0.203125q-0.59375 0.109375 -1.578125 0.109375zm11.18634 0.171875q-1.109375 0 -2.15625 -0.328125q-1.03125 -0.328125 -1.859375 -0.96875q-0.8125 -0.640625 -1.296875 -1.578125q-0.484375 -0.9375 -0.484375 -2.1875l0 -10.390629l3.578125 0l0 9.984379q0 1.234375 0.78125 2.03125q0.796875 0.78125 2.375 0.78125q1.4375 0 2.296875 -0.75q0.875 -0.765625 0.875 -2.1875l0 -9.859379l3.546875 0l0 15.156254l-2.734375 0l-0.40625 -2.96875q-0.28125 1.25 -0.984375 1.96875q-0.6875 0.703125 -1.625 1.0q-0.921875 0.296875 -1.90625 0.296875zm11.829224 -0.296875l0 -15.156254l3.40625 0l0 3.28125q0.375 -1.125 1.046875 -1.921875q0.6875 -0.8125 1.609375 -1.234375q0.921875 -0.421875 2.015625 -0.421875q0.265625 0 0.5 0.03125q0.25 0.03125 0.375 0.09375l0 3.421875q-0.15625 -0.078125 -0.421875 -0.109375q-0.25 -0.03125 -0.4375 -0.03125q-1.109375 -0.078125 -1.953125 0.09375q-0.84375 0.171875 -1.421875 0.59375q-0.578125 0.421875 -0.875 1.0625q-0.28125 0.640625 -0.28125 1.484375l0 8.812504l-3.5625 0zm18.360168 0.296875q-2.171875 0 -3.84375 -0.921875q-1.65625 -0.9375 -2.59375 -2.671875q-0.9375 -1.734375 -0.9375 -4.125004q0 -2.328125 0.84375 -4.140625q0.84375 -1.8125 2.453125 -2.84375q1.609375 -1.046875 3.875 -1.046875q2.25 0 3.765625 0.953125q1.53125 0.953125 2.3125 2.65625q0.796875 1.703125 0.796875 4.0l0 1.078125l-10.484375 0q-0.015625 1.2968788 0.40625 2.2968788q0.4375 1.0 1.265625 1.5625q0.84375 0.5625 2.078125 0.5625q1.25 0 2.1875 -0.5625q0.9375 -0.5625 1.234375 -1.734375l3.265625 0q-0.265625 1.59375 -1.265625 2.703125q-0.984375 1.09375 -2.40625 1.671875q-1.40625 0.5625 -2.953125 0.5625zm-3.828125 -9.265629l7.140625 0q0 -1.109375 -0.390625 -1.984375q-0.390625 -0.890625 -1.171875 -1.40625q-0.78125 -0.53125 -1.96875 -0.53125q-1.171875 0 -1.984375 0.578125q-0.796875 0.5625 -1.21875 1.46875q-0.40625 0.90625 -0.40625 1.875zm19.541443 9.265629q-3.0 0 -4.71875 -2.0625q-1.71875 -2.078125 -1.71875 -5.890629q0 -2.375 0.6875 -4.125q0.703125 -1.75 2.0625 -2.703125q1.375 -0.96875 3.359375 -0.96875q0.9375 0 1.703125 0.234375q0.78125 0.21875 1.375 0.59375q0.609375 0.359375 1.015625 0.796875q0.421875 0.4375 0.65625 0.875l0 -8.84375l3.59375 0l0 21.796879l-2.640625 0l-0.390625 -3.109375q-0.1875 0.546875 -0.53125 1.140625q-0.34375 0.59375 -0.921875 1.109375q-0.578125 0.5 -1.453125 0.828125q-0.859375 0.328125 -2.078125 0.328125zm0.734375 -2.625q1.921875 0 2.796875 -1.25q0.890625 -1.265625 0.890625 -4.171879q-0.015625 -1.65625 -0.40625 -2.78125q-0.375 -1.125 -1.171875 -1.6875q-0.796875 -0.578125 -2.0625 -0.578125q-1.625 0 -2.65625 1.1875q-1.03125 1.1875 -1.03125 3.859375q0 2.6718788 0.953125 4.046879q0.953125 1.375 2.6875 1.375z" fill-rule="nonzero"/><path fill="#000000" fill-opacity="0.0" d="m39.033566 155.13461l209.5433 0l0 37.039368l-209.5433 0z" fill-rule="evenodd"/><path fill="#000000" d="m58.73669 192.59149q-2.9375 0 -4.734375 -0.96875q-1.796875 -0.984375 -2.609375 -2.828125q-0.796875 -1.84375 -0.796875 -4.453125l0 -13.25l3.65625 0l0 13.625q0 2.453125 1.203125 3.640625q1.21875 1.171875 3.28125 1.171875q1.390625 0 2.421875 -0.515625q1.03125 -0.515625 1.578125 -1.578125q0.5625 -1.0625 0.5625 -2.71875l0 -13.625l3.6093712 0l0 13.453125q0 2.53125 -0.828125 4.328125q-0.8125 1.796875 -2.6093712 2.765625q-1.796875 0.953125 -4.734375 0.953125zm12.253902 -0.296875l0 -15.15625l3.484375 0l0 2.15625q0.34375 -0.578125 0.953125 -1.125q0.609375 -0.546875 1.5 -0.875q0.90625 -0.34375 2.109375 -0.34375q1.40625 0 2.609375 0.5625q1.21875 0.5625 1.953125 1.75q0.734375 1.1875 0.734375 3.0625l0 9.96875l-3.578125 0l0 -9.546875q0 -1.5 -0.828125 -2.21875q-0.8125 -0.734375 -2.046875 -0.734375q-0.859375 0 -1.625 0.296875q-0.75 0.28125 -1.234375 0.859375q-0.46875 0.578125 -0.46875 1.453125l0 9.890625l-3.5625 0zm22.82196 0.296875q-1.578125 0 -3.0 -0.5q-1.40625 -0.515625 -2.375 -1.59375q-0.953125 -1.09375 -1.203125 -2.8125l3.140625 0q0.203125 0.84375 0.71875 1.375q0.515625 0.515625 1.21875 0.765625q0.71875 0.234375 1.484375 0.234375q1.375 0 2.203125 -0.46875q0.828125 -0.46875 0.828125 -1.453125q0 -0.71875 -0.46875 -1.140625q-0.453125 -0.421875 -1.484375 -0.640625l-2.875 -0.65625q-1.9375 -0.4375 -3.09375 -1.40625q-1.15625 -0.984375 -1.171875 -2.78125q-0.015625 -1.34375 0.671875 -2.390625q0.6875 -1.0625 2.046875 -1.671875q1.375 -0.609375 3.359375 -0.609375q2.65625 0 4.265625 1.1875q1.609375 1.171875 1.640625 3.359375l-3.03125 0q-0.15625 -0.984375 -0.921875 -1.53125q-0.765625 -0.5625 -1.984375 -0.5625q-1.25 0 -2.0625 0.484375q-0.8125 0.484375 -0.8125 1.484375q0 0.6875 0.609375 1.09375q0.609375 0.390625 1.859375 0.671875l2.734375 0.65625q1.171875 0.296875 1.90625 0.796875q0.75 0.5 1.171875 1.09375q0.421875 0.59375 0.578125 1.21875q0.171875 0.609375 0.171875 1.140625q0 1.46875 -0.75 2.5q-0.75 1.03125 -2.125 1.59375q-1.375 0.5625 -3.25 0.5625zm15.26799 -0.171875q-1.796875 0 -2.796875 -0.46875q-0.984375 -0.484375 -1.375 -1.359375q-0.375 -0.890625 -0.375 -2.109375l0 -8.828125l-2.46875 0l0 -2.515625l2.578125 0l0.890625 -4.515625l2.5625 0l0 4.5l3.390625 0l0 2.53125l-3.390625 0l0.015625 8.703125q0 0.671875 0.15625 0.984375q0.15625 0.3125 0.5 0.40625q0.34375 0.09375 0.90625 0.09375l1.890625 0l0 2.265625q-0.3125 0.109375 -0.90625 0.203125q-0.59375 0.109375 -1.578125 0.109375zm5.770523 -0.125l0 -15.15625l3.40625 0l0 3.28125q0.375 -1.125 1.046875 -1.921875q0.6875 -0.8125 1.609375 -1.234375q0.921875 -0.421875 2.015625 -0.421875q0.265625 0 0.5 0.03125q0.25 0.03125 0.375 0.09375l0 3.421875q-0.15625 -0.078125 -0.421875 -0.109375q-0.25 -0.03125 -0.4375 -0.03125q-1.109375 -0.078125 -1.953125 0.09375q-0.84375 0.171875 -1.421875 0.59375q-0.578125 0.421875 -0.875 1.0625q-0.28125 0.640625 -0.28125 1.484375l0 8.8125l-3.5625 0zm17.367165 0.296875q-1.109375 0 -2.15625 -0.328125q-1.03125 -0.328125 -1.859375 -0.96875q-0.8125076 -0.640625 -1.2968826 -1.578125q-0.484375 -0.9375 -0.484375 -2.1875l0 -10.390625l3.5781326 0l0 9.984375q0 1.234375 0.78125 2.03125q0.796875 0.78125 2.375 0.78125q1.4375 0 2.296875 -0.75q0.875 -0.765625 0.875 -2.1875l0 -9.859375l3.546875 0l0 15.15625l-2.734375 0l-0.40625 -2.96875q-0.28125 1.25 -0.984375 1.96875q-0.6875 0.703125 -1.625 1.0q-0.921875 0.296875 -1.90625 0.296875zm18.05661 0q-2.078125 0 -3.703125 -0.921875q-1.625 -0.921875 -2.546875 -2.671875q-0.921875 -1.75 -0.921875 -4.21875q0 -2.375 0.875 -4.15625q0.875 -1.78125 2.46875 -2.78125q1.609375 -1.0 3.828125 -1.0q1.765625 0 3.109375 0.703125q1.359375 0.703125 2.171875 1.953125q0.8125 1.234375 0.984375 2.828125l-3.046875 0q-0.109375 -0.6875 -0.515625 -1.3125q-0.390625 -0.625 -1.0625 -1.015625q-0.65625 -0.390625 -1.609375 -0.390625q-1.71875 0 -2.78125 1.265625q-1.046875 1.265625 -1.046875 3.875q0 2.40625 1.0 3.828125q1.0 1.421875 2.875 1.421875q0.953125 0 1.625 -0.421875q0.671875 -0.421875 1.0625 -1.046875q0.390625 -0.625 0.484375 -1.25l2.96875 0q-0.140625 1.546875 -0.96875 2.75q-0.8125 1.1875 -2.15625 1.875q-1.34375 0.6875 -3.09375 0.6875zm15.145355 -0.171875q-1.796875 0 -2.796875 -0.46875q-0.984375 -0.484375 -1.375 -1.359375q-0.375 -0.890625 -0.375 -2.109375l0 -8.828125l-2.46875 0l0 -2.515625l2.578125 0l0.890625 -4.515625l2.5625 0l0 4.5l3.390625 0l0 2.53125l-3.390625 0l0.015625 8.703125q0 0.671875 0.15625 0.984375q0.15625 0.3125 0.5 0.40625q0.34375 0.09375 0.90625 0.09375l1.890625 0l0 2.265625q-0.3125 0.109375 -0.90625 0.203125q-0.59375 0.109375 -1.578125 0.109375zm11.186356 0.171875q-1.109375 0 -2.15625 -0.328125q-1.03125 -0.328125 -1.859375 -0.96875q-0.8125 -0.640625 -1.296875 -1.578125q-0.484375 -0.9375 -0.484375 -2.1875l0 -10.390625l3.578125 0l0 9.984375q0 1.234375 0.78125 2.03125q0.796875 0.78125 2.375 0.78125q1.4375 0 2.296875 -0.75q0.875 -0.765625 0.875 -2.1875l0 -9.859375l3.546875 0l0 15.15625l-2.734375 0l-0.40625 -2.96875q-0.28125 1.25 -0.984375 1.96875q-0.6875 0.703125 -1.625 1.0q-0.921875 0.296875 -1.90625 0.296875zm11.829239 -0.296875l0 -15.15625l3.40625 0l0 3.28125q0.375 -1.125 1.046875 -1.921875q0.6875 -0.8125 1.609375 -1.234375q0.921875 -0.421875 2.015625 -0.421875q0.265625 0 0.5 0.03125q0.25 0.03125 0.375 0.09375l0 3.421875q-0.15625 -0.078125 -0.421875 -0.109375q-0.25 -0.03125 -0.4375 -0.03125q-1.109375 -0.078125 -1.953125 0.09375q-0.84375 0.171875 -1.421875 0.59375q-0.578125 0.421875 -0.875 1.0625q-0.28125 0.640625 -0.28125 1.484375l0 8.8125l-3.5625 0zm18.360153 0.296875q-2.171875 0 -3.84375 -0.921875q-1.65625 -0.9375 -2.59375 -2.671875q-0.9375 -1.734375 -0.9375 -4.125q0 -2.328125 0.84375 -4.140625q0.84375 -1.8125 2.453125 -2.84375q1.609375 -1.046875 3.875 -1.046875q2.25 0 3.765625 0.953125q1.53125 0.953125 2.3125 2.65625q0.796875 1.703125 0.796875 4.0l0 1.078125l-10.484375 0q-0.015625 1.296875 0.40625 2.296875q0.4375 1.0 1.265625 1.5625q0.84375 0.5625 2.078125 0.5625q1.25 0 2.1875 -0.5625q0.9375 -0.5625 1.234375 -1.734375l3.265625 0q-0.265625 1.59375 -1.265625 2.703125q-0.984375 1.09375 -2.40625 1.671875q-1.40625 0.5625 -2.953125 0.5625zm-3.828125 -9.265625l7.140625 0q0 -1.109375 -0.390625 -1.984375q-0.390625 -0.890625 -1.171875 -1.40625q-0.78125 -0.53125 -1.96875 -0.53125q-1.171875 0 -1.984375 0.578125q-0.796875 0.5625 -1.21875 1.46875q-0.40625 0.90625 -0.40625 1.875zm19.541443 9.265625q-3.0 0 -4.71875 -2.0625q-1.71875 -2.078125 -1.71875 -5.890625q0 -2.375 0.6875 -4.125q0.703125 -1.75 2.0625 -2.703125q1.375 -0.96875 3.359375 -0.96875q0.9375 0 1.703125 0.234375q0.78125 0.21875 1.375 0.59375q0.609375 0.359375 1.015625 0.796875q0.421875 0.4375 0.65625 0.875l0 -8.84375l3.59375 0l0 21.796875l-2.640625 0l-0.390625 -3.109375q-0.1875 0.546875 -0.53125 1.140625q-0.34375 0.59375 -0.921875 1.109375q-0.578125 0.5 -1.453125 0.828125q-0.859375 0.328125 -2.078125 0.328125zm0.734375 -2.625q1.921875 0 2.796875 -1.25q0.890625 -1.265625 0.890625 -4.171875q-0.015625 -1.65625 -0.40625 -2.78125q-0.375 -1.125 -1.171875 -1.6875q-0.796875 -0.578125 -2.0625 -0.578125q-1.625 0 -2.65625 1.1875q-1.03125 1.1875 -1.03125 3.859375q0 2.671875 0.953125 4.046875q0.953125 1.375 2.6875 1.375z" fill-rule="nonzero"/><path fill="#d33300" d="m1116.0571 196.54669l0 0c0 -39.76451 32.235596 -72.00001 72.0 -72.00001l0 0c19.095703 0 37.40918 7.585701 50.911743 21.08831c13.502563 13.5026245 21.088257 31.816101 21.088257 50.911697l0 0c0 39.764496 -32.235474 72.0 -72.0 72.0l0 0c-39.764404 0 -72.0 -32.235504 -72.0 -72.0z" fill-rule="evenodd"/><path stroke="#004062" stroke-width="1.0" stroke-linejoin="round" stroke-linecap="butt" d="m1116.0571 196.54669l0 0c0 -39.76451 32.235596 -72.00001 72.0 -72.00001l0 0c19.095703 0 37.40918 7.585701 50.911743 21.08831c13.502563 13.5026245 21.088257 31.816101 21.088257 50.911697l0 0c0 39.764496 -32.235474 72.0 -72.0 72.0l0 0c-39.764404 0 -72.0 -32.235504 -72.0 -72.0z" fill-rule="evenodd"/><path fill="#ffffff" d="m1148.068 192.9067l0 -11.5625l7.5625 0l-0.015625 1.640625l-5.578125 0l0 3.328125l4.921875 0l0 1.625l-4.921875 0l0 4.96875l-1.96875 0zm9.40625 0l0 -8.265625l1.859375 0l0 8.265625l-1.859375 0zm-0.03125 -9.71875l0 -1.84375l1.921875 0l0 1.84375l-1.921875 0zm4.199951 9.71875l0 -8.265625l1.90625 0l0 1.171875q0.1875 -0.3125 0.515625 -0.609375q0.328125 -0.296875 0.8125 -0.484375q0.5 -0.1875 1.15625 -0.1875q0.765625 0 1.421875 0.3125q0.65625 0.296875 1.0625 0.953125q0.40625 0.640625 0.40625 1.671875l0 5.4375l-1.953125 0l0 -5.203125q0 -0.828125 -0.453125 -1.21875q-0.4375 -0.390625 -1.125 -0.390625q-0.453125 0 -0.875 0.15625q-0.421875 0.15625 -0.6875 0.46875q-0.25 0.3125 -0.25 0.78125l0 5.40625l-1.9375 0zm11.718506 0.15625q-0.796875 0 -1.421875 -0.28125q-0.625 -0.296875 -0.984375 -0.84375q-0.359375 -0.546875 -0.359375 -1.328125q0 -1.375 0.984375 -2.0625q1.0 -0.703125 3.15625 -0.734375l1.234375 -0.03125l0 -0.5625q0 -0.65625 -0.390625 -1.03125q-0.390625 -0.375 -1.203125 -0.359375q-0.609375 0 -1.109375 0.28125q-0.484375 0.28125 -0.640625 0.921875l-1.65625 0q0.046875 -0.84375 0.484375 -1.40625q0.453125 -0.578125 1.21875 -0.859375q0.78125 -0.296875 1.796875 -0.296875q1.1875 0 1.921875 0.3125q0.75 0.3125 1.09375 0.90625q0.359375 0.59375 0.359375 1.421875l0 5.796875l-1.640625 0l-0.15625 -1.484375q-0.4375 0.9375 -1.125 1.296875q-0.6875 0.34375 -1.5625 0.34375zm0.625 -1.3125q0.359375 0 0.703125 -0.125q0.359375 -0.140625 0.640625 -0.359375q0.296875 -0.234375 0.46875 -0.515625q0.171875 -0.28125 0.171875 -0.59375l0 -1.296875l-1.015625 0.015625q-0.75 0 -1.3125 0.15625q-0.5625 0.15625 -0.875 0.484375q-0.3125 0.328125 -0.3125 0.890625q0 0.625 0.4375 0.984375q0.4375 0.359375 1.09375 0.359375zm5.944214 1.15625l0 -8.265625l1.90625 0l0 1.171875q0.1875 -0.3125 0.515625 -0.609375q0.328125 -0.296875 0.8125 -0.484375q0.5 -0.1875 1.15625 -0.1875q0.765625 0 1.421875 0.3125q0.65625 0.296875 1.0625 0.953125q0.40625 0.640625 0.40625 1.671875l0 5.4375l-1.953125 0l0 -5.203125q0 -0.828125 -0.453125 -1.21875q-0.4375 -0.390625 -1.125 -0.390625q-0.453125 0 -0.875 0.15625q-0.421875 0.15625 -0.6875 0.46875q-0.25 0.3125 -0.25 0.78125l0 5.40625l-1.9375 0zm12.83667 0.15625q-1.140625 0 -2.03125 -0.5q-0.875 -0.5 -1.390625 -1.453125q-0.5 -0.953125 -0.5 -2.3125q0 -1.28125 0.46875 -2.25q0.484375 -0.96875 1.359375 -1.515625q0.890625 -0.5625 2.09375 -0.5625q0.96875 0 1.703125 0.390625q0.734375 0.390625 1.171875 1.078125q0.453125 0.671875 0.53125 1.53125l-1.65625 0q-0.0625 -0.375 -0.28125 -0.71875q-0.203125 -0.34375 -0.578125 -0.546875q-0.359375 -0.21875 -0.875 -0.21875q-0.9375 0 -1.515625 0.6875q-0.578125 0.6875 -0.578125 2.109375q0 1.3125 0.546875 2.09375q0.546875 0.78125 1.578125 0.78125q0.515625 0 0.875 -0.234375q0.375 -0.234375 0.578125 -0.5625q0.21875 -0.34375 0.28125 -0.6875l1.609375 0q-0.078125 0.84375 -0.53125 1.5q-0.4375 0.65625 -1.171875 1.03125q-0.734375 0.359375 -1.6875 0.359375zm5.218384 -0.15625l0 -8.265625l1.859375 0l0 8.265625l-1.859375 0zm-0.03125 -9.71875l0 -1.84375l1.921875 0l0 1.84375l-1.921875 0zm6.5185547 9.875q-0.796875 0 -1.421875 -0.28125q-0.625 -0.296875 -0.984375 -0.84375q-0.359375 -0.546875 -0.359375 -1.328125q0 -1.375 0.984375 -2.0625q1.0 -0.703125 3.15625 -0.734375l1.234375 -0.03125l0 -0.5625q0 -0.65625 -0.390625 -1.03125q-0.390625 -0.375 -1.203125 -0.359375q-0.609375 0 -1.109375 0.28125q-0.484375 0.28125 -0.640625 0.921875l-1.65625 0q0.046875 -0.84375 0.484375 -1.40625q0.453125 -0.578125 1.21875 -0.859375q0.78125 -0.296875 1.796875 -0.296875q1.1875 0 1.921875 0.3125q0.75 0.3125 1.09375 0.90625q0.359375 0.59375 0.359375 1.421875l0 5.796875l-1.640625 0l-0.15625 -1.484375q-0.4375 0.9375 -1.125 1.296875q-0.6875 0.34375 -1.5625 0.34375zm0.625 -1.3125q0.359375 0 0.703125 -0.125q0.359375 -0.140625 0.640625 -0.359375q0.296875 -0.234375 0.46875 -0.515625q0.171875 -0.28125 0.171875 -0.59375l0 -1.296875l-1.015625 0.015625q-0.75 0 -1.3125 0.15625q-0.5625 0.15625 -0.875 0.484375q-0.3125 0.328125 -0.3125 0.890625q0 0.625 0.4375 0.984375q0.4375 0.359375 1.09375 0.359375zm8.319214 1.28125q-0.796875 0 -1.28125 -0.203125q-0.46875 -0.203125 -0.71875 -0.53125q-0.234375 -0.34375 -0.3125 -0.765625q-0.0625 -0.421875 -0.0625 -0.859375l0 -9.65625l1.90625 0l0 9.4375q0 0.53125 0.21875 0.828125q0.21875 0.296875 0.703125 0.34375l0.421875 0.015625l0 1.21875q-0.21875 0.078125 -0.4375 0.125q-0.21875 0.046875 -0.4375 0.046875zm2.9938965 -0.125l0 -11.5625l2.78125 0l3.03125 8.828125l3.0625 -8.828125l2.765625 0l0 11.5625l-1.96875 0l0 -9.078125l-3.046875 9.078125l-1.625 0l-3.03125 -9.015625l0 9.015625l-1.96875 0z" fill-rule="nonzero"/><path fill="#ffffff" d="m1175.5231 212.06293q-1.203125 0 -2.109375 -0.5q-0.90625 -0.515625 -1.421875 -1.453125q-0.5 -0.953125 -0.5 -2.25q0 -1.265625 0.453125 -2.25q0.46875 -1.0 1.34375 -1.5625q0.875 -0.578125 2.109375 -0.578125q1.234375 0 2.0625 0.53125q0.828125 0.515625 1.265625 1.453125q0.4375 0.921875 0.4375 2.171875l0 0.59375l-5.71875 0q-0.015625 0.703125 0.21875 1.25q0.234375 0.546875 0.6875 0.859375q0.453125 0.296875 1.125 0.296875q0.6875 0 1.1875 -0.296875q0.515625 -0.3125 0.6875 -0.953125l1.78125 0q-0.15625 0.875 -0.703125 1.46875q-0.53125 0.59375 -1.3125 0.90625q-0.765625 0.3125 -1.59375 0.3125zm-2.09375 -5.046875l3.890625 0q0 -0.609375 -0.21875 -1.09375q-0.203125 -0.484375 -0.640625 -0.765625q-0.421875 -0.28125 -1.0625 -0.28125q-0.640625 0 -1.078125 0.3125q-0.4375 0.3125 -0.671875 0.8125q-0.21875 0.484375 -0.21875 1.015625zm10.589844 4.953125q-0.984375 0 -1.53125 -0.25q-0.53125 -0.265625 -0.75 -0.75q-0.203125 -0.484375 -0.203125 -1.140625l0 -4.8125l-1.34375 0l0 -1.375l1.40625 0l0.484375 -2.46875l1.40625 0l0 2.453125l1.84375 0l0 1.390625l-1.84375 0l0 4.734375q0 0.375 0.078125 0.546875q0.09375 0.171875 0.28125 0.21875q0.1875 0.046875 0.5 0.046875l1.03125 0l0 1.234375q-0.171875 0.0625 -0.5 0.109375q-0.328125 0.0625 -0.859375 0.0625zm3.1513672 -0.0625l0 -8.265625l1.859375 0l0 1.78125q0.203125 -0.609375 0.5625 -1.046875q0.375 -0.4375 0.875 -0.671875q0.515625 -0.234375 1.109375 -0.234375q0.140625 0 0.265625 0.015625q0.140625 0.015625 0.203125 0.0625l0 1.859375q-0.078125 -0.03125 -0.21875 -0.046875q-0.140625 -0.015625 -0.25 -0.015625q-0.59375 -0.046875 -1.0625 0.046875q-0.453125 0.09375 -0.765625 0.328125q-0.3125 0.21875 -0.484375 0.578125q-0.15625 0.34375 -0.15625 0.796875l0 4.8125l-1.9375 0zm6.4711914 0l0 -8.265625l1.859375 0l0 8.265625l-1.859375 0zm-0.03125 -9.71875l0 -1.84375l1.921875 0l0 1.84375l-1.921875 0zm7.5966797 9.875q-1.140625 0 -2.03125 -0.5q-0.875 -0.5 -1.390625 -1.453125q-0.5 -0.953125 -0.5 -2.3125q0 -1.28125 0.46875 -2.25q0.484375 -0.96875 1.359375 -1.515625q0.890625 -0.5625 2.09375 -0.5625q0.96875 0 1.703125 0.390625q0.734375 0.390625 1.171875 1.078125q0.453125 0.671875 0.53125 1.53125l-1.65625 0q-0.0625 -0.375 -0.28125 -0.71875q-0.203125 -0.34375 -0.578125 -0.546875q-0.359375 -0.21875 -0.875 -0.21875q-0.9375 0 -1.515625 0.6875q-0.578125 0.6875 -0.578125 2.109375q0 1.3125 0.546875 2.09375q0.546875 0.78125 1.578125 0.78125q0.515625 0 0.875 -0.234375q0.375 -0.234375 0.578125 -0.5625q0.21875 -0.34375 0.28125 -0.6875l1.609375 0q-0.078125 0.84375 -0.53125 1.5q-0.4375 0.65625 -1.171875 1.03125q-0.734375 0.359375 -1.6875 0.359375z" fill-rule="nonzero"/><path fill="#d33300" d="m1065.5913 509.0808l0 0c0 -39.764496 32.235474 -72.0 72.0 -72.0l0 0c19.095581 0 37.409058 7.5856934 50.911743 21.088318c13.502563 13.5026245 21.088257 31.816101 21.088257 50.911682l0 0c0 39.764526 -32.235474 72.0 -72.0 72.0l0 0c-39.764526 0 -72.0 -32.235474 -72.0 -72.0z" fill-rule="evenodd"/><path stroke="#004062" stroke-width="1.0" stroke-linejoin="round" stroke-linecap="butt" d="m1065.5913 509.0808l0 0c0 -39.764496 32.235474 -72.0 72.0 -72.0l0 0c19.095581 0 37.409058 7.5856934 50.911743 21.088318c13.502563 13.5026245 21.088257 31.816101 21.088257 50.911682l0 0c0 39.764526 -32.235474 72.0 -72.0 72.0l0 0c-39.764526 0 -72.0 -32.235474 -72.0 -72.0z" fill-rule="evenodd"/><path fill="#ffffff" d="m1121.5231 504.7208l0 -12.53125l5.09375 0q1.4375 0 2.359375 0.453125q0.9375 0.4375 1.375 1.25q0.453125 0.8125 0.453125 1.890625q0 1.015625 -0.328125 1.703125q-0.328125 0.671875 -0.859375 1.109375q-0.515625 0.421875 -1.109375 0.6875l2.390625 5.4375l-2.203125 0l-2.15625 -5.078125l-2.90625 0l0 5.078125l-2.109375 0zm2.109375 -6.765625l2.5 0q1.203125 0 1.875 -0.546875q0.671875 -0.546875 0.671875 -1.546875q0 -0.96875 -0.625 -1.484375q-0.625 -0.53125 -1.65625 -0.53125l-2.765625 0l0 4.109375zm9.435913 6.765625l0 -8.953125l2.015625 0l0 8.953125l-2.015625 0zm-0.03125 -10.53125l0 -1.984375l2.078125 0l0 1.984375l-2.078125 0zm7.892578 10.703125q-0.9375 0 -1.78125 -0.296875q-0.828125 -0.296875 -1.390625 -0.9375q-0.5625 -0.640625 -0.71875 -1.65625l1.859375 0q0.125 0.484375 0.421875 0.796875q0.3125 0.3125 0.734375 0.46875q0.421875 0.140625 0.875 0.140625q0.796875 0 1.28125 -0.28125q0.5 -0.28125 0.5 -0.859375q0 -0.421875 -0.28125 -0.671875q-0.265625 -0.25 -0.875 -0.390625l-1.703125 -0.390625q-1.140625 -0.25 -1.828125 -0.828125q-0.671875 -0.578125 -0.6875 -1.640625q-0.015625 -0.796875 0.390625 -1.40625q0.421875 -0.625 1.21875 -0.984375q0.8125 -0.359375 1.984375 -0.359375q1.5625 0 2.515625 0.703125q0.953125 0.6875 0.984375 1.96875l-1.796875 0q-0.09375 -0.578125 -0.546875 -0.890625q-0.453125 -0.328125 -1.171875 -0.328125q-0.75 0 -1.234375 0.28125q-0.46875 0.28125 -0.46875 0.875q0 0.40625 0.359375 0.640625q0.359375 0.234375 1.09375 0.40625l1.625 0.390625q0.6875 0.171875 1.125 0.46875q0.453125 0.28125 0.6875 0.640625q0.25 0.34375 0.34375 0.71875q0.109375 0.359375 0.109375 0.671875q0 0.875 -0.453125 1.484375q-0.4375 0.609375 -1.25 0.9375q-0.8125 0.328125 -1.921875 0.328125zm5.545532 -0.171875l0 -12.875l2.09375 0l0 7.984375l3.71875 -4.0625l2.3125 0l-3.25 3.5l3.40625 5.453125l-2.140625 0l-2.59375 -4.15625l-1.453125 1.53125l0 2.625l-2.09375 0z" fill-rule="nonzero"/><path fill="#ffffff" d="m1112.7465 525.7208l0 -12.53125l8.203125 0l-0.015625 1.78125l-6.046875 0l0 3.609375l5.34375 0l0 1.765625l-5.34375 0l0 5.375l-2.140625 0zm12.567139 0.171875q-0.859375 0 -1.546875 -0.3125q-0.671875 -0.3125 -1.0625 -0.90625q-0.375 -0.59375 -0.375 -1.453125q0 -1.484375 1.0625 -2.234375q1.078125 -0.75 3.421875 -0.78125l1.34375 -0.03125l0 -0.609375q0 -0.71875 -0.421875 -1.109375q-0.421875 -0.40625 -1.3125 -0.40625q-0.65625 0.015625 -1.203125 0.3125q-0.53125 0.296875 -0.703125 1.0l-1.78125 0q0.046875 -0.921875 0.515625 -1.53125q0.484375 -0.625 1.328125 -0.921875q0.84375 -0.3125 1.9375 -0.3125q1.28125 0 2.09375 0.34375q0.8125 0.328125 1.1875 0.96875q0.375 0.625 0.375 1.53125l0 6.28125l-1.765625 0l-0.171875 -1.609375q-0.484375 1.015625 -1.234375 1.40625q-0.734375 0.375 -1.6875 0.375zm0.6875 -1.421875q0.390625 0 0.765625 -0.140625q0.390625 -0.15625 0.6875 -0.390625q0.3125 -0.25 0.5 -0.546875q0.1875 -0.3125 0.203125 -0.640625l0 -1.421875l-1.109375 0.03125q-0.8125 0 -1.421875 0.171875q-0.609375 0.15625 -0.953125 0.515625q-0.328125 0.359375 -0.328125 0.953125q0 0.6875 0.46875 1.078125q0.484375 0.390625 1.1875 0.390625zm10.188232 1.421875q-1.234375 0 -2.1875 -0.53125q-0.953125 -0.546875 -1.5 -1.578125q-0.546875 -1.046875 -0.546875 -2.5q0 -1.40625 0.515625 -2.453125q0.515625 -1.046875 1.453125 -1.640625q0.953125 -0.59375 2.265625 -0.59375q1.046875 0 1.84375 0.421875q0.796875 0.40625 1.28125 1.140625q0.484375 0.734375 0.578125 1.671875l-1.796875 0q-0.0625 -0.40625 -0.296875 -0.765625q-0.234375 -0.375 -0.640625 -0.609375q-0.390625 -0.234375 -0.953125 -0.234375q-1.015625 0 -1.640625 0.75q-0.609375 0.75 -0.609375 2.28125q0 1.421875 0.59375 2.265625q0.59375 0.84375 1.703125 0.84375q0.546875 0 0.9375 -0.25q0.40625 -0.25 0.625 -0.609375q0.234375 -0.375 0.296875 -0.75l1.75 0q-0.078125 0.921875 -0.5625 1.640625q-0.484375 0.703125 -1.28125 1.109375q-0.796875 0.390625 -1.828125 0.390625zm8.958374 -0.109375q-1.078125 0 -1.65625 -0.28125q-0.578125 -0.28125 -0.8125 -0.796875q-0.21875 -0.515625 -0.21875 -1.234375l0 -5.21875l-1.453125 0l0 -1.484375l1.515625 0l0.515625 -2.671875l1.515625 0l0 2.65625l2.015625 0l0 1.5l-2.015625 0l0.015625 5.140625q0 0.390625 0.09375 0.578125q0.09375 0.1875 0.296875 0.25q0.203125 0.046875 0.53125 0.046875l1.109375 0l0 1.34375q-0.171875 0.0625 -0.53125 0.109375q-0.34375 0.0625 -0.921875 0.0625zm6.8881836 0.109375q-1.28125 0 -2.234375 -0.546875q-0.953125 -0.546875 -1.484375 -1.578125q-0.515625 -1.03125 -0.515625 -2.484375q0 -1.40625 0.5 -2.453125q0.515625 -1.0625 1.46875 -1.640625q0.953125 -0.59375 2.28125 -0.59375q1.28125 0 2.21875 0.5625q0.953125 0.5625 1.46875 1.609375q0.515625 1.046875 0.515625 2.515625q0 1.359375 -0.5 2.40625q-0.484375 1.03125 -1.421875 1.625q-0.9375 0.578125 -2.296875 0.578125zm0.015625 -1.59375q0.71875 0 1.1875 -0.40625q0.484375 -0.40625 0.71875 -1.09375q0.234375 -0.6875 0.234375 -1.578125q0 -0.8125 -0.21875 -1.5q-0.203125 -0.703125 -0.671875 -1.125q-0.46875 -0.421875 -1.25 -0.421875q-0.734375 0 -1.21875 0.390625q-0.484375 0.375 -0.71875 1.078125q-0.234375 0.6875 -0.234375 1.578125q0 0.8125 0.203125 1.515625q0.21875 0.703125 0.6875 1.140625q0.484375 0.421875 1.28125 0.421875zm6.128784 1.421875l0 -8.953125l2.015625 0l0 1.9375q0.21875 -0.671875 0.609375 -1.140625q0.40625 -0.46875 0.953125 -0.71875q0.546875 -0.25 1.1875 -0.25q0.15625 0 0.296875 0.015625q0.15625 0.015625 0.21875 0.0625l0 2.015625q-0.09375 -0.046875 -0.25 -0.0625q-0.140625 -0.015625 -0.25 -0.015625q-0.65625 -0.0625 -1.15625 0.046875q-0.5 0.109375 -0.84375 0.359375q-0.34375 0.234375 -0.515625 0.625q-0.171875 0.375 -0.171875 0.875l0 5.203125l-2.09375 0z" fill-rule="nonzero"/><path fill="#d33300" d="m1218.7317 360.00076l0 0c0 -39.764496 32.235596 -72.0 72.0 -72.0l0 0c19.095581 0 37.409058 7.5856934 50.911743 21.088318c13.502563 13.502594 21.088257 31.816101 21.088257 50.911682l0 0c0 39.764496 -32.235474 72.0 -72.0 72.0l0 0c-39.764404 0 -72.0 -32.235504 -72.0 -72.0z" fill-rule="evenodd"/><path stroke="#004062" stroke-width="1.0" stroke-linejoin="round" stroke-linecap="butt" d="m1218.7317 360.00076l0 0c0 -39.764496 32.235596 -72.0 72.0 -72.0l0 0c19.095581 0 37.409058 7.5856934 50.911743 21.088318c13.502563 13.502594 21.088257 31.816101 21.088257 50.911682l0 0c0 39.764496 -32.235474 72.0 -72.0 72.0l0 0c-39.764404 0 -72.0 -32.235504 -72.0 -72.0z" fill-rule="evenodd"/><path fill="#ffffff" d="m1253.7771 365.08075l0 -8.984375l-3.296875 0l0 -1.609375l8.265625 0l0 1.609375l-3.1875 0l0 8.984375l-1.78125 0zm5.943115 0l0 -7.578125l1.703125 0l0 1.640625q0.1875 -0.5625 0.515625 -0.953125q0.34375 -0.40625 0.796875 -0.609375q0.46875 -0.21875 1.015625 -0.21875q0.140625 0 0.265625 0.015625q0.125 0.015625 0.171875 0.046875l0 1.703125q-0.078125 -0.03125 -0.203125 -0.046875q-0.125 -0.015625 -0.21875 -0.015625q-0.5625 -0.046875 -0.984375 0.046875q-0.421875 0.078125 -0.71875 0.296875q-0.28125 0.203125 -0.421875 0.53125q-0.140625 0.3125 -0.140625 0.734375l0 4.40625l-1.78125 0zm7.8739014 0.140625q-0.71875 0 -1.296875 -0.265625q-0.578125 -0.265625 -0.90625 -0.765625q-0.328125 -0.5 -0.328125 -1.21875q0 -1.25 0.90625 -1.890625q0.90625 -0.640625 2.890625 -0.671875l1.125 -0.03125l0 -0.5q0 -0.609375 -0.359375 -0.953125q-0.34375 -0.34375 -1.09375 -0.328125q-0.5625 0 -1.015625 0.265625q-0.453125 0.25 -0.59375 0.84375l-1.515625 0q0.046875 -0.78125 0.453125 -1.296875q0.40625 -0.53125 1.109375 -0.78125q0.71875 -0.265625 1.640625 -0.265625q1.09375 0 1.765625 0.28125q0.6875 0.28125 1.0 0.828125q0.328125 0.53125 0.328125 1.296875l0 5.3125l-1.5 0l-0.140625 -1.359375q-0.40625 0.859375 -1.03125 1.1875q-0.625 0.3125 -1.4375 0.3125zm0.578125 -1.203125q0.328125 0 0.640625 -0.109375q0.328125 -0.125 0.59375 -0.328125q0.265625 -0.21875 0.421875 -0.46875q0.15625 -0.265625 0.15625 -0.546875l0 -1.1875l-0.921875 0.015625q-0.6875 0 -1.203125 0.140625q-0.515625 0.140625 -0.8125 0.453125q-0.28125 0.296875 -0.28125 0.796875q0 0.578125 0.40625 0.90625q0.40625 0.328125 1.0 0.328125zm5.4417725 1.0625l0 -7.578125l1.734375 0l0 1.078125q0.1875 -0.28125 0.484375 -0.546875q0.3125 -0.28125 0.75 -0.453125q0.453125 -0.171875 1.046875 -0.171875q0.703125 0 1.3125 0.28125q0.609375 0.28125 0.96875 0.875q0.375 0.59375 0.375 1.53125l0 4.984375l-1.78125 0l0 -4.765625q0 -0.75 -0.421875 -1.109375q-0.40625 -0.375 -1.03125 -0.375q-0.421875 0 -0.8125 0.15625q-0.375 0.140625 -0.609375 0.4375q-0.234375 0.28125 -0.234375 0.703125l0 4.953125l-1.78125 0zm11.3984375 0.140625q-0.78125 0 -1.5 -0.25q-0.703125 -0.25 -1.1875 -0.78125q-0.46875 -0.546875 -0.59375 -1.40625l1.5625 0q0.109375 0.40625 0.359375 0.671875q0.265625 0.265625 0.625 0.390625q0.359375 0.125 0.734375 0.125q0.6875 0 1.09375 -0.234375q0.421875 -0.234375 0.421875 -0.734375q0 -0.359375 -0.234375 -0.5625q-0.21875 -0.21875 -0.75 -0.328125l-1.4375 -0.328125q-0.96875 -0.21875 -1.546875 -0.703125q-0.578125 -0.484375 -0.578125 -1.390625q-0.015625 -0.671875 0.328125 -1.1875q0.34375 -0.53125 1.03125 -0.828125q0.6875 -0.3125 1.671875 -0.3125q1.328125 0 2.125 0.59375q0.8125 0.578125 0.828125 1.671875l-1.515625 0q-0.078125 -0.484375 -0.46875 -0.765625q-0.375 -0.28125 -0.96875 -0.28125q-0.640625 0 -1.046875 0.25q-0.390625 0.234375 -0.390625 0.734375q0 0.34375 0.296875 0.546875q0.3125 0.203125 0.921875 0.34375l1.375 0.328125q0.578125 0.140625 0.953125 0.390625q0.375 0.25 0.578125 0.546875q0.21875 0.296875 0.296875 0.609375q0.078125 0.3125 0.078125 0.578125q0 0.734375 -0.375 1.25q-0.375 0.515625 -1.0625 0.796875q-0.6875 0.265625 -1.625 0.265625zm6.918091 0q-0.71875 0 -1.296875 -0.265625q-0.578125 -0.265625 -0.90625 -0.765625q-0.328125 -0.5 -0.328125 -1.21875q0 -1.25 0.90625 -1.890625q0.90625 -0.640625 2.890625 -0.671875l1.125 -0.03125l0 -0.5q0 -0.609375 -0.359375 -0.953125q-0.34375 -0.34375 -1.09375 -0.328125q-0.5625 0 -1.015625 0.265625q-0.453125 0.25 -0.59375 0.84375l-1.515625 0q0.046875 -0.78125 0.453125 -1.296875q0.40625 -0.53125 1.109375 -0.78125q0.71875 -0.265625 1.640625 -0.265625q1.09375 0 1.765625 0.28125q0.6875 0.28125 1.0 0.828125q0.328125 0.53125 0.328125 1.296875l0 5.3125l-1.5 0l-0.140625 -1.359375q-0.40625 0.859375 -1.03125 1.1875q-0.625 0.3125 -1.4375 0.3125zm0.578125 -1.203125q0.328125 0 0.640625 -0.109375q0.328125 -0.125 0.59375 -0.328125q0.265625 -0.21875 0.421875 -0.46875q0.15625 -0.265625 0.15625 -0.546875l0 -1.1875l-0.921875 0.015625q-0.6875 0 -1.203125 0.140625q-0.515625 0.140625 -0.8125 0.453125q-0.28125 0.296875 -0.28125 0.796875q0 0.578125 0.40625 0.90625q0.40625 0.328125 1.0 0.328125zm8.613647 1.203125q-1.03125 0 -1.84375 -0.453125q-0.8125 -0.453125 -1.28125 -1.328125q-0.453125 -0.875 -0.453125 -2.125q0 -1.171875 0.4375 -2.0625q0.4375 -0.890625 1.234375 -1.390625q0.796875 -0.5 1.90625 -0.5q0.890625 0 1.5625 0.359375q0.671875 0.34375 1.078125 0.96875q0.40625 0.609375 0.5 1.40625l-1.53125 0q-0.046875 -0.34375 -0.25 -0.65625q-0.203125 -0.3125 -0.53125 -0.5q-0.328125 -0.203125 -0.8125 -0.203125q-0.859375 0 -1.390625 0.640625q-0.515625 0.625 -0.515625 1.921875q0 1.203125 0.5 1.921875q0.5 0.703125 1.4375 0.703125q0.46875 0 0.796875 -0.203125q0.34375 -0.203125 0.53125 -0.515625q0.203125 -0.3125 0.25 -0.625l1.484375 0q-0.0625 0.765625 -0.484375 1.375q-0.40625 0.59375 -1.078125 0.9375q-0.671875 0.328125 -1.546875 0.328125zm7.5682373 -0.078125q-0.890625 0 -1.390625 -0.234375q-0.5 -0.25 -0.6875 -0.6875q-0.1875 -0.4375 -0.1875 -1.046875l0 -4.40625l-1.234375 0l0 -1.265625l1.28125 0l0.453125 -2.25l1.28125 0l0 2.25l1.6875 0l0 1.265625l-1.6875 0l0 4.34375q0 0.328125 0.078125 0.5q0.078125 0.15625 0.25 0.203125q0.171875 0.046875 0.46875 0.046875l0.9375 0l0 1.125q-0.15625 0.0625 -0.453125 0.109375q-0.296875 0.046875 -0.796875 0.046875zm2.9210205 -0.0625l0 -7.578125l1.703125 0l0 7.578125l-1.703125 0zm-0.03125 -8.90625l0 -1.6875l1.765625 0l0 1.6875l-1.765625 0zm6.953125 9.046875q-1.078125 0 -1.890625 -0.453125q-0.796875 -0.46875 -1.25 -1.34375q-0.4375 -0.875 -0.4375 -2.09375q0 -1.1875 0.421875 -2.078125q0.4375 -0.90625 1.234375 -1.390625q0.8125 -0.5 1.9375 -0.5q1.078125 0 1.875 0.484375q0.796875 0.46875 1.234375 1.359375q0.4375 0.875 0.4375 2.125q0 1.15625 -0.421875 2.03125q-0.40625 0.875 -1.203125 1.375q-0.796875 0.484375 -1.9375 0.484375zm0.015625 -1.34375q0.609375 0 1.0 -0.34375q0.40625 -0.34375 0.609375 -0.921875q0.203125 -0.59375 0.203125 -1.328125q0 -0.703125 -0.1875 -1.28125q-0.171875 -0.59375 -0.578125 -0.9375q-0.390625 -0.359375 -1.046875 -0.359375q-0.625 0 -1.03125 0.328125q-0.40625 0.3125 -0.609375 0.90625q-0.203125 0.578125 -0.203125 1.34375q0 0.6875 0.171875 1.28125q0.1875 0.578125 0.59375 0.953125q0.40625 0.359375 1.078125 0.359375zm5.1811523 1.203125l0 -7.578125l1.734375 0l0 1.078125q0.1875 -0.28125 0.484375 -0.546875q0.3125 -0.28125 0.75 -0.453125q0.453125 -0.171875 1.046875 -0.171875q0.703125 0 1.3125 0.28125q0.609375 0.28125 0.96875 0.875q0.375 0.59375 0.375 1.53125l0 4.984375l-1.78125 0l0 -4.765625q0 -0.75 -0.421875 -1.109375q-0.40625 -0.375 -1.03125 -0.375q-0.421875 0 -0.8125 0.15625q-0.375 0.140625 -0.609375 0.4375q-0.234375 0.28125 -0.234375 0.703125l0 4.953125l-1.78125 0z" fill-rule="nonzero"/></g></svg>